{"glyphs":{"0":{"ha":833,"x_min":101,"x_max":733,"o":"m 540 122 q 633 508 633 235 q 528 869 633 781 q 442 903 488 903 q 277 785 353 903 q 201 477 201 668 q 240 186 201 286 q 304 96 263 129 q 419 63 346 63 q 540 122 492 63 m 269 899 q 442 990 349 990 q 601 925 535 990 q 733 492 733 796 q 656 131 733 276 q 411 -25 569 -25 q 172 121 253 -25 q 101 446 101 250 q 156 786 101 642 q 201 881 178 847 q 240 915 225 915 q 269 899 256 915 z "},"1":{"ha":833,"x_min":185,"x_max":497,"o":"m 385 24 l 388 146 l 388 842 q 256 794 338 813 q 239 793 253 793 q 205 804 225 793 q 185 826 185 815 q 200 843 185 838 q 393 964 333 896 q 429 986 413 986 q 472 969 446 986 q 497 934 497 953 q 493 890 497 915 q 489 833 489 864 l 489 154 l 492 -1 q 465 -15 492 -15 q 412 -5 439 -15 q 385 24 385 6 z "},"2":{"ha":833,"x_min":79,"x_max":749,"o":"m 511 10 l 340 10 q 143 -6 228 10 l 136 -6 q 96 17 113 -6 q 79 56 79 39 q 86 83 79 72 q 101 103 93 94 q 115 122 110 113 q 242 288 156 192 q 430 469 328 385 q 578 622 532 553 q 625 757 625 692 q 583 862 625 822 q 456 901 542 901 q 316 864 371 901 q 238 765 261 826 q 219 740 232 751 q 188 729 206 729 q 153 753 169 729 q 136 792 136 778 q 156 839 136 807 q 214 906 175 871 q 447 990 311 990 q 656 926 583 990 q 728 767 728 863 q 667 585 728 671 q 503 413 607 499 q 201 89 297 246 q 408 96 271 96 l 611 94 l 701 96 q 734 71 719 96 q 749 22 749 46 q 728 -1 749 -1 q 662 4 714 -1 q 511 10 610 10 z "},"3":{"ha":833,"x_min":82,"x_max":746,"o":"m 438 489 q 324 476 386 489 q 290 499 304 476 q 276 541 276 521 q 293 563 276 561 q 563 668 478 581 q 604 765 604 711 q 442 904 604 904 q 208 792 313 904 q 179 774 196 774 q 154 788 176 774 q 132 828 132 803 q 147 865 132 853 q 439 990 267 990 q 629 933 557 990 q 701 783 701 876 q 653 631 701 690 q 518 544 604 571 q 633 515 582 544 q 715 431 685 485 q 746 296 746 376 q 707 140 746 215 q 587 20 668 65 q 396 -25 506 -25 q 218 3 286 -25 q 93 88 150 32 q 82 120 82 99 q 97 166 82 142 q 123 190 111 190 q 143 182 135 190 q 242 94 188 126 q 385 63 297 63 q 533 96 474 63 q 620 184 593 129 q 647 301 647 239 q 588 438 647 386 q 438 489 529 489 z "},"4":{"ha":833,"x_min":71,"x_max":792,"o":"m 776 221 l 647 224 l 621 222 l 621 143 l 626 -1 q 601 -15 626 -15 q 549 -5 575 -15 q 522 24 522 6 l 525 146 l 525 218 l 196 201 q 158 197 175 201 q 127 192 142 192 q 92 212 113 192 q 71 252 71 232 q 82 288 71 272 q 106 320 93 304 q 129 350 119 336 q 431 838 389 760 q 499 978 472 915 q 514 988 503 988 q 542 975 525 988 q 583 913 583 944 q 579 900 583 907 l 529 822 q 188 286 299 447 l 525 301 l 525 581 l 521 729 q 547 743 521 743 q 598 733 572 743 q 624 704 624 722 l 621 581 l 621 306 l 646 307 q 703 312 674 308 q 749 315 733 315 q 778 290 765 315 q 792 242 792 264 q 776 221 792 221 z "},"5":{"ha":833,"x_min":90,"x_max":746,"o":"m 229 546 q 435 614 315 614 l 447 614 q 593 576 525 613 q 703 474 661 540 q 746 315 746 407 q 708 145 746 222 q 592 21 671 68 q 404 -26 513 -26 q 224 10 296 -26 q 100 103 151 47 q 90 135 90 113 q 105 184 90 158 q 133 210 119 210 q 151 200 146 210 q 247 106 188 147 q 386 63 306 64 l 389 63 q 535 97 478 63 q 622 188 593 131 q 650 310 650 244 q 588 472 650 415 q 435 531 525 529 l 429 531 q 290 499 342 531 q 192 425 239 468 q 175 421 188 421 q 144 440 163 421 q 126 478 126 460 q 142 550 126 497 l 194 883 q 197 914 197 899 l 197 943 q 222 961 197 961 q 276 946 246 961 l 565 967 q 658 975 633 971 l 661 975 q 690 951 676 975 q 703 906 703 926 q 686 885 703 885 q 638 883 668 883 q 576 879 607 882 l 282 857 l 229 546 z "},"6":{"ha":833,"x_min":88,"x_max":751,"o":"m 653 311 q 626 416 653 368 q 553 493 600 464 q 433 522 506 522 q 303 488 360 522 q 216 398 246 454 q 186 274 186 342 q 247 121 186 181 q 421 61 308 61 q 593 132 533 61 q 653 311 653 203 m 240 531 q 444 606 325 606 q 598 568 528 606 q 710 465 668 531 q 751 312 751 399 q 715 147 751 225 q 604 23 678 69 q 424 -24 531 -24 q 244 16 318 -24 q 128 123 169 56 q 88 276 88 190 q 122 459 88 363 q 224 673 156 556 q 345 869 293 790 q 401 958 397 947 q 411 976 406 968 q 452 992 419 992 q 503 982 485 992 q 522 957 522 972 q 508 928 522 942 q 340 703 410 815 q 240 531 271 592 z "},"7":{"ha":833,"x_min":107,"x_max":736,"o":"m 736 913 q 715 869 731 893 q 667 778 700 844 q 353 7 433 304 q 307 -15 349 -15 q 256 0 265 -15 q 247 31 247 15 q 353 309 247 47 q 614 882 460 571 l 218 847 q 198 844 208 846 q 169 842 188 842 q 135 860 150 842 q 113 900 119 879 q 107 924 107 921 q 115 936 107 936 l 165 933 l 611 965 q 642 971 628 967 q 669 975 657 975 l 674 975 q 714 953 692 974 q 736 913 736 932 z "},"8":{"ha":833,"x_min":79,"x_max":742,"o":"m 393 500 q 234 371 290 428 q 178 244 178 314 q 200 157 178 199 q 390 64 250 64 q 569 112 503 64 q 635 240 635 160 q 607 363 635 319 q 526 436 579 406 q 393 500 472 467 m 385 594 q 649 785 511 675 q 632 783 646 783 q 606 803 618 783 q 421 907 542 907 q 278 862 332 907 q 224 760 224 817 q 263 669 224 704 q 385 594 303 633 m 679 810 q 719 833 703 833 q 742 811 742 833 q 549 618 742 771 q 468 557 503 582 q 666 435 597 508 q 735 244 735 363 q 643 51 735 125 q 390 -24 551 -24 q 226 11 296 -24 q 117 106 156 46 q 79 240 79 167 q 308 542 79 392 q 173 639 219 589 q 126 753 126 689 q 163 871 126 818 q 265 956 199 924 q 408 989 331 989 q 535 969 485 989 q 618 919 585 949 q 668 865 651 890 q 685 831 685 840 q 679 810 685 821 z "},"9":{"ha":833,"x_min":82,"x_max":765,"o":"m 643 796 q 624 788 626 788 q 602 806 610 788 q 575 847 594 824 q 442 903 528 903 q 253 808 333 903 q 178 629 178 717 q 315 451 178 451 q 519 543 435 451 q 614 697 578 606 q 635 760 631 739 q 643 796 639 782 m 524 -18 q 488 13 488 -18 q 501 90 488 24 q 531 235 515 157 q 558 363 547 313 q 574 444 568 413 q 583 496 579 475 q 463 399 535 436 q 322 361 390 361 q 199 391 253 361 q 114 478 146 421 q 82 610 82 535 q 188 872 82 756 q 435 989 293 989 q 619 922 549 989 q 658 874 647 894 q 667 926 665 904 q 689 949 669 949 l 692 949 q 743 927 721 946 q 765 897 765 908 l 765 893 q 628 247 717 771 q 593 13 603 96 q 529 -18 590 -15 l 524 -18 z "}," ":{"ha":486,"x_min":0,"x_max":0,"o":""},"!":{"ha":486,"x_min":171,"x_max":317,"o":"m 239 140 q 255 140 239 140 q 294 112 271 140 q 317 53 317 83 q 299 6 317 24 q 249 -12 282 -12 q 193 14 215 -12 q 171 70 171 40 q 189 120 171 100 q 239 140 207 140 m 190 965 q 221 989 190 989 q 280 976 251 989 q 308 946 308 964 l 308 944 q 304 899 307 922 q 300 846 301 876 l 283 310 l 283 240 q 263 229 283 229 q 223 238 243 229 q 203 260 203 246 l 203 261 q 206 315 206 283 l 197 853 q 190 963 197 921 l 190 965 z "},"\"":{"ha":486,"x_min":103,"x_max":383,"o":"m 197 683 q 154 661 197 661 q 125 667 139 661 q 111 683 111 672 l 103 976 q 119 999 103 992 q 155 1007 136 1007 q 190 999 174 1007 q 206 976 206 992 l 197 683 m 375 683 q 332 661 375 661 q 303 667 317 661 q 289 683 289 672 l 281 976 q 297 999 281 992 q 333 1007 314 1007 q 367 999 351 1007 q 383 976 383 992 l 375 683 z "},"#":{"ha":833,"x_min":51,"x_max":799,"o":"m 547 646 l 339 646 q 322 515 331 578 q 307 413 313 453 l 301 372 l 510 372 l 547 646 m 454 10 l 454 13 q 465 55 458 31 q 474 103 471 79 l 499 292 l 292 292 l 265 100 q 261 54 263 75 q 258 18 260 33 q 207 -10 254 -10 q 160 10 160 -10 l 160 13 q 169 53 164 31 q 179 103 175 76 l 204 292 l 186 292 q 81 288 106 292 l 79 288 q 59 306 67 288 q 51 342 51 324 q 74 375 51 375 q 188 372 115 372 l 215 372 l 253 646 l 222 646 q 117 642 144 646 l 115 642 q 96 660 104 642 q 88 696 88 678 q 110 729 88 729 q 224 726 151 726 l 264 726 l 290 919 q 296 979 293 931 q 323 996 296 996 q 369 988 350 996 q 389 967 389 981 l 389 963 q 382 939 386 953 q 376 917 378 925 l 369 861 q 350 726 361 804 l 558 726 l 585 919 q 590 979 588 931 q 617 996 590 996 q 664 988 644 996 q 683 967 683 981 l 683 963 q 671 917 674 933 l 644 726 l 668 726 q 767 731 708 726 l 768 731 q 790 714 782 731 q 799 681 799 697 q 775 644 799 644 q 714 646 744 646 l 633 646 l 597 372 l 632 372 q 731 376 672 372 l 732 376 q 754 360 746 376 q 763 328 763 343 q 739 290 763 290 q 686 292 708 292 l 586 292 l 560 100 q 556 53 557 74 q 553 18 554 33 q 501 -10 549 -10 q 454 10 454 -10 z "},"$":{"ha":833,"x_min":49,"x_max":765,"o":"m 467 474 l 467 68 q 613 133 558 82 q 667 264 667 185 q 626 392 667 343 q 467 474 585 440 m 375 897 q 242 834 290 883 q 194 728 194 785 q 208 668 194 692 q 257 628 222 644 q 353 594 292 611 l 375 589 l 375 897 m 372 -136 l 375 -21 q 57 128 183 -12 q 49 156 49 136 q 67 198 49 175 q 98 221 85 221 q 117 211 111 221 q 272 88 175 122 q 375 65 336 65 l 375 499 l 315 514 q 153 590 213 542 q 94 731 94 639 q 130 846 94 792 q 228 938 165 900 q 374 985 292 975 q 371 1057 371 1026 q 397 1069 371 1069 q 446 1061 422 1069 q 469 1038 469 1053 l 468 986 q 609 949 554 975 q 690 899 664 922 q 715 851 715 876 q 706 803 715 826 q 681 781 696 781 q 647 806 672 781 q 467 899 593 876 l 467 565 l 501 556 q 765 267 765 488 q 731 133 765 194 q 629 32 696 72 q 467 -19 563 -8 q 471 -158 471 -57 q 446 -171 471 -171 q 397 -161 421 -171 q 372 -136 372 -151 z "},"%":{"ha":1111,"x_min":75,"x_max":1036,"o":"m 828 51 q 951 225 951 51 q 922 340 951 290 q 838 390 893 390 q 743 349 783 390 q 703 215 703 308 q 754 75 703 121 q 828 51 782 51 m 724 424 q 834 467 767 467 q 946 433 901 467 q 1036 219 1036 365 q 1014 97 1036 154 q 831 -25 965 -25 q 669 43 721 -25 q 617 219 617 111 q 635 330 617 276 q 688 418 653 383 q 708 429 697 429 q 724 424 718 429 m 161 760 q 286 592 161 592 q 379 638 349 592 q 410 758 410 685 q 381 881 410 831 q 297 931 351 931 q 201 888 242 931 q 161 760 161 846 m 182 964 q 292 1007 225 1007 q 404 974 360 1007 q 494 760 494 906 q 472 639 494 694 q 289 515 424 515 q 127 583 179 515 q 75 760 75 651 q 93 870 75 817 q 146 958 111 924 q 166 969 156 969 q 182 964 176 969 m 764 904 q 822 1006 807 972 q 841 1018 828 1018 q 869 1006 854 1018 q 904 946 904 972 q 901 938 904 943 q 838 850 865 893 l 318 42 q 267 -46 292 -1 q 248 -56 261 -56 q 213 -32 235 -56 q 192 8 192 -8 q 208 42 192 24 q 250 99 225 60 l 764 904 z "},"&":{"ha":972,"x_min":72,"x_max":978,"o":"m 619 169 q 340 488 514 281 q 215 372 267 438 q 164 225 164 306 q 215 99 164 144 q 365 54 267 54 q 492 83 425 54 q 619 169 560 111 m 521 817 q 436 917 521 917 q 314 846 356 917 q 294 772 294 813 q 357 604 294 685 q 476 709 431 651 q 521 817 521 767 m 614 821 q 410 538 614 682 q 672 238 557 357 q 792 506 751 346 q 803 546 799 531 q 821 561 808 561 q 844 553 828 561 q 876 532 861 546 q 890 497 890 518 q 842 367 890 475 q 733 175 793 260 q 915 32 849 56 q 978 -8 978 6 q 926 -19 978 -19 q 833 -6 874 -19 q 758 36 792 7 q 678 110 724 65 q 528 7 613 38 q 365 -24 444 -24 q 140 41 208 -24 q 72 214 72 106 q 132 403 72 322 q 289 553 192 483 q 203 775 203 668 q 233 886 203 838 q 315 962 264 935 q 440 989 365 989 q 564 947 514 989 q 614 821 614 904 z "},"'":{"ha":486,"x_min":192,"x_max":294,"o":"m 286 683 q 244 661 286 661 q 200 683 203 661 l 192 976 q 208 999 192 992 q 243 1007 225 1007 q 294 978 294 1007 l 294 976 l 286 683 z "},"(":{"ha":486,"x_min":139,"x_max":449,"o":"m 438 -194 q 415 -221 438 -221 q 372 -192 404 -221 q 225 22 293 -118 q 139 401 139 196 q 217 791 139 606 q 375 1064 294 976 q 422 1099 408 1099 q 449 1075 449 1099 q 442 1057 449 1064 q 297 755 351 951 q 243 405 243 558 q 293 83 243 251 q 426 -168 343 -85 q 438 -194 438 -179 z "},")":{"ha":486,"x_min":36,"x_max":346,"o":"m 113 -192 q 69 -221 81 -221 q 47 -194 47 -221 q 58 -168 47 -179 q 192 83 142 -85 q 242 405 242 251 q 188 755 242 558 q 43 1057 133 951 q 36 1075 36 1064 q 63 1099 36 1099 q 111 1064 78 1099 q 261 811 190 976 q 346 401 346 606 q 269 39 346 197 q 113 -192 192 -119 z "},"*":{"ha":694,"x_min":117,"x_max":582,"o":"m 392 958 l 390 939 q 384 874 388 908 q 378 803 381 839 q 499 863 472 846 q 542 879 525 879 q 570 856 558 879 q 582 811 582 833 q 540 775 582 783 l 399 746 q 479 647 460 667 l 506 619 q 514 601 514 613 q 494 567 514 589 q 452 546 474 546 q 423 558 431 546 q 408 586 415 569 q 383 637 401 603 q 349 706 365 671 q 293 600 306 633 q 273 555 281 567 q 247 543 265 543 q 205 561 228 543 q 182 594 182 579 q 197 628 182 610 q 290 740 258 699 q 183 751 218 749 q 133 757 149 753 q 117 785 117 761 q 126 833 117 808 q 156 857 135 857 q 213 836 163 857 q 313 799 263 815 l 289 960 q 342 992 289 992 l 346 992 q 383 982 375 992 q 392 958 392 972 z "},"+":{"ha":833,"x_min":71,"x_max":761,"o":"m 458 24 q 421 -4 458 -4 q 388 5 403 -4 q 372 31 372 14 l 372 32 q 376 125 376 74 l 376 308 l 206 308 q 106 304 131 308 l 103 304 q 80 322 89 304 q 71 357 71 339 q 99 392 71 392 q 207 389 138 389 l 376 389 l 376 551 q 374 660 376 621 q 408 688 374 688 q 444 678 426 688 q 461 656 461 669 l 461 653 q 457 553 457 603 l 457 389 l 632 389 q 725 393 642 389 l 726 393 q 752 377 743 393 q 761 343 761 361 q 733 307 761 307 l 631 308 l 457 308 l 457 126 l 458 24 z "},",":{"ha":486,"x_min":140,"x_max":321,"o":"m 158 -144 q 140 -125 140 -144 q 156 -101 140 -111 q 196 -62 172 -90 q 228 -11 219 -33 q 199 1 207 -3 q 163 69 163 33 q 187 123 163 104 q 242 142 211 142 q 295 115 274 142 q 321 53 317 89 l 321 42 q 260 -82 321 -19 q 158 -144 200 -144 z "},"-":{"ha":486,"x_min":31,"x_max":458,"o":"m 331 389 q 429 392 371 389 l 431 392 q 450 375 442 392 q 458 332 458 358 q 438 306 458 306 l 329 308 l 163 308 q 60 304 85 308 l 58 304 q 38 322 46 304 q 31 358 31 340 q 53 392 31 392 q 164 389 94 389 l 331 389 z "},".":{"ha":486,"x_min":171,"x_max":331,"o":"m 247 153 q 263 153 247 153 q 304 123 278 153 q 331 60 331 93 q 305 3 331 26 q 249 -19 279 -19 q 195 11 219 -19 q 171 75 171 42 q 194 131 171 108 q 247 153 217 153 z "},"/":{"ha":486,"x_min":11,"x_max":465,"o":"m 351 917 q 385 1025 372 975 q 402 1043 389 1043 q 431 1033 415 1043 q 465 985 465 1007 q 455 960 465 981 q 425 889 444 939 l 125 65 q 89 -40 101 0 q 65 -58 83 -58 q 29 -42 47 -58 q 11 -11 11 -26 q 15 13 11 4 q 54 97 40 58 l 351 917 z "},":":{"ha":486,"x_min":174,"x_max":319,"o":"m 244 140 q 259 140 244 140 q 297 112 274 140 q 319 55 319 83 q 302 8 319 26 q 251 -10 285 -10 q 196 19 218 -10 q 174 77 174 47 q 194 124 174 107 q 244 140 215 140 m 244 656 q 259 656 244 656 q 297 627 274 656 q 319 570 319 599 q 302 524 319 542 q 251 506 285 506 q 196 534 218 506 q 174 592 174 563 q 194 639 174 622 q 244 656 215 656 z "},";":{"ha":486,"x_min":147,"x_max":319,"o":"m 167 -139 q 147 -119 147 -139 q 156 -103 147 -108 q 206 -57 182 -85 q 235 -4 229 -29 q 219 0 232 -3 q 200 8 207 3 q 169 69 169 36 q 192 118 169 101 q 242 135 214 135 q 290 110 271 135 q 315 39 310 85 q 275 -60 315 -8 q 178 -136 235 -111 q 167 -139 172 -139 m 244 656 q 259 656 244 656 q 297 627 274 656 q 319 570 319 599 q 302 524 319 542 q 251 506 285 506 q 196 534 218 506 q 174 592 174 563 q 194 639 174 622 q 244 656 215 656 z "},"<":{"ha":833,"x_min":129,"x_max":704,"o":"m 229 328 q 639 106 453 218 q 683 81 663 92 q 697 44 697 71 q 690 -3 697 17 q 671 -22 683 -22 q 661 -18 668 -22 q 281 217 529 82 q 181 265 193 264 q 138 300 147 272 q 129 344 129 328 q 133 368 129 360 q 163 386 140 379 q 247 428 185 393 q 461 547 332 471 q 661 679 590 622 q 672 683 668 683 q 695 662 686 683 q 704 616 704 640 q 692 585 704 592 q 523 485 644 558 q 229 328 401 413 z "},"=":{"ha":833,"x_min":83,"x_max":750,"o":"m 106 260 q 219 257 147 257 l 618 257 q 717 261 658 257 l 718 261 q 742 243 733 261 q 750 199 750 225 q 729 174 750 174 l 617 176 l 218 176 q 113 172 138 176 l 111 172 q 91 190 99 172 q 83 226 83 208 q 106 260 83 260 m 106 521 q 219 518 147 518 l 618 518 q 717 522 658 518 l 718 522 q 742 504 733 522 q 750 460 750 486 q 729 435 750 435 l 617 438 l 218 438 q 113 433 138 438 l 111 433 q 91 451 99 433 q 83 488 83 469 q 106 521 83 521 z "},">":{"ha":833,"x_min":135,"x_max":710,"o":"m 610 335 q 252 525 328 479 q 156 582 176 571 q 142 619 142 592 q 149 665 142 646 q 168 685 156 685 q 226 644 172 685 q 457 502 281 603 q 652 398 633 401 q 683 388 671 394 q 702 358 694 381 q 710 319 710 336 q 705 294 710 303 q 681 278 700 285 q 433 148 617 256 q 178 -17 249 40 q 167 -21 172 -21 q 144 1 153 -21 q 135 47 135 22 q 147 78 135 72 q 313 174 194 104 q 610 335 431 244 z "},"?":{"ha":833,"x_min":125,"x_max":725,"o":"m 399 140 q 415 140 399 140 q 453 112 431 140 q 476 53 476 83 q 459 6 476 24 q 408 -12 442 -12 q 353 14 375 -12 q 331 70 331 40 q 349 120 331 100 q 399 140 367 140 m 444 353 l 444 328 q 458 256 444 311 q 413 233 458 233 q 360 256 368 233 q 351 311 351 279 q 358 390 351 343 q 394 476 365 436 q 462 548 424 515 q 538 614 500 581 q 624 789 624 690 q 592 874 624 839 q 490 908 560 908 q 363 882 421 908 q 269 819 304 856 q 215 721 233 782 q 190 703 210 703 q 147 722 169 703 q 125 755 125 740 q 128 774 125 769 q 283 940 193 889 q 486 990 372 990 q 663 939 600 990 q 725 806 725 888 q 699 675 725 725 q 633 588 672 625 q 552 518 593 550 q 478 447 511 486 q 444 353 444 407 z "},"@":{"ha":1089,"x_min":50,"x_max":1040,"o":"m 378 419 q 461 296 378 296 q 625 394 556 296 q 692 592 692 486 q 664 671 692 643 q 588 699 636 699 q 490 660 539 699 q 409 559 440 622 q 378 419 378 496 m 826 711 l 825 706 q 768 350 768 536 q 796 285 768 285 q 868 321 832 285 q 929 425 904 357 q 954 594 954 493 q 906 767 954 694 q 773 876 857 839 q 592 913 689 913 q 415 873 494 913 q 274 766 335 833 q 177 613 213 699 q 142 435 142 528 q 251 151 142 244 q 535 58 361 58 q 865 158 708 58 q 985 258 938 204 q 1014 276 1001 276 q 1033 254 1033 276 q 1026 231 1033 244 q 903 100 979 157 q 546 -24 742 -24 q 285 30 396 -24 q 112 184 174 83 q 50 410 50 285 q 90 638 50 536 q 202 818 131 739 q 372 943 274 897 q 594 989 469 989 q 822 940 719 989 q 983 802 925 892 q 1040 596 1040 713 q 1005 392 1040 479 q 913 255 969 304 q 793 206 857 206 q 683 328 683 206 l 683 342 q 685 354 683 347 q 461 207 593 207 q 328 262 378 207 q 278 414 278 317 q 319 594 278 511 q 431 727 361 676 q 589 778 501 778 q 719 715 676 778 q 722 752 722 740 q 739 764 722 764 q 776 756 756 764 q 811 736 796 749 q 826 711 826 724 z "},"A":{"ha":958,"x_min":-1,"x_max":960,"o":"m 669 411 q 494 835 551 685 q 292 396 379 578 l 669 411 m 558 944 l 554 917 q 628 722 554 899 q 944 50 860 172 q 960 22 960 28 q 935 -3 960 6 q 879 -12 910 -12 q 843 4 849 -12 q 786 151 817 82 l 704 332 l 256 313 l 250 313 q 206 221 228 265 l 164 138 q 113 14 138 85 q 51 -10 104 -10 q -1 17 -1 -10 q 4 33 -1 25 q 15 51 10 40 q 34 86 21 61 q 74 162 47 111 q 147 303 101 213 l 138 303 q 107 328 121 303 q 93 375 93 354 q 108 396 93 396 l 111 396 q 165 393 136 393 l 192 393 q 433 907 379 768 q 442 945 439 919 q 451 979 444 971 q 480 988 458 988 q 528 975 501 988 q 558 944 554 963 z "},"B":{"ha":903,"x_min":74,"x_max":832,"o":"m 454 497 q 244 488 351 497 l 244 54 q 688 171 586 54 q 733 288 733 224 q 647 451 733 399 q 481 497 579 494 l 454 497 m 656 765 q 428 903 656 903 q 244 879 331 903 l 244 567 l 263 567 q 427 578 367 567 q 538 613 488 589 q 622 676 588 638 q 656 765 656 715 m 147 50 l 147 868 q 110 893 129 874 q 92 926 92 913 q 101 943 92 939 q 244 972 138 957 q 453 988 350 988 q 624 958 556 988 q 754 774 754 904 q 661 597 754 668 q 582 553 621 568 q 706 512 649 546 q 797 423 763 478 q 832 288 832 368 q 794 150 832 208 q 315 -14 689 -14 q 101 -1 186 -14 q 74 24 74 4 q 82 40 74 32 q 113 47 90 47 q 147 50 136 47 z "},"C":{"ha":976,"x_min":71,"x_max":936,"o":"m 917 208 q 772 61 869 126 q 496 -25 649 -25 q 278 19 375 -25 q 126 159 182 64 q 71 392 71 254 q 108 635 71 529 q 213 822 146 742 q 371 946 281 901 q 567 990 461 990 q 872 872 774 990 q 876 852 876 867 q 858 814 876 838 q 824 790 840 790 q 800 803 808 790 q 569 901 736 901 q 289 764 401 901 q 171 401 171 624 q 331 100 171 178 q 487 63 406 63 q 639 87 568 63 q 775 156 710 111 q 883 257 840 200 q 918 278 900 278 q 936 260 936 278 q 917 208 936 242 z "},"D":{"ha":1011,"x_min":71,"x_max":935,"o":"m 244 56 q 580 118 449 60 q 774 275 711 176 q 836 483 836 374 q 706 794 836 683 q 414 904 576 904 q 244 882 325 904 l 244 56 m 71 21 q 147 47 71 47 l 147 869 q 110 894 128 874 q 92 928 92 914 q 101 946 92 942 q 339 986 168 972 q 421 989 385 989 q 784 853 633 989 q 935 500 935 717 q 803 153 935 283 q 519 11 690 42 q 254 -11 413 -8 l 235 -11 q 71 21 71 -11 z "},"E":{"ha":886,"x_min":110,"x_max":817,"o":"m 656 89 q 771 93 708 89 l 772 93 q 803 67 790 93 q 817 19 817 42 q 801 -3 817 -3 l 800 -3 q 679 1 767 1 l 657 1 l 271 -4 q 233 -9 249 -4 q 197 -14 217 -14 q 157 10 176 -14 q 138 51 138 35 l 147 117 l 147 478 q 121 508 132 486 q 110 546 110 531 q 121 561 110 561 l 124 561 q 147 558 135 558 l 147 881 l 142 951 q 161 971 142 971 q 207 963 181 971 q 235 953 233 954 l 611 978 q 678 985 643 981 q 730 989 714 989 q 760 965 746 989 q 774 919 774 940 q 756 897 774 897 l 669 897 q 613 896 632 897 l 242 871 l 242 560 l 535 578 q 602 585 567 581 q 653 589 638 589 q 683 565 669 589 q 697 518 697 540 q 679 496 697 496 l 592 496 q 536 494 556 496 l 242 478 l 242 82 l 656 89 z "},"F":{"ha":808,"x_min":110,"x_max":774,"o":"m 142 951 q 161 971 142 971 q 207 963 181 971 q 235 953 233 954 l 611 978 q 678 985 643 981 q 730 989 714 989 q 760 965 746 989 q 774 918 774 940 q 756 896 774 896 l 669 896 q 613 894 632 896 l 244 869 l 244 560 l 535 578 q 602 585 567 581 q 653 589 638 589 q 683 565 669 589 q 697 518 697 540 q 679 496 697 496 l 592 496 q 536 494 556 496 l 244 478 l 244 149 l 249 1 q 223 -12 249 -12 q 171 -2 197 -12 q 144 26 144 8 l 147 150 l 147 478 q 121 508 132 486 q 110 546 110 531 q 121 561 110 561 l 124 561 q 147 558 135 558 l 147 881 l 142 951 z "},"G":{"ha":1044,"x_min":78,"x_max":957,"o":"m 947 10 q 919 -8 947 -8 q 868 1 892 -8 q 844 22 844 10 l 844 24 q 851 175 851 97 q 643 -1 792 49 q 515 -24 578 -24 q 135 157 242 -24 q 78 389 78 253 q 217 814 78 646 q 572 990 358 990 q 879 872 785 990 q 885 851 885 867 q 867 812 885 835 q 834 789 849 789 q 814 797 819 789 q 756 856 794 828 q 585 904 686 904 q 413 866 483 904 q 289 760 342 828 q 175 410 175 615 q 333 97 175 164 q 508 64 410 64 q 683 110 606 64 q 809 238 761 156 q 857 428 857 319 q 851 432 857 432 l 693 421 q 589 410 664 419 l 586 410 q 550 435 567 410 q 533 481 533 461 q 550 501 533 501 l 569 501 q 667 504 631 501 l 839 514 q 863 517 850 515 q 886 519 875 519 q 914 507 897 519 q 957 453 957 475 q 951 436 957 443 q 944 414 944 429 l 944 135 q 945 99 944 124 q 947 49 946 74 q 947 10 947 24 z "},"H":{"ha":972,"x_min":92,"x_max":854,"o":"m 750 25 l 753 149 l 753 503 l 744 501 l 633 506 l 253 483 l 244 483 l 244 146 l 249 -1 q 223 -15 249 -15 q 171 -5 197 -15 q 144 24 144 6 l 147 147 l 147 472 q 138 471 143 471 l 136 471 q 105 497 118 471 q 92 544 92 522 q 107 567 92 567 l 108 567 l 147 565 l 147 818 l 143 965 q 169 979 143 979 q 222 969 196 979 q 247 940 247 958 l 244 817 l 244 565 l 251 565 l 600 586 q 665 592 632 589 q 715 597 699 594 l 719 597 q 753 564 740 597 l 753 818 l 749 965 q 775 979 749 979 q 827 969 801 979 q 853 940 853 958 l 850 817 l 850 147 l 854 0 q 828 -14 854 -14 q 776 -3 803 -14 q 750 25 750 7 z "},"I":{"ha":422,"x_min":156,"x_max":267,"o":"m 157 25 l 160 149 l 160 818 l 156 965 q 183 979 156 979 q 238 969 210 979 q 265 940 265 958 l 263 817 l 263 147 l 267 0 q 240 -14 267 -14 q 185 -3 213 -14 q 157 25 157 7 z "},"J":{"ha":683,"x_min":22,"x_max":536,"o":"m 536 940 l 533 817 l 533 246 q 408 0 533 53 q 285 -24 353 -24 q 167 1 218 -24 q 83 61 115 26 q 37 127 51 96 q 22 173 22 158 q 35 203 22 188 q 65 230 47 219 q 96 240 82 240 q 113 225 110 240 q 201 89 135 125 q 283 68 243 68 q 358 83 324 68 q 435 250 435 118 l 435 818 l 431 965 q 457 979 431 979 q 510 969 483 979 q 536 940 536 958 z "},"K":{"ha":875,"x_min":143,"x_max":864,"o":"m 144 24 l 147 156 l 147 818 l 143 965 q 169 979 143 979 q 222 969 196 979 q 247 940 247 958 l 244 817 l 244 572 q 533 820 401 694 q 678 962 665 946 q 713 978 692 978 q 763 962 733 978 q 792 931 792 946 q 778 913 792 924 q 738 879 765 901 q 622 776 710 857 q 356 553 533 696 q 381 525 357 553 q 447 451 406 497 q 858 38 707 165 q 864 28 864 33 q 836 1 864 14 q 776 -12 808 -12 q 735 3 744 -12 q 679 68 711 35 q 286 496 426 332 l 244 463 l 244 154 l 249 -1 q 223 -15 249 -15 q 171 -5 197 -15 q 144 24 144 6 z "},"L":{"ha":760,"x_min":138,"x_max":733,"o":"m 247 82 q 479 89 356 89 l 636 89 q 688 90 669 89 l 689 90 q 720 64 707 90 q 733 15 733 38 q 718 -7 733 -7 l 717 -7 q 574 1 663 1 l 517 1 q 197 -12 250 1 l 193 -12 q 147 26 169 -12 q 138 51 138 42 q 142 71 138 61 q 147 97 147 81 l 147 818 l 143 965 q 169 979 143 979 q 223 969 196 979 q 250 940 250 958 l 247 817 l 247 82 z "},"M":{"ha":1188,"x_min":58,"x_max":1133,"o":"m 1022 940 l 1015 882 l 1015 872 q 1106 139 1051 528 q 1132 26 1113 83 l 1133 21 q 1111 -1 1133 7 q 1068 -8 1089 -8 q 1015 15 1018 -8 q 997 221 1013 85 q 972 457 982 357 q 951 656 961 557 q 932 839 940 754 q 656 224 740 444 q 638 167 639 181 q 614 143 638 154 q 571 132 590 132 q 524 153 529 132 q 485 256 506 213 q 379 514 465 300 q 257 825 293 728 q 204 305 231 518 q 176 68 178 92 q 172 17 175 44 q 151 -3 171 4 q 107 -10 131 -10 q 58 11 58 -10 l 58 14 q 120 388 86 103 q 160 740 154 672 q 171 847 167 807 q 175 888 175 886 l 174 921 l 174 928 q 202 963 174 950 q 253 976 231 976 q 285 969 276 976 q 317 903 293 963 q 578 258 488 457 q 876 935 729 626 q 894 972 886 954 q 922 989 903 989 q 964 981 942 989 q 1022 940 1022 961 z "},"N":{"ha":1025,"x_min":138,"x_max":888,"o":"m 147 890 l 138 942 q 169 972 138 961 q 215 983 200 983 q 238 982 229 983 q 253 969 246 981 q 451 644 288 906 q 786 144 614 383 l 786 818 l 781 965 q 807 979 781 979 q 859 969 833 979 q 885 940 885 958 l 882 817 l 882 121 l 888 44 q 875 17 888 31 q 813 -18 843 -18 q 770 1 783 -18 q 722 71 757 21 q 243 804 456 446 l 243 146 l 247 -1 q 222 -15 247 -15 q 171 -5 197 -15 q 144 24 144 6 l 147 147 l 147 890 z "},"O":{"ha":1035,"x_min":74,"x_max":965,"o":"m 492 64 q 785 201 692 64 q 868 515 868 325 q 785 789 868 671 q 554 907 703 907 q 427 879 494 907 q 301 797 360 851 q 206 660 243 742 q 169 469 169 578 q 204 267 169 360 q 311 119 239 175 q 492 64 383 64 m 310 897 q 551 990 415 990 q 778 927 688 990 q 917 754 868 864 q 965 521 965 644 q 856 132 965 278 q 508 -25 735 -25 q 263 40 360 -25 q 120 215 167 104 q 74 444 74 326 q 97 642 74 561 q 153 785 119 724 q 219 880 186 846 q 274 914 253 914 q 310 897 296 914 z "},"P":{"ha":858,"x_min":83,"x_max":799,"o":"m 442 900 q 244 872 343 900 l 244 503 q 263 508 253 508 q 597 592 494 524 q 699 751 699 661 q 442 900 699 900 m 444 988 q 799 753 799 988 q 722 565 799 638 q 299 444 593 444 l 278 444 q 244 451 258 444 l 244 160 l 249 -1 q 223 -15 249 -15 q 171 -5 197 -15 q 144 24 144 6 l 147 161 l 147 858 l 146 858 q 104 883 125 858 q 83 924 83 908 q 96 942 83 940 q 367 987 326 986 q 444 988 407 988 z "},"Q":{"ha":1035,"x_min":74,"x_max":974,"o":"m 710 121 q 865 515 865 228 q 789 783 865 671 q 554 908 706 908 q 423 878 490 908 q 297 792 356 849 q 171 471 171 668 q 204 267 171 360 q 310 118 238 174 q 497 63 382 63 q 626 81 567 63 l 508 189 q 474 215 486 210 q 458 232 463 219 q 507 272 458 251 q 539 281 526 281 l 543 281 q 575 267 567 276 q 710 121 601 229 m 310 897 q 551 990 415 990 q 776 927 686 990 q 916 754 867 864 q 965 505 965 644 q 919 246 965 365 q 775 56 872 126 q 844 -4 807 24 q 903 -40 881 -32 q 974 -86 974 -69 q 925 -99 974 -99 q 845 -90 876 -99 q 783 -56 814 -81 q 701 13 751 -32 q 508 -25 618 -25 q 263 40 360 -25 q 120 215 167 104 q 74 444 74 326 q 97 642 74 561 q 153 785 119 724 q 219 880 186 846 q 274 914 253 914 q 310 897 296 914 z "},"R":{"ha":882,"x_min":82,"x_max":889,"o":"m 242 514 q 279 539 261 539 l 307 539 q 564 592 476 539 q 642 663 613 622 q 672 746 672 704 q 614 858 672 815 q 437 901 556 901 q 242 875 318 901 l 242 514 m 144 24 l 147 161 l 147 856 l 146 856 q 92 900 118 856 q 82 928 82 917 q 93 942 82 940 q 157 951 121 947 q 259 970 193 956 q 448 985 325 985 q 639 950 571 985 q 738 862 707 915 q 769 742 769 808 q 730 621 769 676 q 619 525 690 565 q 467 478 547 485 q 378 471 388 471 q 481 361 421 428 q 829 35 746 64 q 889 -6 889 10 q 850 -18 889 -18 q 675 40 747 -18 q 482 233 603 97 l 388 340 q 284 442 313 424 q 242 465 256 460 l 242 160 l 246 -1 q 221 -15 246 -15 q 170 -5 196 -15 q 144 24 144 6 z "},"S":{"ha":857,"x_min":58,"x_max":778,"o":"m 325 514 q 164 588 224 538 q 104 731 104 638 q 147 857 104 797 q 265 953 190 917 q 427 990 340 990 q 581 967 514 990 q 688 913 647 944 q 729 850 729 881 q 717 799 729 819 q 694 779 704 779 q 674 789 683 779 l 657 806 q 514 892 610 865 q 423 903 472 903 q 319 877 374 903 q 234 812 265 851 q 203 726 203 772 q 240 649 203 681 q 363 597 276 617 l 514 558 q 778 267 778 490 q 735 119 778 186 q 613 14 693 53 q 417 -25 533 -25 q 65 126 200 -25 q 58 153 58 133 q 76 197 58 172 q 109 221 94 221 q 129 211 124 221 q 419 63 221 63 q 547 88 488 63 q 642 158 606 114 q 679 256 679 201 q 631 395 679 344 q 488 471 582 446 l 325 514 z "},"T":{"ha":801,"x_min":13,"x_max":782,"o":"m 346 25 l 349 149 l 350 878 l 175 868 q 108 862 140 867 q 60 856 75 857 l 58 856 q 26 881 40 856 q 13 928 13 906 q 31 951 13 951 l 129 949 l 621 975 q 686 981 653 978 q 736 986 719 983 l 740 986 q 769 961 757 986 q 782 913 782 936 q 765 890 782 890 l 654 894 l 447 883 l 449 147 l 453 0 q 426 -15 453 -15 q 372 -4 399 -15 q 346 25 346 7 z "},"U":{"ha":986,"x_min":143,"x_max":843,"o":"m 250 944 l 247 811 l 247 292 q 306 114 247 165 q 475 63 365 63 q 613 98 553 63 q 706 195 672 133 q 740 336 740 257 l 740 826 l 736 968 q 765 985 736 985 q 819 975 794 985 q 843 947 843 965 l 840 825 l 840 319 q 794 139 840 217 q 667 18 749 61 q 475 -25 585 -25 q 147 275 147 -25 l 147 814 l 143 965 q 172 982 143 982 q 226 972 201 982 q 250 944 250 963 z "},"V":{"ha":861,"x_min":15,"x_max":846,"o":"m 15 956 q 67 978 15 978 q 110 971 89 978 q 133 950 131 964 q 205 758 142 918 q 422 138 268 599 q 664 768 600 611 q 740 972 728 925 q 767 988 744 988 q 818 971 790 988 q 846 935 846 954 q 829 900 846 928 q 796 833 813 872 q 486 49 518 176 q 478 8 481 24 q 442 -24 474 -24 q 394 -2 419 -24 q 349 81 369 19 q 292 244 328 143 q 17 950 93 796 q 15 956 15 953 z "},"W":{"ha":1222,"x_min":13,"x_max":1214,"o":"m 13 957 q 67 979 13 979 q 128 951 122 979 l 147 878 q 328 139 236 576 q 429 519 376 340 q 510 797 482 699 q 542 931 539 894 q 593 958 542 958 q 642 950 618 958 q 668 926 667 942 q 685 860 671 908 q 760 583 700 813 q 868 138 821 354 q 1033 717 982 551 q 1106 974 1083 883 q 1128 988 1110 988 q 1167 981 1147 988 q 1214 935 1214 961 q 1206 911 1214 931 q 949 110 1138 751 q 938 62 943 88 q 925 10 932 36 q 888 -25 917 -25 q 833 -3 860 -25 q 796 64 807 19 q 610 807 689 525 q 502 438 563 656 q 423 154 442 221 q 399 63 404 88 q 383 8 393 39 q 347 -24 372 -24 q 296 -1 321 -24 q 260 64 271 21 q 14 950 86 781 q 13 957 13 953 z "},"X":{"ha":833,"x_min":13,"x_max":825,"o":"m 417 433 q 189 98 225 153 q 143 28 153 43 q 124 0 133 14 q 88 -14 115 -14 q 36 -3 60 -14 q 13 21 13 7 q 19 35 13 25 q 161 220 97 124 q 363 513 225 317 q 74 921 157 828 q 63 940 63 933 q 90 971 63 958 q 142 983 118 983 q 172 972 165 983 q 293 781 207 907 q 426 582 379 654 q 563 775 513 703 q 640 885 614 847 q 678 939 667 922 l 694 964 q 719 972 701 972 q 763 956 738 972 q 788 928 788 940 q 768 897 788 917 q 636 728 749 878 q 476 501 547 604 q 693 187 633 265 q 819 39 753 108 q 825 26 825 33 q 798 -3 825 11 q 748 -18 771 -18 q 714 -6 725 -18 q 678 49 700 14 q 597 166 656 83 q 417 433 539 249 z "},"Y":{"ha":833,"x_min":21,"x_max":808,"o":"m 356 26 l 358 150 l 358 406 q 72 869 225 647 q 32 925 43 911 q 21 943 21 939 q 47 966 21 958 q 99 974 72 974 q 131 965 125 974 q 154 923 142 947 q 201 843 167 899 q 294 692 235 788 q 408 500 353 597 q 606 819 532 701 q 699 971 681 938 q 732 985 707 985 q 783 973 757 985 q 808 949 808 961 q 806 942 808 947 q 500 479 701 815 q 458 407 471 431 l 458 149 l 463 1 q 436 -12 463 -12 q 383 -2 410 -12 q 356 26 356 8 z "},"Z":{"ha":833,"x_min":39,"x_max":794,"o":"m 519 94 l 697 93 q 749 94 728 93 l 750 94 q 781 69 768 94 q 794 21 794 43 q 779 -1 794 -1 l 778 -1 q 635 7 725 4 l 406 7 q 119 -6 156 7 q 94 -10 108 -10 q 59 13 79 -10 q 39 51 39 36 q 42 75 39 67 q 63 99 44 83 q 86 122 81 114 q 395 577 264 399 q 626 885 526 756 l 276 860 q 215 855 243 858 q 172 850 186 851 l 171 850 q 136 873 157 850 q 115 922 115 896 q 126 949 115 949 l 129 949 q 216 943 190 943 q 275 946 242 943 l 611 968 q 674 975 643 971 q 724 979 704 979 q 762 953 743 979 q 781 909 781 926 q 771 888 781 892 q 718 847 747 879 q 178 86 449 518 q 367 94 278 94 l 519 94 z "},"[":{"ha":486,"x_min":213,"x_max":458,"o":"m 314 -204 q 264 -210 292 -204 q 231 -192 246 -210 q 215 -158 215 -174 l 219 -71 l 219 942 l 213 1024 q 224 1052 213 1043 q 272 1061 236 1061 l 417 1064 l 418 1064 q 447 1047 436 1064 q 458 1008 458 1029 q 438 988 458 988 l 304 988 l 304 -132 q 420 -128 408 -128 q 443 -146 432 -128 q 454 -184 454 -164 q 435 -204 454 -204 l 314 -204 z "},"\\":{"ha":486,"x_min":13,"x_max":467,"o":"m 53 889 q 24 956 36 931 q 13 988 13 981 q 23 1009 13 996 q 49 1033 33 1022 q 76 1043 64 1043 q 97 1010 89 1043 q 126 917 106 976 l 424 97 q 452 31 438 58 q 467 -11 467 4 q 449 -42 467 -26 q 413 -58 431 -58 q 388 -36 394 -58 q 353 65 376 1 l 53 889 z "},"]":{"ha":486,"x_min":28,"x_max":274,"o":"m 172 1060 q 222 1065 194 1060 q 256 1047 242 1065 q 271 1014 271 1029 l 267 926 l 267 -86 l 274 -168 q 262 -196 274 -186 q 214 -206 250 -206 l 104 -207 q 69 -208 79 -207 l 68 -208 q 39 -191 50 -208 q 28 -153 28 -174 q 49 -132 28 -132 l 182 -132 l 182 988 q 66 983 78 983 q 43 1001 54 983 q 32 1040 32 1019 q 51 1060 32 1060 l 172 1060 z "},"^":{"ha":833,"x_min":107,"x_max":736,"o":"m 736 404 q 672 381 736 381 q 638 397 643 381 q 608 481 621 456 l 421 875 l 233 481 q 199 389 214 438 q 174 378 194 378 q 130 388 153 378 q 107 413 107 399 q 114 431 107 417 q 153 503 144 481 l 361 935 q 372 971 369 953 q 415 994 375 989 q 433 996 419 996 q 455 982 447 996 q 471 953 463 968 l 690 499 q 722 433 708 460 q 736 404 736 407 z "},"_":{"ha":694,"x_min":-19,"x_max":714,"o":"m 688 -140 q 714 -183 714 -140 q 688 -225 714 -225 l 7 -225 q -19 -183 -19 -225 q 7 -140 -19 -140 l 688 -140 z "},"`":{"ha":694,"x_min":197,"x_max":496,"o":"m 496 821 q 472 797 496 797 q 438 813 465 797 q 343 853 410 829 q 207 901 276 876 q 197 917 197 906 q 213 947 197 929 q 247 977 228 964 q 276 990 267 990 q 288 989 285 990 q 496 821 496 851 z "},"a":{"ha":799,"x_min":78,"x_max":713,"o":"m 172 250 q 306 58 172 58 q 426 103 367 58 q 571 458 571 208 q 572 528 571 493 q 551 515 560 515 q 539 521 543 515 q 413 594 496 594 q 251 494 331 594 q 172 250 172 394 m 653 -18 q 576 164 596 -18 q 452 21 525 67 q 301 -25 379 -25 q 139 44 200 -25 q 78 243 78 113 q 186 547 78 417 q 296 641 235 607 q 421 675 357 675 q 574 583 529 675 l 574 660 q 600 674 574 674 q 653 664 626 674 q 679 638 679 654 l 679 635 q 661 271 661 511 q 710 49 661 125 q 713 34 713 43 q 694 3 713 25 q 653 -18 675 -18 z "},"b":{"ha":796,"x_min":124,"x_max":718,"o":"m 217 140 q 226 143 222 143 q 263 113 242 143 q 382 57 300 57 q 544 146 464 57 q 624 377 624 235 q 550 569 624 519 q 469 592 517 592 q 370 561 422 592 q 274 466 318 531 q 221 290 229 401 q 217 140 217 232 m 225 946 l 219 822 l 219 513 q 340 641 275 607 q 481 675 404 675 q 651 601 585 675 q 718 399 718 528 q 672 176 718 269 q 549 30 626 83 q 378 -24 472 -24 q 281 0 324 -24 q 215 61 239 24 l 211 36 q 188 8 208 22 q 149 -7 167 -7 q 125 21 125 -7 l 128 147 l 128 824 l 124 971 q 149 985 124 985 q 199 974 174 985 q 225 946 225 964 z "},"c":{"ha":736,"x_min":78,"x_max":675,"o":"m 596 78 q 347 -25 496 -25 q 213 9 275 -25 q 115 109 151 43 q 78 264 78 175 q 109 426 78 353 q 192 556 140 500 q 307 643 243 611 q 431 675 371 675 q 531 659 492 675 q 592 621 569 643 q 626 580 615 599 q 636 557 636 561 q 615 514 636 535 q 582 493 594 493 q 565 500 569 493 q 546 538 556 519 q 521 565 536 556 q 438 593 481 593 q 261 500 349 593 q 172 276 172 400 q 200 156 172 204 q 357 56 254 56 q 629 194 490 56 q 663 215 650 215 q 675 203 675 215 q 656 155 675 190 q 596 78 636 119 z "},"d":{"ha":799,"x_min":78,"x_max":721,"o":"m 579 529 q 566 524 574 524 q 553 531 558 524 q 417 594 507 594 q 328 566 374 594 q 247 489 282 538 q 172 272 172 383 q 209 110 172 161 q 297 58 246 58 q 488 157 397 58 q 579 383 579 256 l 579 529 m 674 946 l 671 822 l 671 257 q 683 140 671 197 q 718 54 696 82 q 721 38 721 49 q 701 6 721 28 q 663 -17 682 -17 q 606 55 629 -17 q 583 164 583 126 q 456 19 524 64 q 296 -25 388 -25 q 141 49 204 -25 q 78 258 78 122 q 183 549 78 422 q 424 675 289 675 q 517 655 476 675 q 579 603 557 635 l 579 824 l 574 971 q 599 985 574 985 q 649 974 624 985 q 674 946 674 964 z "},"e":{"ha":754,"x_min":57,"x_max":678,"o":"m 215 350 q 503 386 371 350 q 567 419 553 401 q 582 474 582 438 q 442 594 582 594 q 276 515 346 594 q 188 350 207 435 l 215 350 m 83 353 l 96 354 q 215 569 117 464 q 443 675 314 675 q 581 644 529 675 q 674 472 674 590 q 666 397 674 425 q 631 352 658 369 q 540 315 603 335 q 194 272 401 272 l 176 272 l 176 258 q 223 113 176 168 q 349 57 269 57 q 632 174 524 57 q 664 194 650 194 q 678 180 678 194 q 658 133 678 165 q 596 64 638 101 q 339 -25 494 -25 q 210 10 268 -25 q 119 113 153 46 q 86 271 86 179 l 86 290 q 57 335 57 313 q 83 353 57 353 z "},"f":{"ha":514,"x_min":24,"x_max":493,"o":"m 174 24 l 176 161 l 176 588 l 158 588 l 69 582 l 68 582 q 38 603 51 582 q 24 642 24 624 q 40 661 24 661 l 143 661 l 176 663 l 176 818 q 261 964 176 922 q 346 983 300 983 q 425 968 392 983 q 476 933 458 953 q 493 894 493 913 q 479 855 493 876 q 452 833 465 833 q 429 849 439 833 q 339 899 403 899 q 292 878 313 899 q 271 813 271 857 l 271 665 l 300 667 q 341 669 317 668 q 388 673 365 671 q 419 675 410 675 l 421 675 q 452 654 439 675 q 465 614 465 633 q 449 594 465 594 l 369 594 q 315 593 333 594 l 271 592 l 271 146 l 275 -1 q 250 -15 275 -15 q 199 -5 225 -15 q 174 24 174 6 z "},"g":{"ha":806,"x_min":79,"x_max":685,"o":"m 590 542 q 566 526 579 526 q 546 535 553 526 q 408 593 503 593 q 320 567 364 593 q 244 497 276 542 q 174 294 174 404 q 210 139 174 185 q 308 93 247 93 q 522 192 435 93 q 589 365 585 261 q 590 450 590 403 l 590 542 m 685 635 q 679 497 679 529 l 679 69 q 632 -101 679 -32 q 508 -207 585 -171 q 336 -243 431 -243 q 184 -210 242 -243 q 89 -118 126 -178 q 85 -98 85 -111 q 106 -62 85 -85 q 144 -39 128 -39 q 165 -53 160 -39 q 228 -134 190 -110 q 338 -158 267 -158 q 466 -131 410 -158 q 556 -51 522 -103 q 589 71 589 0 l 589 164 q 465 45 538 81 q 319 10 393 10 q 144 82 210 10 q 79 296 79 154 q 178 556 79 438 q 410 675 281 675 q 590 586 539 675 l 586 660 q 610 674 586 674 q 660 663 635 674 q 685 636 685 653 l 685 635 z "},"h":{"ha":817,"x_min":124,"x_max":693,"o":"m 689 146 l 693 -1 q 669 -15 693 -15 q 619 -5 644 -15 q 594 22 594 6 l 594 24 q 596 61 596 35 l 597 160 l 597 407 q 575 538 597 489 q 483 588 553 588 q 299 508 374 588 q 222 225 225 428 q 219 146 221 179 l 219 124 q 224 -1 219 82 q 199 -15 224 -15 q 150 -5 175 -15 q 125 24 125 6 l 128 160 l 128 819 l 124 968 q 148 982 124 982 q 197 972 172 982 q 222 943 222 961 l 219 806 l 219 522 q 335 635 264 596 q 478 674 407 674 q 653 586 606 674 q 689 413 689 522 l 689 146 z "},"i":{"ha":365,"x_min":113,"x_max":250,"o":"m 132 24 l 135 146 l 135 511 l 131 660 q 156 672 131 672 q 207 662 181 672 q 233 635 233 651 l 231 511 l 231 146 l 235 -1 q 210 -14 235 -14 q 159 -3 186 -14 q 132 24 132 7 m 177 969 q 192 969 177 969 q 228 942 207 969 q 250 885 250 914 q 232 838 250 857 q 185 819 214 819 q 134 847 156 819 q 113 902 113 874 q 130 950 113 931 q 177 969 147 969 z "},"j":{"ha":418,"x_min":1,"x_max":310,"o":"m 290 635 l 288 506 l 288 -42 q 233 -196 288 -146 q 142 -225 203 -225 q 41 -203 81 -225 q 1 -159 1 -182 q 15 -114 1 -136 q 44 -92 29 -92 q 75 -110 60 -92 q 144 -139 97 -139 q 181 -112 168 -139 q 193 -43 193 -86 l 193 506 l 189 660 q 214 674 189 674 q 265 663 239 674 q 290 635 290 653 m 237 969 q 252 969 237 969 q 288 942 267 969 q 310 885 310 914 q 292 838 310 857 q 244 819 274 819 q 194 847 215 819 q 172 902 172 874 q 190 950 172 931 q 237 969 207 969 z "},"k":{"ha":708,"x_min":124,"x_max":708,"o":"m 125 25 l 128 147 l 128 819 l 124 968 q 149 982 124 982 q 199 972 174 982 q 225 943 225 961 l 219 819 l 219 436 l 481 617 q 536 665 503 632 q 558 672 542 672 q 594 665 575 672 q 642 628 642 649 q 596 593 642 619 q 532 554 550 567 l 321 407 q 415 311 361 368 q 524 197 468 254 q 622 96 579 140 q 701 42 664 58 q 708 31 708 39 q 694 11 708 22 q 631 -19 661 -19 q 610 -11 621 -19 q 434 165 547 40 q 253 358 321 290 l 219 338 l 219 147 l 226 0 q 201 -14 226 -14 q 151 -3 176 -14 q 125 25 125 7 z "},"l":{"ha":365,"x_min":131,"x_max":365,"o":"m 238 61 q 254 56 243 56 l 257 56 q 322 94 286 57 q 352 110 339 110 q 365 88 365 110 q 328 18 365 65 q 244 -29 286 -29 l 231 -29 q 160 7 183 -24 q 135 104 136 40 l 135 819 l 131 968 q 156 982 131 982 q 208 972 182 982 q 233 943 233 961 l 231 819 l 231 108 q 238 61 231 71 z "},"m":{"ha":1133,"x_min":122,"x_max":1010,"o":"m 908 24 l 914 146 l 914 407 q 886 541 914 490 q 797 592 858 592 q 712 561 756 592 q 638 481 668 531 q 608 372 608 431 l 608 146 l 615 -1 q 590 -15 615 -15 q 540 -5 565 -15 q 515 24 515 6 l 521 146 l 521 407 q 418 592 521 592 q 292 528 346 592 q 222 292 226 447 q 218 146 219 217 l 225 -1 q 200 -15 225 -15 q 149 -5 175 -15 q 124 24 124 6 l 126 146 l 126 494 l 122 656 q 147 669 122 669 q 198 659 172 669 q 224 633 224 649 q 223 598 224 617 q 222 551 222 579 q 303 642 250 608 q 426 675 357 675 q 536 636 496 675 q 589 546 576 597 q 683 642 625 610 q 808 675 742 675 q 919 637 874 675 q 985 538 964 599 q 1006 413 1006 478 l 1006 146 l 1010 -1 q 985 -15 1010 -15 q 934 -5 960 -15 q 908 24 908 6 z "},"n":{"ha":817,"x_min":124,"x_max":693,"o":"m 689 146 l 693 -1 q 669 -15 693 -15 q 619 -5 644 -15 q 594 22 594 6 l 594 24 q 596 61 596 35 l 597 160 l 597 407 q 575 538 597 489 q 483 588 553 588 q 299 508 374 588 q 222 225 225 428 q 219 146 221 179 l 219 124 q 224 -1 219 82 q 199 -15 224 -15 q 150 -5 175 -15 q 125 24 125 6 l 128 160 l 128 506 l 124 654 q 148 668 124 668 q 197 658 172 668 q 222 629 222 647 l 222 610 q 219 522 219 571 q 335 635 264 596 q 478 674 407 674 q 653 586 606 674 q 689 413 689 522 l 689 146 z "},"o":{"ha":781,"x_min":78,"x_max":703,"o":"m 371 60 q 492 97 439 60 q 578 197 546 133 q 610 358 610 261 q 565 524 610 456 q 418 592 519 592 q 244 497 317 592 q 171 288 171 401 q 223 117 171 175 q 371 60 275 60 m 269 618 q 429 675 346 675 q 574 635 513 675 q 703 340 703 550 q 617 92 703 199 q 378 -25 525 -25 q 155 59 232 -25 q 78 288 78 143 q 147 519 78 399 q 203 600 175 569 q 245 631 231 631 q 269 618 260 631 z "},"p":{"ha":794,"x_min":124,"x_max":719,"o":"m 218 140 q 228 143 224 143 q 264 113 243 143 q 383 57 301 57 q 545 146 465 57 q 625 377 625 235 q 550 569 625 519 q 471 592 518 592 q 372 561 424 592 q 275 466 319 531 q 222 290 231 401 q 218 140 218 232 m 125 -200 l 128 -76 l 128 511 q 124 656 128 585 q 149 669 124 669 q 200 659 174 669 q 226 631 226 649 q 225 600 226 622 q 223 553 224 578 q 221 513 222 529 q 341 641 276 607 q 482 675 406 675 q 653 601 586 675 q 719 399 719 528 q 676 176 719 269 q 557 30 632 83 q 388 -24 482 -24 q 290 0 339 -24 q 219 53 242 24 l 219 -78 l 226 -225 q 201 -239 226 -239 q 151 -228 176 -239 q 125 -200 125 -218 z "},"q":{"ha":800,"x_min":76,"x_max":676,"o":"m 578 529 q 565 524 572 524 q 551 531 557 524 q 417 594 506 594 q 326 566 372 594 q 246 489 281 538 q 171 272 171 383 q 208 110 171 161 q 296 58 244 58 q 487 157 396 58 q 578 383 578 256 l 578 529 m 582 156 q 294 -25 482 -25 q 140 49 203 -25 q 76 258 76 122 q 182 549 76 422 q 422 675 288 675 q 517 655 475 675 q 581 603 558 635 l 581 610 l 575 660 q 600 674 575 674 q 650 663 625 674 q 675 635 675 653 l 672 511 l 672 -83 l 676 -231 q 651 -244 676 -244 q 601 -234 626 -244 q 575 -206 575 -224 l 581 -82 l 582 156 z "},"r":{"ha":597,"x_min":126,"x_max":586,"o":"m 128 25 l 131 147 l 131 510 l 126 658 q 151 672 126 672 q 202 662 176 672 q 228 635 228 651 q 226 603 228 619 q 224 563 224 586 q 303 642 251 608 q 411 675 354 675 q 504 661 468 675 q 563 628 540 647 q 586 589 586 608 q 570 544 586 569 q 540 519 554 519 q 517 533 525 519 q 473 572 503 560 q 422 585 443 585 q 314 549 364 585 q 228 369 242 496 q 222 147 222 319 l 229 0 q 204 -14 229 -14 q 153 -3 179 -14 q 128 25 128 7 z "},"s":{"ha":708,"x_min":82,"x_max":628,"o":"m 271 336 q 115 494 115 372 q 150 589 115 549 q 367 675 224 675 q 592 588 510 675 q 594 571 594 585 q 580 535 594 557 q 553 513 565 513 q 528 531 542 513 q 369 599 483 599 q 247 567 289 599 q 206 500 206 536 q 224 444 206 464 q 300 411 243 425 l 433 379 q 576 311 524 358 q 628 178 628 264 q 595 76 628 122 q 503 3 563 31 q 362 -25 443 -25 q 227 -6 281 -25 q 142 40 174 14 q 96 89 110 67 q 82 125 82 111 q 102 162 82 139 q 135 185 122 185 q 151 175 147 185 q 183 119 163 147 q 361 56 229 56 q 491 92 446 56 q 536 176 536 128 q 511 254 536 224 q 410 303 486 285 l 271 336 z "},"t":{"ha":500,"x_min":21,"x_max":482,"o":"m 254 857 l 251 733 l 251 667 l 290 668 q 396 676 340 671 l 397 676 q 428 656 415 676 q 442 615 442 635 q 426 596 442 596 l 372 596 q 306 594 333 596 l 251 593 l 251 150 q 261 79 251 94 q 297 64 271 64 q 431 121 356 64 q 468 139 454 139 q 482 125 482 139 q 419 36 482 96 q 283 -25 350 -25 q 187 19 217 -25 q 157 153 157 64 l 157 589 l 150 589 q 65 583 149 589 l 64 583 q 33 604 46 583 q 21 644 21 625 q 36 663 21 663 l 157 663 l 157 733 l 154 882 q 179 896 154 896 q 229 885 204 896 q 254 857 254 875 z "},"u":{"ha":819,"x_min":124,"x_max":732,"o":"m 225 633 l 222 511 l 222 243 q 251 110 222 163 q 337 58 281 58 q 449 104 393 58 q 549 238 506 150 q 592 475 592 326 l 592 660 q 618 674 592 674 q 669 664 644 674 q 694 638 694 654 l 694 635 q 678 335 678 535 q 731 49 678 135 q 732 35 732 46 q 713 3 732 25 q 674 -18 694 -18 q 622 43 639 -18 q 600 158 604 104 q 492 28 563 82 q 339 -25 422 -25 q 211 13 256 -25 q 128 238 128 81 l 128 511 l 124 658 q 149 672 124 672 q 199 662 174 672 q 225 633 225 651 z "},"v":{"ha":681,"x_min":40,"x_max":646,"o":"m 40 643 q 111 668 40 668 q 149 650 144 668 q 174 563 163 590 l 331 125 l 511 563 q 543 661 528 603 q 571 675 547 675 q 620 663 594 675 q 646 635 646 651 q 627 596 646 632 q 599 536 608 560 l 410 90 q 379 7 397 61 q 342 -25 369 -25 q 293 1 315 -25 q 278 25 282 13 q 263 64 274 38 l 85 540 q 58 601 76 564 q 40 643 40 639 z "},"w":{"ha":1014,"x_min":35,"x_max":979,"o":"m 35 642 q 83 664 35 664 q 124 657 104 664 q 146 635 144 650 q 151 601 149 621 q 158 567 154 582 l 278 117 l 428 547 q 437 590 435 568 q 442 626 439 611 q 475 650 444 650 q 534 640 506 650 q 565 617 563 631 q 568 588 567 603 q 574 560 569 574 l 706 117 l 854 564 q 867 608 861 583 q 878 658 872 633 q 907 674 882 674 q 956 663 932 674 q 979 638 979 653 q 972 617 979 633 q 940 538 964 600 l 783 90 q 772 52 778 74 q 758 10 765 31 q 715 -25 749 -25 q 678 -17 697 -25 q 650 2 660 -8 q 638 29 640 13 q 629 64 635 46 l 503 510 l 360 90 q 347 48 351 67 q 333 2 342 29 q 291 -25 325 -25 q 232 3 257 -25 q 219 25 222 13 q 208 64 217 38 l 67 554 l 53 592 q 40 626 44 615 q 35 642 35 638 z "},"x":{"ha":694,"x_min":47,"x_max":646,"o":"m 349 269 l 208 78 q 181 37 196 61 q 158 1 167 13 q 121 -17 147 -17 q 71 -8 94 -17 q 47 14 47 1 q 64 35 47 18 q 140 125 81 51 l 297 339 l 149 544 q 92 612 113 593 q 72 635 72 631 q 99 656 72 646 q 148 667 125 667 q 178 656 171 667 q 219 589 199 618 l 350 410 l 485 594 q 509 631 497 611 q 527 662 521 651 q 556 672 533 672 q 603 662 578 672 q 629 640 629 651 q 613 620 629 636 q 553 550 596 604 l 400 340 l 556 128 q 609 65 572 106 q 646 18 646 24 q 622 -3 646 6 q 572 -12 599 -12 q 536 1 544 -12 q 485 81 500 61 l 349 269 z "},"y":{"ha":694,"x_min":15,"x_max":665,"o":"m 40 644 q 92 667 40 667 q 153 644 144 667 q 192 546 164 613 l 353 172 l 524 532 q 574 661 551 586 q 598 674 578 674 q 642 658 618 674 q 665 628 665 643 q 658 598 665 613 q 635 555 650 583 q 607 501 619 526 l 314 -114 q 251 -200 286 -172 q 161 -228 215 -228 l 147 -228 q 88 -222 121 -228 q 22 -190 54 -217 q 15 -168 15 -183 q 29 -128 15 -153 q 57 -104 43 -104 q 88 -122 71 -104 q 142 -140 106 -140 q 201 -124 179 -140 q 242 -64 222 -107 l 303 64 l 100 524 q 55 616 69 590 q 40 644 40 642 z "},"z":{"ha":681,"x_min":51,"x_max":624,"o":"m 404 83 q 582 85 560 83 l 583 85 q 611 60 599 85 q 624 13 624 35 q 608 -10 624 -10 q 496 -1 551 -4 l 308 -1 q 146 -8 183 -1 q 93 -14 108 -14 q 65 8 78 -14 q 51 47 51 29 q 56 76 51 64 q 77 99 61 88 q 128 156 93 110 q 469 576 299 386 l 265 561 q 169 551 228 560 l 167 551 q 119 597 140 551 q 111 631 111 617 q 121 646 111 646 l 124 646 q 189 643 160 643 l 233 643 q 264 644 250 643 l 481 660 l 531 668 l 536 668 q 592 624 567 665 q 603 595 603 607 q 585 574 603 583 q 558 554 567 564 q 175 76 350 315 q 297 83 244 83 l 404 83 z "},"{":{"ha":486,"x_min":106,"x_max":461,"o":"m 442 1082 q 460 1058 460 1082 q 446 1040 460 1049 q 346 871 346 986 l 354 651 q 253 433 354 489 q 329 371 304 418 q 354 268 354 324 q 344 87 354 158 q 333 -6 333 15 q 360 -107 333 -65 q 444 -182 386 -149 q 461 -206 461 -192 q 442 -221 461 -221 q 422 -218 433 -221 q 244 -6 244 -168 q 255 99 244 38 q 265 227 265 161 q 256 324 265 293 q 147 400 233 394 q 117 419 129 401 q 106 458 106 436 q 128 481 106 481 l 143 481 q 264 656 264 481 l 256 874 q 292 983 256 932 q 422 1078 328 1033 q 442 1082 433 1082 z "},"|":{"ha":486,"x_min":194,"x_max":290,"o":"m 194 -24 l 194 997 l 290 997 l 290 -24 l 194 -24 z "},"}":{"ha":486,"x_min":25,"x_max":381,"o":"m 132 214 q 233 432 132 375 q 157 494 182 447 q 132 597 132 542 q 142 778 132 707 q 153 871 153 850 q 126 972 153 931 q 42 1047 100 1014 q 25 1072 25 1057 q 44 1086 25 1086 l 53 1086 q 64 1083 58 1086 q 242 871 242 1033 q 231 767 242 828 q 221 640 221 706 q 231 542 221 574 q 339 465 253 471 q 369 447 358 464 q 381 407 381 429 q 358 385 381 385 l 343 385 q 222 210 222 385 l 231 -8 q 142 -169 231 -106 q 77 -206 106 -194 q 46 -217 49 -217 q 25 -200 25 -217 q 40 -175 25 -183 q 140 -6 140 -119 l 132 214 z "},"~":{"ha":833,"x_min":75,"x_max":758,"o":"m 758 418 q 748 388 758 414 q 714 331 738 363 q 557 249 656 249 q 485 265 519 249 q 418 301 451 281 q 282 354 333 354 q 187 331 231 354 q 121 267 143 307 q 100 249 111 249 q 75 272 75 249 q 85 303 75 276 q 119 361 96 329 q 269 442 179 442 q 444 389 360 442 q 506 352 478 368 q 572 336 535 336 q 652 365 610 336 q 713 425 694 393 q 738 442 724 442 q 758 418 758 442 z "},"·":{"ha":486,"x_min":125,"x_max":369,"o":"m 369 486 q 369 464 369 486 q 340 411 369 442 q 267 381 310 381 q 194 403 225 381 q 144 461 164 426 q 125 538 125 496 q 154 613 125 581 q 226 646 183 646 q 299 623 268 646 q 349 565 329 600 q 369 486 369 531 z "},"—":{"ha":1389,"x_min":3,"x_max":1386,"o":"m 35 485 q 11 498 19 485 q 3 527 3 511 q 11 556 3 543 q 35 569 19 569 l 1354 569 q 1378 556 1369 569 q 1386 527 1386 543 q 1378 498 1386 511 q 1354 485 1369 485 l 35 485 z "},"…":{"ha":1389,"x_min":161,"x_max":1229,"o":"m 232 603 q 247 603 232 603 q 284 574 261 603 q 307 517 307 546 q 290 471 307 489 q 239 453 272 453 q 183 481 206 453 q 161 540 161 510 q 182 586 161 569 q 232 603 203 603 m 693 603 q 708 603 693 603 q 745 574 722 603 q 768 517 768 546 q 751 471 768 489 q 700 453 733 453 q 644 481 667 453 q 622 540 622 510 q 643 586 622 569 q 693 603 664 603 m 1154 603 q 1169 603 1154 603 q 1206 574 1183 603 q 1229 517 1229 546 q 1212 471 1229 489 q 1161 453 1194 453 q 1106 481 1128 453 q 1083 540 1083 510 q 1104 586 1083 569 q 1154 603 1125 603 z "},"、":{"ha":1389,"x_min":99,"x_max":401,"o":"m 306 -74 q 108 147 226 39 q 99 170 99 157 q 110 194 99 183 q 135 204 122 204 q 189 178 149 204 q 388 18 290 115 q 401 -19 401 6 q 382 -69 401 -43 q 341 -94 363 -94 q 306 -74 319 -94 z "},"。":{"ha":1389,"x_min":107,"x_max":488,"o":"m 298 -46 q 322 -46 298 -46 q 379 -12 346 -46 q 413 69 413 21 q 379 150 413 117 q 298 183 346 183 q 216 150 250 183 q 182 69 182 117 q 216 -12 182 21 q 298 -46 250 -46 m 395 233 q 416 220 395 233 q 463 164 438 207 q 488 69 488 121 q 462 -26 488 17 q 393 -95 436 -69 q 298 -121 350 -121 q 202 -95 246 -121 q 133 -26 158 -69 q 107 69 107 17 q 133 164 107 121 q 204 233 160 207 q 301 258 249 258 q 395 233 353 258 z "},"《":{"ha":1389,"x_min":721,"x_max":1318,"o":"m 749 413 q 721 503 721 465 q 749 594 721 542 l 968 996 q 1000 1055 983 1025 q 1032 1118 1017 1085 q 1055 1132 1038 1132 q 1092 1114 1072 1132 q 1111 1086 1111 1096 q 1086 1041 1111 1076 q 1042 968 1061 1006 l 825 569 q 804 503 804 532 q 825 438 804 475 l 1033 56 q 1083 -31 1058 7 q 1108 -79 1108 -68 q 1088 -99 1108 -90 q 1047 -108 1068 -108 q 1022 -99 1026 -108 q 967 15 985 -15 l 749 413 m 947 413 q 919 503 919 465 q 947 594 919 542 l 1175 996 q 1239 1118 1207 1049 q 1262 1132 1244 1132 q 1299 1115 1279 1132 q 1318 1088 1318 1097 q 1317 1075 1318 1078 q 1281 1022 1299 1047 q 1249 968 1264 996 l 1024 569 q 1003 503 1003 532 q 1024 438 1003 475 l 1240 56 q 1274 -2 1258 25 q 1303 -49 1290 -29 q 1315 -79 1315 -68 q 1295 -99 1315 -90 q 1254 -108 1275 -108 q 1229 -99 1233 -108 q 1174 15 1192 -15 l 947 413 z "},"》":{"ha":1389,"x_min":71,"x_max":668,"o":"m 564 453 q 585 519 585 490 q 564 585 585 547 l 356 967 q 306 1053 331 1015 q 281 1097 281 1092 q 301 1122 281 1113 q 342 1131 322 1131 q 367 1121 363 1131 q 394 1063 381 1090 q 422 1007 408 1035 l 640 610 q 668 520 668 563 q 640 428 668 478 l 421 26 q 389 -33 406 -3 q 357 -96 372 -62 q 335 -110 351 -110 q 298 -92 318 -110 q 278 -64 278 -74 q 298 -26 278 -54 q 347 54 318 1 l 564 453 m 365 453 q 386 519 386 490 q 365 585 386 547 l 149 967 q 97 1054 121 1017 q 74 1097 74 1092 q 94 1122 74 1113 q 135 1131 115 1131 q 160 1121 156 1131 q 215 1007 193 1047 l 442 610 q 469 520 469 563 q 442 428 469 478 l 214 26 q 150 -96 172 -47 q 128 -110 144 -110 q 91 -92 111 -110 q 71 -65 71 -74 q 72 -53 71 -56 q 108 1 90 -25 q 140 54 125 28 l 365 453 z "},"「":{"ha":1389,"x_min":1006,"x_max":1311,"o":"m 1006 1079 q 1061 1117 1006 1117 l 1183 1117 q 1271 1119 1251 1117 l 1272 1119 q 1300 1099 1289 1119 q 1311 1056 1311 1079 q 1292 1033 1311 1033 l 1171 1038 l 1100 1038 l 1100 343 l 1104 196 q 1080 181 1104 181 q 1033 192 1056 181 q 1010 221 1010 203 l 1013 344 l 1013 997 l 1006 1079 z "},"」":{"ha":1389,"x_min":78,"x_max":383,"o":"m 383 -57 q 328 -94 383 -94 l 206 -94 q 118 -97 140 -94 l 117 -97 q 89 -77 100 -97 q 78 -34 78 -57 q 97 -11 78 -11 l 218 -15 l 289 -15 l 289 679 l 285 826 q 309 842 285 842 q 356 831 333 842 q 379 801 379 821 l 376 678 l 376 25 l 383 -57 z "},"【":{"ha":1389,"x_min":1001,"x_max":1333,"o":"m 1001 -104 l 1001 1128 l 1333 1128 q 1142 722 1194 997 q 1115 444 1115 590 q 1141 200 1115 299 q 1216 31 1167 101 q 1333 -104 1265 -40 l 1001 -104 z "},"】":{"ha":1389,"x_min":54,"x_max":388,"o":"m 54 -104 q 247 300 192 22 q 274 578 274 432 q 247 822 274 724 q 172 992 221 921 q 54 1128 124 1064 l 388 1128 l 388 -104 l 54 -104 z "},"万":{"ha":1389,"x_min":99,"x_max":1293,"o":"m 117 910 q 189 903 151 903 l 207 903 l 1129 960 q 1190 968 1176 964 q 1215 972 1204 972 q 1244 960 1225 972 q 1278 933 1264 949 q 1293 908 1293 918 q 1267 889 1293 892 l 660 853 q 621 628 649 740 l 989 647 l 999 647 q 1051 632 1029 647 q 1074 601 1074 617 q 1069 574 1074 585 q 1063 557 1064 564 q 917 -87 1015 63 q 859 -131 888 -131 q 794 -108 831 -131 q 634 13 718 -65 q 550 114 550 90 q 562 122 550 122 q 614 97 574 122 q 831 -11 726 26 q 840 -12 833 -12 q 849 -7 847 -12 q 965 564 931 179 l 600 546 q 360 93 513 263 q 147 -75 249 -31 q 110 -92 113 -92 q 99 -79 99 -92 q 128 -42 99 -67 q 433 361 335 135 q 553 847 531 588 l 239 828 q 199 825 217 825 q 153 834 181 825 q 107 892 126 843 q 106 900 106 894 q 117 910 106 910 z "},"专":{"ha":1389,"x_min":96,"x_max":1299,"o":"m 1142 683 q 1194 692 1179 686 q 1217 699 1208 699 q 1245 685 1225 699 q 1282 655 1265 672 q 1299 628 1299 638 q 1265 607 1299 610 l 572 572 q 510 390 546 493 l 997 422 l 1015 422 q 1062 403 1047 422 q 1076 372 1076 385 q 1071 353 1076 360 q 1011 277 1056 339 q 807 31 967 215 q 937 -57 925 -44 q 950 -78 949 -69 q 943 -103 951 -87 q 901 -144 924 -144 q 872 -129 892 -144 q 532 107 719 -6 q 506 133 507 121 q 513 165 504 146 q 543 183 521 183 q 728 82 579 183 q 935 336 847 201 l 524 313 q 497 308 508 311 q 471 304 486 304 q 434 314 456 304 q 413 349 413 324 q 415 365 413 357 q 486 567 456 474 l 231 554 q 176 551 197 551 q 135 566 154 551 q 106 601 117 581 q 96 632 96 621 q 106 643 96 643 l 182 635 l 193 635 l 513 651 q 519 675 515 664 q 560 821 542 750 l 374 810 q 351 808 363 808 l 332 808 q 293 815 304 808 q 256 861 263 836 q 249 888 249 886 q 256 897 249 897 q 277 893 263 897 q 328 889 292 889 l 346 889 l 581 903 q 586 931 583 917 q 614 1073 614 1051 q 609 1112 614 1094 q 604 1136 604 1129 q 617 1147 604 1147 q 657 1136 629 1147 q 713 1086 713 1114 q 681 946 710 1071 q 672 908 676 928 l 1007 929 q 1056 938 1039 932 q 1081 943 1072 943 q 1108 931 1090 943 q 1157 874 1157 899 q 1122 853 1157 856 l 650 825 q 618 713 635 767 q 600 656 610 688 l 1142 683 z "},"书":{"ha":1389,"x_min":114,"x_max":1247,"o":"m 1111 828 q 954 985 1031 915 q 935 1013 935 1000 q 951 1044 935 1026 q 977 1061 967 1061 q 1035 1026 988 1061 q 1144 928 1082 990 q 1207 853 1207 867 q 1188 818 1207 840 q 1154 796 1169 796 q 1111 828 1139 796 m 1144 453 l 1135 451 l 676 424 l 678 -112 q 654 -149 678 -149 q 617 -135 638 -149 q 571 -89 571 -108 l 571 -75 q 576 -43 571 -71 q 582 17 582 -15 l 582 418 l 236 397 q 217 396 226 396 l 200 396 q 157 406 169 396 q 124 454 133 426 q 114 487 114 482 q 121 492 114 492 q 138 487 124 492 q 189 482 153 482 l 206 482 l 582 504 l 582 763 l 532 760 l 400 750 q 379 749 390 749 l 360 749 q 311 763 321 749 q 276 833 286 793 q 286 843 276 843 l 292 843 q 360 831 329 831 l 367 831 l 582 844 l 582 1036 q 570 1090 582 1075 q 558 1113 558 1106 q 576 1119 558 1119 q 627 1111 594 1119 q 668 1094 660 1103 q 676 1069 676 1086 l 676 850 l 939 867 l 951 867 q 1003 849 988 867 q 1018 821 1018 831 q 1013 803 1018 811 q 1007 783 1008 794 l 971 526 l 1153 536 q 1163 538 1157 538 l 1171 538 q 1194 535 1183 538 q 1231 517 1217 532 q 1247 490 1247 500 q 1244 473 1247 481 q 1233 371 1242 465 q 1204 176 1224 276 q 1150 46 1185 76 q 1096 15 1115 15 q 969 85 1058 15 q 879 190 879 156 q 894 201 879 201 q 1013 149 910 201 q 1081 125 1060 125 q 1114 208 1096 125 q 1144 453 1132 290 m 881 521 l 914 782 l 676 768 l 676 510 l 881 521 z "},"今":{"ha":1389,"x_min":54,"x_max":1364,"o":"m 519 614 q 553 663 519 663 q 713 617 588 663 q 871 558 838 572 q 904 524 904 544 q 890 483 904 503 q 865 463 876 463 q 814 481 853 463 q 546 583 721 526 q 519 614 519 592 m 422 281 l 386 279 l 372 279 q 344 292 356 281 q 310 352 310 336 q 317 368 310 368 q 339 364 325 368 q 388 360 353 360 l 403 360 l 1010 390 l 1031 390 q 1092 358 1081 390 q 1096 340 1096 346 q 1089 326 1096 333 q 1056 274 1082 318 q 972 148 1031 229 q 857 0 913 67 q 703 -144 735 -144 q 683 -137 699 -144 q 638 -94 638 -118 q 657 -67 638 -83 q 969 307 846 97 l 422 281 m 657 1129 q 670 1147 657 1147 q 706 1133 683 1147 q 763 1075 763 1100 q 749 1044 763 1068 q 735 1019 736 1021 q 1343 508 986 692 q 1364 488 1364 499 q 1353 469 1364 485 q 1293 425 1319 425 q 1169 498 1267 425 q 994 636 1071 571 q 689 947 828 776 q 432 637 572 771 q 104 397 292 503 q 67 385 79 385 q 54 393 54 385 q 86 432 54 408 q 644 1068 465 717 q 657 1122 657 1093 l 657 1129 z "},"仑":{"ha":1389,"x_min":50,"x_max":1371,"o":"m 1175 313 q 1199 174 1199 313 q 1188 46 1199 97 q 1144 -33 1176 -6 q 1042 -65 1113 -60 q 807 -79 885 -79 q 475 -52 546 -79 q 404 118 404 -25 l 404 564 q 389 618 404 600 q 220 502 297 543 q 104 447 143 461 q 63 433 65 433 q 50 442 50 433 q 79 474 50 456 q 485 825 338 642 q 633 1067 596 961 q 647 1113 647 1106 l 647 1126 q 664 1143 647 1143 q 697 1133 675 1143 q 757 1082 757 1110 q 732 1029 757 1068 q 1344 556 986 703 q 1371 535 1371 544 q 1353 509 1371 525 q 1317 481 1336 493 q 1290 468 1297 468 q 1219 503 1283 468 q 1054 608 1156 539 q 688 957 849 747 q 535 756 606 829 q 411 636 464 682 q 451 628 426 636 q 488 613 476 621 q 499 593 499 606 l 496 301 q 883 506 735 385 q 921 551 908 526 q 940 576 933 576 q 994 518 960 576 q 1007 484 1007 496 q 999 466 1007 472 q 986 456 992 460 q 744 322 868 375 q 496 229 621 269 l 494 140 l 494 126 q 501 60 494 81 q 526 32 507 39 q 617 17 544 25 q 779 10 689 10 q 914 14 869 10 q 1014 23 958 18 q 1084 47 1069 28 q 1120 126 1099 65 q 1151 250 1142 188 q 1175 313 1161 313 z "},"使":{"ha":1389,"x_min":44,"x_max":1354,"o":"m 560 819 q 485 893 503 819 q 497 903 485 903 q 520 899 504 903 q 561 894 536 894 l 572 894 l 797 907 l 793 1038 q 783 1086 793 1067 q 772 1112 772 1106 q 783 1118 772 1118 q 817 1114 794 1118 q 881 1068 881 1106 l 882 911 l 1092 922 q 1133 929 1119 924 q 1158 935 1147 935 q 1185 922 1168 935 q 1213 893 1201 908 q 1224 872 1224 878 q 1188 854 1224 857 l 883 838 l 883 721 l 1117 733 l 1128 733 q 1172 717 1153 733 q 1192 690 1192 701 q 1188 672 1192 678 q 1182 661 1183 667 l 1147 483 q 1181 433 1181 446 q 1170 419 1181 421 q 1144 415 1160 417 l 864 404 q 842 291 853 333 q 807 199 831 249 q 1333 -32 1043 49 q 1354 -46 1354 -39 q 1344 -65 1354 -49 q 1285 -112 1317 -112 q 1264 -108 1275 -112 q 769 131 1001 -19 q 433 -99 661 -22 q 391 -107 407 -107 q 375 -99 375 -107 q 417 -62 375 -82 q 585 44 515 -11 q 703 175 656 99 q 615 235 647 218 q 549 253 582 253 q 488 250 515 253 l 476 250 q 450 258 458 250 q 440 286 442 265 l 440 293 q 449 322 440 317 q 482 328 458 326 l 525 329 q 614 316 567 329 q 736 246 661 303 q 778 401 769 328 l 633 394 l 635 385 l 635 378 q 610 354 635 354 q 565 368 586 354 q 543 401 543 382 q 546 424 546 421 l 546 432 q 543 469 546 450 l 522 625 q 503 687 515 665 q 492 715 492 708 q 510 726 492 726 q 596 706 529 726 l 799 717 l 799 833 l 588 821 l 560 819 m 382 1050 l 382 1067 q 378 1086 382 1069 q 394 1097 378 1097 q 431 1089 410 1097 q 486 1043 486 1068 q 472 997 486 1039 q 346 739 432 883 l 347 -87 q 324 -114 347 -114 q 297 -106 315 -114 q 253 -54 253 -83 q 257 -25 253 -47 q 261 32 261 -3 l 265 621 q 103 422 178 496 q 56 390 68 390 q 44 403 44 390 q 63 439 44 415 q 303 836 207 628 q 363 979 343 921 q 382 1050 382 1038 m 1092 664 l 882 651 q 872 476 879 540 l 1064 485 l 1092 664 m 788 472 q 799 647 796 554 l 603 636 l 625 465 l 788 472 z "},"供":{"ha":1389,"x_min":44,"x_max":1325,"o":"m 565 671 l 535 669 q 461 724 475 669 q 456 747 456 746 q 462 756 456 756 q 484 751 468 756 q 528 747 500 747 l 539 747 l 646 753 l 638 979 q 617 1046 635 1018 q 613 1057 613 1054 q 625 1065 613 1065 q 661 1061 638 1065 q 725 1007 722 1050 l 733 758 l 965 771 l 974 1013 l 974 1021 q 964 1067 974 1050 q 954 1092 954 1085 q 972 1099 954 1099 q 1017 1087 989 1099 q 1056 1065 1046 1075 q 1065 1039 1065 1056 l 1065 1035 l 1054 775 l 1126 779 q 1149 781 1138 781 q 1172 786 1160 782 q 1192 790 1183 790 q 1217 779 1200 790 q 1258 729 1258 751 q 1224 708 1258 711 l 1050 699 l 1038 417 l 1188 424 q 1240 431 1232 428 q 1256 433 1249 433 q 1281 425 1264 433 q 1325 372 1325 403 q 1292 350 1325 353 l 496 315 l 478 315 q 419 328 425 315 q 390 383 390 365 q 397 400 390 400 q 414 396 403 400 q 454 392 425 392 l 467 392 l 658 400 l 649 675 l 565 671 m 372 1083 q 387 1097 372 1097 q 422 1089 401 1097 q 478 1042 478 1065 q 420 901 478 1018 q 336 739 363 785 l 338 -93 q 309 -119 338 -119 q 261 -100 281 -119 q 242 -66 242 -81 q 246 -29 242 -51 q 250 28 250 -7 l 254 610 q 172 504 219 560 q 53 394 79 394 q 44 407 44 394 q 63 443 44 419 q 303 847 213 649 q 358 985 340 931 q 376 1051 376 1040 q 372 1083 376 1063 m 961 693 l 736 681 l 744 404 l 951 413 l 961 693 m 764 200 q 572 -19 683 74 q 443 -103 476 -103 q 432 -91 432 -103 q 478 -33 432 -79 q 650 199 578 69 q 665 254 665 224 q 681 285 665 285 q 750 242 707 285 q 767 215 767 225 q 764 200 767 206 m 1164 -68 q 956 201 1071 76 q 942 231 942 218 q 959 259 942 244 q 991 274 976 274 q 1034 245 1006 274 q 1103 170 1063 217 q 1180 81 1144 124 q 1237 8 1215 39 q 1258 -35 1258 -24 q 1245 -61 1258 -47 q 1217 -83 1232 -75 q 1190 -92 1201 -92 q 1164 -68 1179 -92 z "},"出":{"ha":1389,"x_min":188,"x_max":1186,"o":"m 1011 497 l 1013 506 l 1017 526 l 731 504 l 728 64 l 1092 88 l 1094 304 q 1076 383 1094 357 q 1071 398 1071 392 q 1082 404 1071 404 q 1117 400 1093 404 q 1186 346 1186 386 l 1179 -104 q 1163 -139 1179 -139 q 1135 -131 1156 -139 q 1097 -108 1114 -122 q 1079 -80 1079 -93 q 1081 -62 1079 -67 l 1092 0 l 313 -57 q 269 -66 285 -58 q 235 -74 253 -74 q 203 -54 218 -74 q 188 -25 188 -35 l 201 50 l 203 68 l 213 286 l 213 304 q 203 356 213 340 q 193 378 193 371 q 205 386 193 386 q 240 381 217 386 q 307 331 307 365 l 307 328 l 290 35 l 640 57 l 642 497 l 369 476 q 334 469 347 475 q 308 464 321 464 q 279 476 296 464 q 263 501 263 489 q 267 533 263 514 q 272 592 272 553 l 276 801 q 265 862 276 844 q 253 887 253 879 q 266 894 253 894 q 315 883 279 894 q 359 863 351 871 q 367 839 367 854 l 360 560 l 642 581 l 643 1026 q 622 1106 643 1071 q 619 1111 619 1110 q 638 1121 619 1121 q 681 1114 656 1121 q 735 1069 735 1097 l 732 588 l 1024 608 l 1024 835 q 1010 910 1024 892 q 1004 921 1004 918 q 1013 929 1004 929 q 1044 925 1022 929 q 1113 872 1113 913 l 1107 472 q 1086 444 1107 444 q 1035 463 1060 444 q 1011 497 1011 482 z "},"击":{"ha":1389,"x_min":72,"x_max":1311,"o":"m 150 563 l 640 583 l 639 799 l 376 785 q 356 783 365 783 l 336 783 q 288 795 303 783 q 263 832 274 807 q 251 867 251 857 q 261 878 251 878 q 280 874 265 878 q 331 869 294 869 l 349 869 l 638 886 l 638 1026 q 618 1096 638 1071 q 611 1111 611 1106 q 629 1121 611 1121 l 646 1119 q 733 1071 733 1106 l 733 893 l 933 904 q 979 913 960 906 q 1007 919 999 919 q 1035 907 1015 919 q 1085 844 1085 875 q 1049 822 1085 825 l 733 804 l 733 588 l 1140 604 q 1197 613 1176 607 q 1227 619 1218 619 q 1257 607 1236 619 q 1294 576 1278 594 q 1311 546 1311 558 q 1276 519 1311 522 l 733 496 l 733 72 l 1042 97 l 1046 289 q 1035 362 1046 347 q 1025 385 1025 376 q 1042 393 1025 393 q 1086 383 1058 393 q 1128 365 1114 374 q 1142 333 1142 356 l 1133 -97 q 1111 -132 1133 -132 q 1057 -110 1082 -132 q 1032 -76 1032 -89 q 1037 -48 1032 -62 q 1042 13 1042 -33 l 372 -44 q 331 -51 346 -46 q 301 -56 315 -56 q 263 -40 288 -56 q 239 0 239 -25 q 247 33 239 10 q 256 96 256 57 l 246 264 q 235 335 246 318 q 224 360 224 351 q 240 368 224 368 q 288 358 257 368 q 330 338 318 347 q 342 306 342 329 l 344 40 l 643 64 l 640 493 l 211 475 q 188 474 197 474 l 167 474 q 124 481 133 474 q 93 513 114 489 q 72 553 72 536 q 80 571 72 571 q 103 567 88 571 q 150 563 118 563 z "},"刘":{"ha":1389,"x_min":85,"x_max":1222,"o":"m 849 810 q 837 860 849 842 q 825 888 825 879 q 840 896 825 896 q 885 885 856 896 q 924 865 915 874 q 932 839 932 857 l 936 211 q 913 182 936 182 l 894 186 q 840 235 840 200 q 845 267 840 243 q 850 328 850 292 l 849 810 m 1219 -31 l 1221 -68 q 1199 -130 1221 -111 q 1161 -149 1176 -149 q 1101 -124 1146 -149 q 974 -34 1056 -99 q 893 56 893 31 q 907 65 893 65 q 970 37 921 65 q 1129 -33 1019 8 l 1132 1011 q 1111 1074 1132 1046 q 1106 1089 1106 1083 q 1124 1101 1106 1101 q 1175 1090 1142 1101 q 1215 1069 1208 1078 q 1222 1044 1222 1060 l 1219 -31 m 551 619 q 549 649 549 636 q 553 661 549 661 q 581 653 557 661 q 647 601 647 632 q 556 407 647 567 q 508 329 531 363 q 675 111 589 233 q 683 92 683 103 q 660 60 683 81 q 622 39 636 39 q 593 60 607 39 q 457 253 547 139 q 156 -35 317 71 q 88 -72 99 -72 q 85 -59 85 -72 q 110 -24 85 -46 q 407 321 286 136 q 232 526 318 439 q 224 549 224 536 q 242 574 224 563 q 271 585 261 585 q 293 575 281 585 q 457 393 324 554 q 532 547 513 490 q 551 619 551 603 m 235 675 l 207 675 q 125 718 147 672 q 115 747 115 740 q 118 754 115 754 l 125 754 q 145 752 128 754 q 194 751 163 750 l 215 751 l 410 765 l 406 954 q 391 1001 406 981 q 372 1026 376 1021 q 368 1040 368 1032 q 381 1049 368 1049 q 436 1040 393 1049 q 488 1020 479 1031 q 496 986 496 1010 l 493 772 l 597 782 q 642 791 622 785 q 676 797 663 797 q 718 778 689 797 q 747 734 747 753 q 722 713 747 715 l 235 675 z "},"创":{"ha":1389,"x_min":57,"x_max":1235,"o":"m 439 1086 l 438 1100 q 449 1114 438 1114 q 483 1102 460 1114 q 524 1072 506 1090 q 543 1043 543 1054 q 539 1021 543 1032 l 507 963 q 623 874 521 960 q 785 731 725 789 q 788 681 808 713 q 743 643 767 642 q 722 658 736 643 q 471 901 576 817 q 386 769 428 831 l 367 742 q 289 642 332 692 q 375 615 311 642 l 606 631 l 624 632 q 659 619 642 632 q 676 594 676 606 q 673 576 676 583 q 667 538 669 568 q 659 430 664 507 q 644 307 654 353 q 568 203 622 203 q 525 219 546 203 q 485 256 504 236 q 431 329 431 308 q 440 338 431 338 q 490 315 450 338 q 544 292 529 292 q 563 303 558 292 q 588 561 583 372 l 374 549 l 369 115 q 379 69 369 86 q 538 40 396 40 q 706 65 679 40 q 742 148 733 90 q 760 257 750 206 q 785 308 768 308 q 806 209 806 308 q 798 63 806 110 q 768 -4 790 17 q 525 -44 724 -44 q 408 -39 463 -44 q 320 -4 354 -33 q 286 94 286 25 l 286 99 l 293 551 q 285 603 293 586 q 276 626 276 621 l 275 625 q 107 461 192 524 q 66 436 75 436 q 57 440 57 436 q 78 476 57 451 q 426 1014 292 726 q 439 1075 439 1046 l 439 1086 m 899 794 q 887 847 899 829 q 875 872 875 864 q 890 879 875 879 q 935 868 906 879 q 972 849 964 857 q 979 825 979 840 l 983 210 q 960 175 983 175 q 942 179 958 175 q 890 226 890 193 q 895 253 890 233 q 900 314 900 274 l 899 794 m 1232 -19 l 1235 -67 q 1215 -115 1235 -92 q 1174 -139 1194 -139 q 1106 -115 1153 -139 q 986 -33 1058 -92 q 914 49 914 25 q 926 57 914 57 q 989 31 939 57 q 1142 -24 1039 4 l 1144 1039 q 1124 1101 1144 1075 q 1117 1119 1117 1113 q 1135 1125 1117 1125 q 1194 1113 1153 1125 q 1235 1071 1235 1100 l 1232 -19 z "},"初":{"ha":1389,"x_min":54,"x_max":1247,"o":"m 231 1049 q 221 1071 221 1058 q 240 1097 221 1083 q 269 1111 260 1111 q 298 1096 279 1111 q 347 1053 317 1081 q 408 999 378 1026 q 457 947 438 971 q 476 912 476 924 q 455 878 476 900 q 422 857 433 857 q 378 899 410 857 q 231 1049 346 940 m 1064 -6 q 1072 4 1072 -6 q 1154 829 1149 293 l 954 817 q 793 231 929 488 q 673 40 733 118 q 566 -78 613 -37 q 504 -118 519 -118 q 489 -107 489 -118 q 524 -53 489 -92 q 614 69 558 -14 q 858 811 833 394 l 711 801 q 662 799 689 799 q 617 824 635 799 q 592 872 592 861 q 603 883 592 883 q 621 880 608 883 q 660 876 633 876 l 1171 910 l 1186 910 q 1233 891 1218 910 q 1247 858 1247 872 l 1242 824 q 1178 25 1233 342 q 1134 -90 1164 -61 q 1082 -119 1104 -119 q 1015 -92 1060 -119 q 899 1 969 -65 q 828 82 828 67 q 844 93 828 93 q 920 56 860 93 q 1057 -4 981 19 q 1064 -6 1060 -6 m 535 447 q 641 372 629 386 q 653 351 653 358 q 647 331 653 344 q 611 289 632 289 q 558 330 603 289 q 414 438 514 371 l 421 -96 q 399 -129 421 -129 q 347 -110 368 -129 q 326 -77 326 -90 q 331 -43 326 -64 q 335 21 335 -22 l 338 457 q 111 250 214 315 q 63 224 72 224 q 54 233 54 224 q 76 267 54 243 q 286 506 194 390 q 446 754 378 622 l 214 729 q 172 726 194 726 q 132 743 150 726 q 107 778 114 760 q 100 803 100 797 q 106 808 100 808 q 122 805 111 808 q 147 801 132 801 l 169 801 q 182 803 176 801 l 483 832 q 494 833 490 833 l 504 833 q 542 819 524 833 q 561 792 561 804 q 553 771 561 779 q 517 710 546 763 q 414 553 489 657 l 414 518 l 476 485 q 558 628 558 578 q 568 642 558 642 q 594 632 578 642 q 642 580 642 606 q 535 447 642 554 z "},"到":{"ha":1389,"x_min":71,"x_max":1233,"o":"m 1231 -31 l 1232 -68 q 1210 -130 1232 -111 q 1171 -149 1188 -149 q 1125 -132 1154 -149 q 1060 -90 1096 -115 q 993 -38 1025 -65 q 940 11 961 -11 q 919 43 919 33 q 933 53 919 53 q 1007 22 946 53 q 1139 -33 1068 -10 l 1142 1040 q 1121 1103 1142 1074 q 1115 1118 1115 1113 q 1134 1131 1115 1131 q 1186 1119 1153 1131 q 1226 1098 1219 1107 q 1233 1074 1233 1089 l 1231 -31 m 126 982 l 161 978 q 188 975 174 975 l 199 975 l 665 1004 q 698 1010 686 1007 q 714 1014 710 1014 l 721 1014 q 772 978 746 1014 q 782 953 782 964 q 750 933 782 936 l 465 915 q 310 638 382 746 q 583 682 413 650 q 551 721 567 703 q 520 756 535 739 q 506 785 506 772 q 517 807 506 797 q 540 822 528 817 q 557 826 551 826 q 598 791 563 826 q 698 665 633 756 q 763 559 763 575 q 740 526 763 543 q 701 510 718 510 q 671 541 685 510 q 626 621 657 572 q 213 547 435 578 l 172 542 q 147 557 160 542 q 125 591 133 572 q 117 619 117 610 q 129 628 117 628 l 136 628 q 175 625 161 625 q 211 628 189 625 q 364 910 308 785 l 213 900 l 197 900 q 151 913 167 900 q 128 946 138 926 q 119 974 119 965 q 126 982 119 982 m 951 210 q 924 176 951 176 q 878 193 901 176 q 856 236 856 210 q 856 244 856 240 q 859 263 856 249 q 863 326 863 278 l 861 803 q 850 853 861 835 q 839 878 839 871 q 855 889 839 889 q 902 878 871 889 q 940 858 933 867 q 947 832 947 850 l 951 210 m 92 33 q 121 31 111 31 q 390 88 171 31 l 392 303 l 242 294 l 225 294 q 178 309 193 294 q 153 344 163 324 q 144 369 144 364 q 150 375 144 375 q 174 372 156 375 q 215 368 192 368 l 233 368 l 393 376 l 393 475 q 383 517 393 500 q 372 540 372 535 q 388 551 372 551 q 425 547 404 551 q 481 507 481 535 l 479 379 l 603 386 q 650 394 638 389 q 672 399 663 399 q 697 389 681 399 q 736 338 736 363 q 701 317 736 319 l 479 306 l 476 111 q 667 165 583 139 q 769 190 750 190 q 789 178 789 190 q 751 146 789 161 q 315 -13 471 33 q 142 -60 160 -60 q 108 -40 125 -60 q 81 0 90 -21 q 71 24 71 21 q 85 33 71 33 l 92 33 z "},"前":{"ha":1389,"x_min":93,"x_max":1311,"o":"m 103 847 q 178 840 151 840 l 196 840 l 563 861 l 550 876 q 407 1019 499 943 q 393 1044 393 1032 q 408 1073 393 1057 q 431 1089 422 1089 q 461 1074 439 1089 q 513 1037 483 1060 q 569 988 542 1014 q 615 941 597 963 q 633 907 633 919 q 622 880 633 894 q 608 864 611 865 l 732 871 q 881 1034 839 972 q 922 1121 922 1096 l 922 1124 q 931 1139 922 1139 q 957 1126 939 1139 q 991 1095 975 1114 q 1007 1060 1007 1076 q 950 982 1007 1043 q 844 878 893 921 l 1146 894 q 1204 903 1183 896 q 1234 911 1225 911 q 1263 900 1243 911 q 1311 843 1311 869 q 1283 825 1311 828 l 228 768 q 181 765 200 765 q 115 797 136 765 q 93 838 93 828 q 103 847 93 847 m 1174 -15 l 1175 -64 q 1151 -115 1175 -97 q 1111 -132 1128 -132 q 1065 -117 1094 -132 q 1002 -78 1036 -101 q 938 -30 968 -56 q 887 16 907 -4 q 867 46 867 36 q 881 56 867 56 q 954 25 894 56 q 1082 -22 1014 -6 l 1086 654 q 1068 726 1086 697 q 1061 745 1061 740 q 1071 750 1061 750 q 1119 738 1081 750 q 1167 714 1157 725 q 1176 686 1176 703 l 1174 -15 m 219 -65 q 244 572 244 135 q 236 649 244 626 q 228 678 228 672 q 240 688 228 688 q 326 664 253 688 l 622 682 l 632 682 q 671 670 651 682 q 690 636 690 658 l 686 606 l 690 -11 l 693 -54 q 673 -99 693 -78 q 636 -119 653 -119 q 513 -58 606 -119 q 421 26 421 4 q 431 35 421 35 q 487 17 442 35 q 606 -19 532 0 l 604 207 l 318 193 l 313 -85 q 288 -118 313 -118 q 241 -100 263 -118 q 219 -65 219 -82 m 929 161 q 907 125 929 125 q 888 131 906 125 q 835 181 835 147 q 838 209 835 190 q 842 288 842 228 l 840 547 q 831 612 840 594 q 822 636 822 629 q 835 643 822 643 q 881 631 847 643 q 919 606 914 618 q 924 581 924 594 l 929 161 m 603 607 l 325 589 l 322 467 l 603 481 l 603 607 m 604 408 l 321 394 l 319 268 l 604 282 l 604 408 z "},"加":{"ha":1389,"x_min":43,"x_max":1264,"o":"m 708 742 l 701 706 q 676 298 696 479 q 644 58 656 117 q 624 -34 633 -1 q 589 -88 614 -67 q 543 -110 564 -110 q 494 -92 522 -110 q 374 2 442 -61 q 307 79 307 65 q 321 93 307 93 q 403 55 335 93 q 513 6 472 17 l 528 3 q 538 13 536 3 q 603 463 583 186 q 613 704 613 589 l 444 692 q 196 19 388 251 q 103 -78 142 -47 q 53 -110 64 -110 q 43 -97 43 -110 q 65 -58 43 -85 q 260 285 188 85 q 351 685 333 485 l 229 675 q 177 672 201 672 q 139 682 153 672 q 112 722 124 697 q 100 754 100 746 q 107 763 100 763 q 130 759 114 763 q 178 756 146 756 l 193 756 l 360 768 q 368 981 368 879 l 368 1018 q 359 1077 368 1058 q 350 1104 350 1096 q 359 1113 350 1113 q 393 1108 368 1113 q 442 1088 418 1103 q 465 1046 465 1074 q 453 774 461 858 l 639 788 l 649 788 q 690 774 672 788 q 708 742 708 761 m 897 794 l 1189 813 l 1201 813 q 1245 794 1226 813 q 1264 765 1264 776 q 1260 747 1264 754 q 1256 733 1257 740 l 1225 115 q 1261 56 1261 71 q 1249 39 1261 42 q 1218 35 1236 36 l 925 21 l 928 -31 l 928 -33 q 919 -58 928 -50 q 901 -65 910 -65 q 875 -61 892 -65 q 833 -12 833 -47 l 833 -6 q 836 49 836 22 l 810 714 q 793 781 807 756 q 779 816 779 807 q 800 825 779 825 q 897 794 821 825 m 1163 732 l 897 717 l 922 103 l 1140 111 l 1163 732 z "},"动":{"ha":1389,"x_min":86,"x_max":1264,"o":"m 92 167 l 126 163 q 167 168 144 163 q 328 578 258 365 l 221 569 q 169 567 194 567 q 126 587 144 567 q 99 624 108 607 q 93 646 89 642 q 103 654 93 654 l 110 654 q 168 649 139 649 l 186 649 l 539 674 q 590 682 579 678 q 609 686 601 686 q 635 675 617 686 q 668 649 654 664 q 682 622 682 633 q 651 601 682 604 l 429 586 l 415 585 q 260 188 342 365 q 533 271 408 225 q 468 413 496 368 q 472 457 451 446 q 515 469 499 469 q 542 450 531 469 q 668 176 617 324 l 685 129 q 658 94 685 110 q 620 78 632 78 q 603 86 608 78 q 556 207 593 96 q 280 107 381 136 q 156 78 179 78 q 117 95 132 78 q 94 135 101 113 q 86 162 86 157 q 92 167 86 167 m 1264 707 l 1256 671 q 1193 32 1244 290 q 1149 -83 1179 -57 q 1099 -110 1119 -110 q 1038 -85 1078 -110 q 936 0 999 -61 q 874 76 874 61 q 889 92 874 92 q 919 79 897 92 q 1028 19 981 40 q 1083 -3 1075 -3 q 1092 8 1090 -3 q 1158 435 1139 188 q 1168 669 1168 554 l 1010 660 q 639 -86 942 140 q 600 -107 613 -107 q 588 -100 588 -107 q 637 -31 588 -85 q 746 121 686 24 q 921 654 871 326 l 819 649 q 769 646 793 646 q 729 656 744 646 q 703 695 715 671 q 692 728 692 719 q 698 736 692 736 q 721 733 704 736 q 769 729 738 729 l 783 729 l 929 738 q 939 958 939 817 l 939 1015 q 931 1074 939 1056 q 922 1101 922 1093 q 936 1110 922 1110 q 983 1099 950 1110 q 1036 1043 1036 1081 q 1018 743 1032 858 l 1194 753 l 1206 753 q 1244 740 1224 753 q 1264 707 1264 728 m 178 950 l 233 946 l 251 946 l 536 961 q 572 968 558 964 q 599 972 586 972 q 627 960 611 972 q 654 934 643 949 q 665 911 665 919 q 624 889 665 892 l 265 867 l 244 867 q 199 886 207 867 q 169 943 169 921 q 178 950 169 950 z "},"向":{"ha":1389,"x_min":181,"x_max":1200,"o":"m 1190 6 l 1192 -53 q 1169 -107 1192 -86 q 1132 -128 1147 -128 q 1063 -103 1117 -128 q 922 -19 1010 -79 q 833 69 833 40 q 849 79 833 79 q 901 61 865 79 q 1101 -14 982 18 l 1101 782 l 288 736 l 288 -94 q 261 -129 288 -129 q 240 -124 258 -129 q 203 -104 221 -118 q 186 -73 186 -90 q 192 -20 186 -56 q 197 76 197 15 l 200 681 q 190 800 200 761 q 181 847 181 839 q 199 856 181 856 q 301 814 218 856 l 478 825 q 631 1103 621 1046 q 633 1131 633 1118 q 646 1144 633 1144 q 678 1132 658 1144 q 731 1075 731 1100 q 575 831 731 1050 l 1121 864 l 1140 865 q 1180 850 1160 865 q 1200 814 1200 835 l 1193 785 l 1190 6 m 874 290 q 921 234 921 249 q 911 217 921 219 q 888 213 901 214 l 575 203 l 578 172 l 578 168 q 557 147 578 147 q 515 163 544 147 q 485 204 485 178 l 485 210 q 488 240 486 225 q 489 269 489 256 l 469 486 q 454 557 467 531 q 442 593 442 583 q 462 603 442 603 q 554 568 482 603 l 838 589 l 854 590 q 897 570 875 590 q 918 538 918 550 q 913 518 918 525 q 907 504 908 511 l 874 290 m 818 510 l 554 493 l 571 275 l 792 283 l 818 510 z "},"响":{"ha":1389,"x_min":89,"x_max":1264,"o":"m 1260 4 l 1261 -36 q 1222 -97 1261 -79 q 1199 -104 1208 -104 q 1142 -85 1189 -104 q 1010 -14 1094 -67 q 926 65 926 39 q 941 75 926 75 q 1013 53 956 75 q 1171 6 1071 31 l 1168 778 l 639 750 l 644 -62 q 622 -99 644 -99 q 572 -84 596 -99 q 549 -56 549 -69 q 552 -24 549 -43 q 556 82 556 -6 l 556 742 q 542 839 556 813 q 540 848 540 843 q 552 853 540 853 q 638 826 564 853 l 736 832 q 832 1001 800 931 q 864 1100 864 1072 l 864 1114 q 878 1128 864 1128 q 908 1117 888 1128 q 968 1058 968 1086 q 906 950 968 1042 q 826 838 843 858 l 1186 857 l 1203 858 q 1251 838 1238 858 q 1264 811 1264 818 l 1258 779 l 1260 4 m 433 426 q 467 374 467 389 q 456 356 467 358 q 428 353 444 354 l 210 343 l 213 274 l 213 269 q 187 244 213 244 q 142 263 161 244 q 124 300 124 281 l 129 367 l 129 385 l 115 754 q 101 826 113 807 q 89 852 89 844 q 107 860 89 860 q 190 835 125 860 l 383 846 l 410 847 q 444 836 422 847 q 467 800 467 825 q 463 783 467 790 q 458 768 460 775 l 433 426 m 374 768 l 193 758 l 207 421 l 353 426 l 374 768 m 1013 610 l 1029 611 q 1068 595 1053 611 q 1083 571 1083 579 q 1081 556 1083 563 q 1076 544 1078 550 l 1049 332 q 1088 283 1088 294 q 1078 268 1088 271 q 1054 264 1069 265 l 831 256 l 835 196 l 835 192 q 814 171 835 171 q 781 179 801 171 q 753 197 760 188 q 746 219 746 206 l 746 231 q 749 283 749 253 l 749 307 l 733 538 q 719 587 729 567 q 710 616 710 607 q 726 625 710 625 q 814 599 743 625 l 1013 610 m 990 539 l 813 529 l 826 325 l 974 328 l 990 539 z "},"土":{"ha":1389,"x_min":65,"x_max":1328,"o":"m 378 525 l 339 524 q 293 534 307 524 q 266 565 279 544 q 253 599 253 585 q 260 613 253 613 q 281 608 267 613 q 332 604 296 604 l 350 604 l 636 618 l 638 997 q 617 1068 638 1038 q 611 1085 611 1078 q 623 1093 611 1093 q 661 1086 635 1093 q 735 1038 735 1067 l 733 624 l 982 636 q 1035 645 1022 640 q 1056 650 1047 650 q 1083 638 1064 650 q 1132 579 1132 604 q 1097 560 1132 563 l 733 542 l 732 99 l 1172 115 q 1223 124 1207 118 q 1247 129 1239 129 q 1276 116 1256 129 q 1312 85 1296 103 q 1328 56 1328 67 q 1294 33 1328 36 l 199 -8 q 172 -10 185 -10 l 151 -10 q 72 53 92 -10 q 65 79 65 78 q 75 88 65 88 q 101 83 81 88 q 151 78 121 78 l 163 78 l 635 96 l 636 538 l 378 525 z "},"失":{"ha":1389,"x_min":69,"x_max":1343,"o":"m 251 389 l 217 388 q 171 394 192 388 q 125 456 143 411 q 122 467 122 464 q 133 476 122 476 q 156 472 139 476 q 206 468 172 468 l 219 468 l 617 486 q 643 706 636 581 l 399 693 q 321 589 363 635 q 214 500 242 500 q 203 513 203 500 q 222 551 203 525 q 386 869 336 706 q 406 950 406 935 l 406 969 q 404 979 406 974 l 404 985 q 417 1000 404 1000 q 453 989 429 1000 q 514 935 514 963 q 443 774 514 907 l 646 786 l 646 940 q 642 1056 646 1035 q 628 1092 638 1078 q 619 1115 619 1107 q 635 1124 619 1124 q 680 1114 651 1124 q 724 1092 708 1104 q 740 1054 739 1081 q 740 994 740 1028 l 740 858 q 739 792 740 825 l 932 803 q 987 812 974 807 q 1010 817 1000 817 q 1038 806 1019 817 q 1071 778 1057 794 q 1085 751 1085 763 q 1051 729 1085 732 l 735 711 q 711 490 728 583 l 1082 508 q 1139 517 1126 513 q 1160 522 1151 522 q 1186 510 1168 522 q 1235 453 1235 478 q 1201 431 1235 433 l 733 411 q 991 138 853 242 q 1315 -29 1129 33 q 1343 -49 1343 -39 q 1331 -68 1343 -51 q 1267 -115 1297 -115 q 1256 -112 1261 -115 q 675 354 892 29 q 476 65 622 186 q 243 -73 365 -26 q 83 -119 121 -119 q 69 -108 69 -119 q 108 -75 69 -93 q 453 153 346 36 q 596 404 544 250 l 251 389 z "},"好":{"ha":1389,"x_min":51,"x_max":1383,"o":"m 106 650 l 143 651 q 205 656 174 654 q 268 661 236 658 q 314 969 308 836 l 314 985 q 309 1022 314 1010 q 304 1038 304 1033 q 318 1050 304 1050 q 353 1044 332 1050 q 411 997 411 1026 l 411 988 q 351 668 394 849 q 488 683 390 671 l 490 721 l 490 729 q 483 772 490 756 q 476 793 476 789 q 489 804 476 804 q 522 800 501 804 q 579 750 579 789 l 579 739 l 575 696 l 632 704 q 640 706 636 706 l 647 706 q 675 692 675 706 q 568 646 675 671 q 446 233 532 397 q 600 56 600 79 q 583 24 600 44 q 551 4 565 4 q 529 17 538 4 q 404 168 476 89 q 274 24 342 81 q 156 -60 207 -33 q 93 -87 106 -87 q 81 -79 81 -87 q 106 -47 81 -65 q 354 222 269 76 q 302 275 328 251 q 258 315 276 299 q 225 336 240 332 q 203 375 208 343 q 201 386 201 379 q 217 445 201 393 q 251 583 233 497 l 128 565 q 85 583 103 565 q 60 619 68 600 q 51 646 51 639 q 63 653 51 653 l 69 653 q 106 650 89 650 m 669 1001 l 736 994 l 753 994 l 1135 1019 l 1144 1019 q 1189 1002 1169 1019 q 1208 972 1208 985 q 1199 951 1208 958 q 1186 938 1190 943 q 972 671 1092 796 q 1001 556 989 621 l 1225 568 q 1285 576 1265 571 q 1314 582 1306 582 q 1340 571 1322 582 q 1370 544 1357 560 q 1383 519 1383 529 q 1350 497 1383 500 l 1015 479 q 1038 208 1038 336 q 1033 13 1038 79 q 964 -129 1022 -129 q 781 -32 915 -129 q 703 51 703 26 q 717 61 703 61 q 786 34 731 61 q 883 -5 842 7 q 931 -17 925 -17 q 949 173 949 -17 q 931 474 949 363 l 692 461 l 653 460 q 611 472 625 460 q 575 536 575 504 q 582 546 575 546 q 607 542 589 546 q 653 538 625 538 l 664 538 l 917 551 q 858 719 894 661 q 850 742 850 732 q 879 771 850 757 q 904 779 894 779 q 938 749 919 779 q 1088 940 1015 829 l 781 919 q 739 917 758 917 l 732 917 q 682 947 701 919 q 663 988 663 975 q 669 1001 663 1001 m 335 597 q 279 392 310 494 q 390 289 333 344 q 481 625 458 444 l 335 597 z "},"子":{"ha":1389,"x_min":47,"x_max":1349,"o":"m 1349 519 q 1317 497 1349 500 l 1314 497 l 761 467 q 783 142 783 306 l 782 81 q 750 -110 779 -54 q 708 -142 735 -142 q 474 -11 643 -142 q 378 92 378 65 q 392 100 378 100 q 486 56 406 100 q 668 -26 567 11 l 671 -26 q 679 -18 679 -26 q 693 210 693 71 q 675 463 693 349 l 160 435 q 140 433 150 433 l 124 433 q 88 440 94 433 q 47 513 47 481 q 58 522 47 522 q 76 519 64 522 q 119 515 89 515 l 135 515 l 661 544 q 622 665 640 633 q 603 708 603 697 q 647 742 603 729 l 661 744 q 692 719 678 744 q 928 944 851 843 l 414 907 q 367 904 386 904 q 333 917 347 904 q 294 985 294 954 q 302 993 294 993 q 322 990 310 993 q 361 986 335 986 l 983 1031 l 1001 1032 q 1046 1013 1021 1032 q 1071 978 1071 994 q 1059 954 1071 963 q 1040 939 1047 946 q 724 644 894 775 q 747 550 736 601 l 1176 574 q 1237 583 1217 576 q 1270 589 1257 589 q 1303 576 1283 589 q 1335 547 1322 564 q 1349 519 1349 531 z "},"家":{"ha":1389,"x_min":115,"x_max":1349,"o":"m 1192 981 l 1208 982 q 1247 965 1224 982 q 1271 933 1271 949 q 1260 908 1271 917 q 1243 890 1250 900 q 1126 742 1174 785 q 1064 699 1078 699 q 1050 707 1050 699 q 1080 766 1050 722 q 1149 900 1110 810 l 304 854 q 248 713 272 760 q 218 660 224 667 q 201 653 213 653 q 174 663 189 653 q 149 684 160 672 q 138 702 138 696 q 158 741 138 708 q 205 843 178 774 q 251 989 232 913 q 285 1017 260 1017 q 317 1009 296 1017 q 339 983 339 1001 q 328 931 339 964 l 647 949 l 646 1050 q 631 1098 646 1082 q 617 1121 617 1114 q 637 1132 617 1132 q 681 1125 657 1132 q 743 1086 743 1110 l 742 954 l 1192 981 m 806 275 q 824 118 824 185 q 810 -12 824 51 q 764 -110 796 -75 q 706 -146 732 -146 q 569 -67 656 -146 q 482 50 482 10 q 494 58 482 58 q 556 24 506 58 q 647 -26 606 -10 q 689 -42 688 -42 q 725 50 713 -42 q 731 146 731 90 q 718 269 731 201 q 183 -3 421 53 q 127 -12 139 -12 q 115 -3 115 -12 q 179 46 115 15 q 325 119 243 76 q 697 363 513 217 q 693 376 696 369 q 688 389 690 382 l 667 446 q 238 235 457 292 q 180 224 194 224 q 165 235 165 224 q 213 274 165 253 q 408 371 303 314 q 626 521 513 428 q 578 572 613 540 q 272 451 439 490 q 235 447 251 447 q 218 457 218 447 q 280 499 218 474 q 427 565 342 524 q 601 678 513 607 l 428 667 q 408 665 418 665 l 390 665 q 339 677 356 665 q 311 712 322 689 q 300 743 300 735 q 311 751 300 751 q 335 747 315 751 q 394 742 354 742 l 415 742 l 867 767 q 935 777 910 768 q 974 786 960 786 q 1003 772 988 786 q 1026 744 1018 758 q 1035 725 1035 729 q 990 701 1035 706 l 735 686 q 644 613 679 636 q 756 450 719 546 q 924 537 853 490 q 1011 626 994 583 q 1028 644 1018 644 q 1050 631 1039 644 q 1079 557 1079 594 q 1072 538 1079 542 q 778 383 922 436 q 1131 178 965 249 q 1326 104 1219 139 q 1349 87 1349 97 q 1333 61 1349 76 q 1300 34 1318 46 q 1277 22 1282 22 q 1228 39 1272 22 q 1113 89 1183 56 q 806 275 940 167 z "},"小":{"ha":1389,"x_min":83,"x_max":1335,"o":"m 767 35 l 768 -21 q 748 -80 768 -57 q 708 -103 728 -103 q 631 -76 688 -103 q 483 14 574 -49 q 392 97 392 76 q 408 110 392 110 q 495 78 425 110 q 668 18 565 47 l 672 1033 q 660 1083 672 1067 q 647 1101 647 1099 q 658 1110 647 1110 q 696 1106 669 1110 q 771 1061 771 1092 l 767 35 m 351 744 l 346 778 q 363 790 346 790 q 414 769 381 790 q 469 714 469 738 q 468 704 469 707 q 236 308 365 467 q 142 207 181 242 q 92 172 103 172 q 83 183 83 172 q 100 221 83 194 q 244 453 178 336 q 346 711 311 571 q 351 744 351 728 m 1235 242 q 947 718 1090 533 q 939 741 939 729 q 960 770 939 753 q 998 788 981 788 q 1026 772 1015 788 q 1240 456 1144 618 q 1335 278 1335 294 q 1312 242 1335 263 q 1267 221 1289 221 q 1235 242 1244 221 z "},"巢":{"ha":1389,"x_min":68,"x_max":1340,"o":"m 938 958 q 1117 861 1100 888 q 1121 850 1121 856 q 1106 819 1121 844 q 1076 794 1092 794 q 1013 830 1060 794 q 856 924 967 865 q 840 953 840 932 q 851 981 840 974 q 986 1094 969 1054 q 993 1132 993 1114 q 1010 1146 993 1146 q 1047 1138 1026 1146 q 1082 1117 1067 1129 q 1097 1097 1097 1104 q 1075 1068 1097 1089 q 938 958 1024 1017 m 639 942 q 797 842 778 867 q 806 819 806 831 q 784 794 806 808 q 745 781 763 781 q 698 809 728 781 q 557 910 668 838 q 542 939 542 918 q 553 967 542 960 q 679 1067 654 1032 q 693 1110 690 1089 q 713 1131 696 1131 q 749 1121 729 1131 q 797 1076 797 1097 q 741 1021 797 1069 q 639 942 685 972 m 499 811 q 478 785 499 799 q 442 771 458 771 q 396 797 425 771 q 258 892 367 824 q 242 923 242 903 q 251 949 242 943 q 342 1017 314 993 q 380 1058 371 1040 q 394 1097 389 1076 q 413 1118 399 1118 q 444 1111 426 1118 q 496 1065 496 1090 q 437 1001 496 1051 q 338 924 378 951 q 499 811 499 843 m 113 283 q 178 275 138 275 l 197 275 l 649 296 l 649 394 l 646 394 q 601 393 636 394 q 526 390 567 392 q 456 388 485 389 l 425 386 l 426 369 l 426 365 q 400 336 426 336 q 368 347 386 336 q 342 366 350 357 q 335 404 335 375 q 331 471 335 433 l 310 667 q 292 738 307 706 q 278 775 278 771 q 294 783 278 783 q 388 757 310 783 l 1031 793 l 1042 793 q 1094 774 1078 793 q 1111 745 1111 756 q 1106 728 1111 735 q 1099 715 1100 722 l 1058 475 q 1093 428 1093 440 q 1083 415 1093 417 q 1058 411 1074 413 l 731 399 l 731 300 l 1147 319 l 1178 319 q 1210 324 1199 319 q 1230 328 1221 328 q 1267 308 1239 328 q 1296 267 1296 288 q 1265 247 1296 250 l 819 229 q 1055 106 939 158 q 1319 14 1171 54 q 1340 -3 1340 7 q 1316 -37 1340 -12 q 1268 -61 1292 -61 q 1219 -47 1265 -61 q 1096 0 1172 -32 q 731 210 910 78 l 732 -119 q 707 -147 732 -147 q 666 -132 690 -147 q 642 -94 642 -117 l 642 -86 q 646 -54 642 -81 q 650 35 650 -28 l 649 204 q 164 -64 400 -6 q 86 -78 104 -78 q 68 -68 68 -78 q 115 -33 68 -51 q 546 219 353 64 l 211 206 l 186 206 q 138 215 160 206 q 107 269 117 224 q 106 278 106 272 q 113 283 106 283 m 1007 725 l 731 711 l 731 619 l 996 633 l 1007 725 m 649 707 l 389 693 l 400 601 l 649 615 l 649 707 m 988 571 l 950 569 q 731 558 842 565 l 731 461 l 975 472 l 988 571 m 649 554 q 407 542 407 543 l 418 447 l 649 457 l 649 554 z "},"已":{"ha":1389,"x_min":204,"x_max":1329,"o":"m 213 974 q 283 965 263 965 l 1014 1011 l 1033 1013 q 1077 996 1057 1013 q 1097 964 1097 979 q 1093 939 1097 949 q 1088 922 1089 929 l 1050 603 q 1097 547 1097 561 q 1086 528 1097 533 q 1057 522 1075 524 l 378 485 l 372 99 q 385 48 372 64 q 431 29 399 32 q 773 19 586 19 q 1163 44 960 19 q 1228 100 1213 49 q 1275 280 1258 193 q 1310 367 1292 367 q 1329 279 1329 367 q 1315 61 1329 192 q 1215 -42 1307 -17 q 647 -68 1128 -68 q 415 -60 557 -68 q 315 -21 351 -56 q 278 74 278 14 l 278 76 l 288 685 q 277 728 288 708 q 267 756 267 747 q 277 764 267 764 q 313 758 288 764 q 381 704 381 740 l 379 568 l 957 597 l 988 929 l 326 888 l 300 886 q 253 896 281 886 q 207 954 226 906 q 204 965 204 963 q 213 974 204 974 z "},"建":{"ha":1389,"x_min":56,"x_max":1349,"o":"m 492 779 q 556 774 519 774 l 576 774 l 824 788 l 824 876 l 685 868 l 653 867 q 581 922 614 867 q 574 940 574 935 q 582 946 574 946 l 647 940 l 661 940 l 825 950 l 825 1011 q 807 1090 825 1067 q 801 1104 801 1099 q 813 1110 801 1110 q 846 1106 825 1110 q 903 1061 903 1094 l 903 954 l 1088 965 q 1110 967 1093 967 q 1146 950 1126 967 q 1165 919 1165 933 q 1160 894 1165 904 q 1153 874 1154 885 l 1144 807 l 1176 808 q 1225 817 1213 813 q 1249 822 1238 822 q 1274 810 1260 822 q 1298 783 1289 797 q 1307 764 1307 769 q 1276 744 1307 747 l 1136 736 l 1125 644 q 1161 593 1161 606 q 1150 578 1161 581 q 1119 574 1139 575 l 903 561 l 903 474 l 1049 482 q 1074 485 1060 483 q 1101 491 1088 486 q 1125 496 1115 496 q 1150 486 1135 496 q 1190 436 1190 463 q 1161 415 1190 418 l 903 400 l 903 306 l 1143 315 q 1213 326 1199 321 q 1238 332 1226 332 q 1267 321 1249 332 q 1310 272 1310 293 q 1286 247 1310 250 l 903 232 l 903 93 q 881 63 903 63 q 862 67 879 63 q 828 83 844 71 q 813 122 813 96 l 813 129 q 817 153 813 133 q 821 225 821 172 l 821 229 l 579 219 l 561 219 l 525 221 q 503 226 511 224 q 467 267 479 240 q 460 279 464 274 q 457 290 457 285 q 469 300 457 300 q 484 296 472 300 q 539 292 496 292 l 557 292 l 821 303 l 822 396 l 646 386 q 561 426 585 386 q 550 454 550 446 q 556 463 550 463 q 574 460 563 463 q 608 457 585 457 l 651 458 l 822 468 l 822 557 l 682 549 l 647 547 q 583 596 607 547 q 576 614 576 613 q 585 621 576 621 q 626 617 606 617 l 824 626 l 824 718 l 594 706 l 560 704 q 520 715 532 704 q 497 746 508 725 q 485 773 485 767 q 492 779 485 779 m 111 158 q 81 210 81 158 q 102 240 81 231 q 190 249 124 249 q 299 239 256 249 q 376 472 344 340 l 261 463 q 233 457 244 461 q 208 453 222 453 q 176 469 193 453 q 158 499 158 486 q 171 531 158 511 q 347 815 267 661 l 229 800 q 204 797 215 799 q 174 796 193 796 q 138 811 156 796 q 111 846 121 826 q 101 872 101 865 q 110 878 101 878 l 163 872 l 178 872 q 194 874 186 872 l 388 896 q 396 897 392 897 q 404 897 400 897 q 452 877 436 897 q 468 847 468 857 q 458 826 468 836 q 442 807 447 815 q 272 538 343 629 l 406 551 l 417 553 q 481 517 461 553 q 486 497 486 504 q 447 378 486 489 q 379 213 407 268 q 410 200 394 207 q 440 186 425 193 q 1325 -28 775 28 q 1349 -43 1349 -31 q 1336 -67 1349 -49 q 1275 -119 1304 -119 q 1267 -119 1271 -119 q 1258 -118 1263 -119 q 808 -29 1015 -81 q 421 113 601 22 q 343 147 381 133 q 226 -7 286 54 q 121 -99 165 -68 q 66 -129 76 -129 q 56 -117 56 -129 q 97 -61 56 -106 q 263 168 199 50 q 207 172 240 172 q 144 165 174 172 q 111 158 115 158 m 1069 892 l 903 882 l 903 793 l 1061 801 l 1069 892 m 1056 732 l 903 724 l 903 631 l 1047 639 l 1056 732 z "},"开":{"ha":1389,"x_min":83,"x_max":1304,"o":"m 472 769 q 467 914 472 894 l 331 907 q 311 906 321 906 l 294 906 q 250 915 264 906 q 238 928 249 918 q 207 989 207 957 q 215 997 207 997 q 233 992 218 997 q 283 988 247 988 l 300 988 l 1043 1026 q 1089 1033 1075 1028 q 1114 1039 1103 1039 q 1144 1025 1125 1039 q 1178 994 1164 1011 q 1193 969 1193 978 q 1157 950 1193 953 l 936 939 l 936 599 l 1154 610 q 1200 617 1186 611 q 1225 622 1214 622 q 1256 609 1236 622 q 1290 579 1275 596 q 1304 553 1304 563 q 1268 531 1304 533 l 936 515 l 938 -103 q 911 -139 938 -139 q 885 -132 904 -139 q 851 -110 867 -125 q 835 -71 835 -94 l 835 -64 q 840 -36 835 -60 q 846 26 846 -12 l 846 510 l 551 496 q 526 347 543 435 q 357 32 479 154 q 175 -97 268 -57 q 138 -111 142 -111 q 128 -101 128 -111 q 160 -65 128 -92 q 334 118 267 19 q 435 343 401 217 q 463 492 454 431 l 207 479 l 171 478 q 126 488 140 478 q 92 535 100 511 q 83 565 83 558 q 92 572 83 572 q 109 567 94 572 q 160 563 124 563 l 176 563 l 467 576 q 471 689 469 632 l 472 769 m 563 919 q 564 886 564 894 l 564 775 l 563 694 q 558 581 561 636 l 846 594 l 846 917 q 844 933 846 926 l 563 919 z "},"必":{"ha":1389,"x_min":81,"x_max":1331,"o":"m 842 81 q 964 65 910 65 q 1018 74 1018 65 q 999 122 1018 76 q 950 255 981 167 q 919 373 919 343 q 931 403 919 403 q 968 360 946 403 q 1125 94 1017 260 q 1150 40 1150 57 q 1136 6 1150 22 q 1001 -33 1106 -33 q 811 -11 896 -33 q 543 150 638 33 q 269 -28 418 44 q 118 -87 151 -87 q 103 -78 103 -87 q 146 -35 103 -57 q 500 219 342 76 q 441 401 458 300 q 415 643 424 503 l 415 654 q 425 684 415 676 q 458 693 435 692 l 464 693 q 497 683 488 693 q 507 646 506 674 q 569 288 513 418 q 861 742 742 474 q 939 968 939 917 q 934 1001 939 989 q 929 1019 929 1013 q 944 1033 929 1033 l 960 1031 q 1044 967 1044 1007 l 1031 919 q 782 414 953 663 q 613 213 710 310 q 842 81 686 114 m 747 704 q 722 693 735 693 q 688 714 708 693 q 438 944 567 843 q 424 970 424 957 q 440 1000 424 983 q 467 1017 457 1017 q 533 978 476 1017 q 685 857 590 940 q 781 753 781 774 q 747 704 781 732 m 1238 300 q 1007 603 1128 472 q 994 626 994 618 q 1009 653 994 633 q 1040 674 1024 674 q 1085 647 1057 674 q 1156 569 1113 619 q 1239 469 1199 519 q 1305 381 1279 419 q 1331 330 1331 343 q 1310 295 1331 317 q 1272 274 1289 274 q 1238 300 1256 274 m 175 204 q 145 182 164 182 q 103 198 126 182 q 81 227 81 214 q 106 286 81 240 q 211 611 163 392 q 240 644 218 644 q 281 635 265 644 q 297 610 297 626 q 286 535 297 594 q 175 204 253 369 z "},"或":{"ha":1389,"x_min":94,"x_max":1325,"o":"m 1065 608 l 1064 621 l 1064 626 q 1076 643 1064 643 q 1103 632 1082 643 q 1160 571 1160 600 q 1136 514 1160 563 q 972 254 1068 376 q 1165 6 1067 96 q 1205 -26 1200 -26 q 1214 -18 1210 -26 q 1279 221 1247 67 q 1308 281 1289 281 q 1325 219 1325 281 l 1325 210 q 1306 -4 1321 89 q 1276 -121 1292 -97 q 1232 -144 1261 -144 q 1093 -58 1174 -144 q 951 122 1013 29 l 911 182 q 690 -15 814 72 q 535 -103 567 -103 q 522 -90 522 -103 q 554 -51 522 -78 q 871 254 757 108 q 706 760 771 444 l 247 735 l 215 733 q 176 743 199 733 q 138 807 154 753 q 136 816 136 810 q 143 822 136 822 q 166 818 150 822 q 210 814 182 814 l 221 814 l 692 839 q 670 1000 675 938 q 658 1079 665 1063 q 642 1110 651 1096 q 632 1131 632 1124 q 647 1142 632 1142 q 683 1138 661 1142 q 749 1090 746 1126 q 778 844 760 947 l 1069 860 q 1117 868 1101 861 q 1144 875 1133 875 q 1171 863 1154 875 q 1201 833 1188 850 q 1214 806 1214 817 q 1183 785 1214 788 l 792 764 q 928 333 846 492 q 1053 564 1004 447 q 1065 608 1065 594 m 989 917 q 840 1035 929 976 q 825 1058 825 1046 q 838 1087 825 1069 q 861 1104 850 1104 q 905 1086 872 1104 q 1003 1018 938 1068 q 1069 951 1069 968 q 1051 914 1069 933 q 1023 894 1033 894 q 989 917 1013 894 m 581 633 l 596 635 q 633 619 614 635 q 653 594 653 604 q 650 577 653 583 q 644 563 647 571 l 617 397 q 650 349 650 360 q 639 335 650 338 q 610 331 628 332 l 344 314 l 346 303 l 346 299 q 326 272 346 272 q 281 287 307 272 q 254 325 254 301 l 254 333 q 256 350 256 342 l 256 381 q 254 397 256 388 l 243 535 q 229 601 240 579 q 218 626 218 622 q 237 636 218 636 q 324 615 256 636 l 581 633 m 553 557 l 328 543 l 340 388 l 536 397 l 553 557 m 107 146 q 160 140 135 140 q 261 153 185 140 q 474 198 338 167 q 659 242 610 229 q 715 256 708 256 q 738 241 738 256 q 704 211 738 226 q 239 53 483 115 q 176 40 190 40 q 140 60 161 40 q 100 122 119 81 l 94 136 q 107 146 94 146 z "},"手":{"ha":1389,"x_min":54,"x_max":1343,"o":"m 64 433 q 132 426 92 426 l 150 426 l 690 457 q 672 647 683 569 l 400 625 q 357 622 381 622 q 315 639 333 622 q 290 674 297 656 q 282 697 282 692 q 290 701 282 701 l 296 701 q 344 697 321 697 l 663 721 q 626 901 647 824 q 279 851 428 864 l 269 851 q 240 863 240 851 q 274 883 240 875 q 917 1071 647 971 q 956 1100 944 1082 q 978 1118 968 1118 q 1003 1099 988 1118 q 1029 1058 1018 1081 q 1040 1023 1040 1036 q 1025 1004 1040 1010 q 714 921 885 958 q 753 728 736 838 l 978 746 q 1018 755 1001 749 q 1042 761 1035 761 q 1067 750 1049 761 q 1113 696 1113 718 q 1082 679 1113 682 l 763 654 q 783 461 775 557 l 1196 485 q 1240 494 1225 488 q 1264 500 1256 500 q 1292 487 1272 500 q 1327 456 1311 474 q 1343 428 1343 439 q 1306 408 1343 411 l 789 381 q 793 213 793 300 q 787 26 793 125 q 751 -103 781 -72 q 702 -135 722 -135 q 624 -109 682 -135 q 475 -22 567 -83 q 381 68 381 44 q 398 78 381 78 q 483 44 415 78 q 661 -14 551 11 l 665 -14 q 694 175 686 -14 q 696 264 696 226 l 696 325 q 694 376 696 351 l 181 349 l 139 347 q 99 356 124 347 q 56 417 75 365 q 54 426 54 419 q 64 433 54 433 z "},"打":{"ha":1389,"x_min":46,"x_max":1358,"o":"m 433 31 l 438 -28 q 422 -76 438 -58 q 388 -100 406 -93 q 358 -107 371 -107 q 310 -83 344 -107 q 239 -25 275 -60 q 153 89 153 56 q 162 96 153 96 q 218 64 171 96 q 344 4 265 32 l 346 375 q 204 311 275 339 q 122 283 133 283 q 91 301 110 283 q 59 340 72 319 q 46 365 46 360 q 59 375 46 375 q 114 383 72 375 q 347 461 156 392 l 349 726 l 206 714 q 153 711 175 711 q 124 717 131 711 q 83 779 94 744 q 82 788 82 782 q 90 793 82 793 l 94 793 q 133 790 117 790 l 158 790 q 181 792 168 790 l 349 804 l 350 1019 q 322 1100 350 1053 q 319 1106 319 1104 q 337 1115 319 1115 q 388 1104 354 1115 q 431 1082 421 1093 q 440 1056 440 1071 l 439 811 l 499 815 q 539 825 519 817 q 571 833 558 833 q 601 820 583 833 q 632 791 619 807 q 644 767 644 775 q 608 747 644 750 l 438 733 l 436 494 q 571 549 493 517 q 661 582 649 582 q 674 571 674 582 q 633 531 674 560 q 436 419 593 501 l 433 31 m 1056 -3 l 1057 -49 q 1037 -99 1057 -79 q 997 -119 1017 -119 q 946 -103 978 -119 q 875 -62 914 -87 q 801 -10 836 -37 q 742 40 765 18 q 719 74 719 63 q 733 85 719 85 q 808 53 747 85 q 965 -6 869 21 l 965 843 l 750 831 q 733 829 742 829 l 708 829 q 666 840 693 829 q 625 907 639 851 l 625 913 q 631 919 625 919 q 653 915 636 919 q 700 910 669 910 l 713 910 l 1213 942 q 1265 949 1253 944 q 1285 953 1278 953 q 1310 940 1292 953 q 1358 883 1358 907 q 1322 865 1358 868 l 1056 849 l 1056 -3 z "},"找":{"ha":1389,"x_min":51,"x_max":1342,"o":"m 865 310 q 778 625 803 458 l 621 600 q 589 597 607 597 q 526 654 558 597 l 524 663 q 536 672 524 672 l 539 672 q 551 671 546 671 l 569 671 q 608 675 583 671 l 765 700 q 745 876 754 789 q 730 1012 736 964 q 717 1076 724 1060 q 697 1103 710 1093 q 683 1117 683 1113 q 728 1126 683 1126 q 790 1111 774 1126 q 807 1083 806 1096 q 827 901 818 994 q 849 713 836 807 l 1129 756 q 1165 766 1151 760 q 1190 772 1179 772 q 1215 761 1200 772 q 1241 737 1231 750 q 1251 717 1251 724 q 1215 693 1251 697 l 861 638 q 929 374 886 492 q 1061 551 1006 458 q 1074 601 1074 572 l 1074 607 q 1085 628 1074 628 q 1110 617 1090 628 q 1167 553 1167 582 q 994 331 1167 524 q 964 297 971 304 q 1070 131 1015 199 q 1167 31 1125 64 q 1217 -3 1208 -3 q 1229 10 1225 -3 q 1294 231 1251 67 q 1326 283 1310 283 q 1342 243 1342 283 l 1342 233 q 1327 93 1342 199 q 1302 -47 1313 -12 q 1278 -95 1292 -82 q 1231 -108 1264 -108 q 1153 -81 1197 -108 q 1005 68 1074 -29 q 900 238 936 165 q 664 85 800 153 q 528 49 528 18 q 553 75 528 58 q 865 310 753 203 m 335 354 q 125 268 163 268 q 92 282 110 268 q 63 313 75 296 q 51 340 51 331 q 71 346 51 344 q 129 358 90 347 q 212 385 168 369 q 290 414 256 400 q 336 432 325 428 l 338 706 l 197 696 q 179 694 188 694 l 164 694 q 100 736 119 694 q 92 763 92 756 q 101 771 92 771 q 147 767 126 767 l 179 768 l 338 779 l 339 1014 q 318 1086 339 1060 q 313 1097 313 1092 q 325 1103 313 1103 l 340 1101 q 422 1046 422 1094 l 421 785 l 497 790 q 540 798 525 793 q 564 803 556 803 q 588 792 572 803 q 617 767 604 782 q 629 742 629 753 q 597 724 629 726 l 421 711 l 419 465 l 579 538 q 616 549 604 549 q 628 540 628 549 q 608 515 628 531 q 558 479 588 499 q 497 442 528 460 q 444 412 467 424 q 418 397 422 400 l 417 8 l 418 -33 q 392 -89 418 -72 q 352 -106 367 -106 q 300 -83 338 -106 q 203 0 263 -60 q 140 79 140 58 q 151 88 140 88 q 194 69 163 88 q 333 0 271 22 l 335 354 m 1049 817 q 896 976 981 906 q 875 1003 875 994 q 890 1028 875 1011 q 919 1044 904 1044 q 944 1036 933 1044 q 972 1011 954 1028 q 1017 971 990 994 q 1129 844 1129 871 q 1110 810 1129 828 q 1080 793 1090 793 q 1049 817 1069 793 z "},"拟":{"ha":1389,"x_min":46,"x_max":1333,"o":"m 335 22 l 338 -29 q 321 -80 338 -61 q 287 -106 304 -99 q 267 -112 269 -112 q 213 -78 243 -112 q 189 -50 207 -71 q 96 78 96 53 q 106 85 96 85 q 159 54 115 85 q 251 -1 203 24 l 253 344 q 216 313 233 329 q 181 283 199 296 q 151 261 163 269 q 119 253 139 253 q 78 274 100 253 q 51 301 57 294 q 46 313 46 308 q 66 322 46 317 q 117 344 86 328 q 178 381 149 361 q 228 416 207 400 q 254 436 249 432 l 256 714 l 185 708 q 140 706 154 706 q 106 714 126 706 q 68 771 86 722 q 67 779 67 774 q 72 785 67 785 q 88 782 78 785 q 121 779 97 779 l 156 781 l 256 788 l 257 1015 q 233 1093 257 1058 q 229 1104 229 1100 q 242 1114 229 1114 q 278 1108 254 1114 q 340 1054 340 1093 l 339 792 l 376 793 q 416 802 401 794 q 440 810 431 810 q 467 797 449 810 q 510 749 510 768 q 476 728 510 732 l 339 719 l 338 496 q 415 548 383 524 q 458 572 447 572 q 469 558 469 572 q 418 492 469 543 q 338 421 364 440 l 335 22 m 876 607 q 847 632 863 607 q 706 822 797 717 q 696 847 696 833 q 712 873 696 860 q 738 886 728 886 q 772 865 749 886 q 822 813 794 844 q 876 748 850 781 q 919 690 903 715 q 936 653 936 665 q 922 630 936 642 q 892 613 907 618 q 876 607 878 607 m 524 828 q 501 900 524 867 q 497 910 497 907 q 515 919 497 919 q 594 897 564 919 q 608 868 608 886 l 606 249 q 829 426 704 318 q 863 443 849 443 q 876 430 876 443 q 854 392 876 417 q 770 303 832 367 q 621 158 708 239 q 512 78 533 78 q 469 92 490 78 q 432 120 447 106 q 417 140 417 135 q 448 155 417 146 q 506 182 479 164 l 521 192 l 524 828 m 1049 329 q 1333 -18 1333 25 q 1310 -58 1333 -37 q 1274 -78 1286 -78 q 1244 -53 1261 -78 q 1008 257 1121 129 q 801 14 922 114 q 643 -86 679 -86 q 631 -72 631 -86 q 676 -22 631 -57 q 783 79 722 13 q 1044 581 982 299 q 1090 921 1083 757 l 1090 939 q 1083 992 1090 972 q 1075 1014 1075 1011 q 1090 1022 1075 1022 q 1138 1011 1104 1022 q 1178 989 1171 1000 q 1185 964 1185 978 l 1185 953 q 1063 361 1160 589 l 1049 329 z "},"指":{"ha":1389,"x_min":44,"x_max":1272,"o":"m 1272 782 l 1271 739 q 1243 649 1269 679 q 1151 614 1217 619 q 921 601 1028 601 q 762 608 814 601 q 682 647 710 614 q 654 757 654 679 l 654 767 l 660 1017 q 649 1074 660 1057 q 639 1096 639 1092 q 653 1107 639 1107 q 689 1100 667 1107 q 746 1054 746 1083 l 740 843 q 1029 969 913 893 q 1067 1021 1060 988 q 1083 1036 1071 1036 q 1108 1017 1096 1036 q 1140 950 1140 974 q 1125 919 1140 926 q 739 778 910 819 l 739 769 q 752 708 739 726 q 807 685 765 689 q 914 681 849 681 q 1167 707 1131 681 q 1196 754 1185 719 q 1218 852 1207 789 q 1244 915 1229 915 q 1272 782 1272 915 m 401 22 l 404 -35 q 380 -92 404 -71 q 333 -114 356 -114 q 212 -32 292 -114 q 132 79 132 50 q 141 86 132 86 q 192 57 150 86 q 315 -4 235 28 l 317 354 q 181 284 229 304 q 124 264 132 264 q 107 268 115 264 q 62 306 79 286 q 44 336 44 326 q 62 347 44 346 q 109 357 79 349 q 318 438 139 365 l 319 704 l 197 696 q 167 693 181 694 q 138 692 153 692 q 106 708 122 692 q 82 744 89 725 q 75 768 75 763 q 85 774 75 774 l 89 774 q 125 769 110 769 l 149 769 q 169 771 158 769 l 319 781 l 321 1004 q 297 1079 321 1044 q 293 1090 293 1086 q 306 1100 293 1100 q 343 1094 319 1100 q 408 1042 408 1079 l 407 786 l 469 790 q 508 800 489 792 q 536 808 528 808 q 563 797 544 808 q 610 743 610 768 q 575 724 610 728 l 406 711 l 404 476 q 529 535 479 510 q 590 561 579 561 q 601 552 601 561 q 583 521 601 543 q 404 403 564 499 l 401 22 m 1169 15 q 1207 -41 1207 -19 q 1176 -62 1207 -62 l 772 -68 l 774 -101 l 774 -108 q 753 -137 774 -137 q 701 -119 722 -137 q 679 -81 679 -100 l 681 -62 q 686 44 686 -10 l 686 71 l 675 375 q 665 460 672 443 q 656 483 658 476 q 653 494 653 489 q 672 506 653 506 q 761 471 692 506 l 1131 492 q 1138 493 1133 493 l 1144 493 q 1185 482 1167 493 q 1214 445 1214 460 q 1210 424 1214 431 q 1206 410 1207 417 l 1169 15 m 1118 417 l 760 400 l 764 246 l 1107 260 l 1118 417 m 1103 190 l 765 175 l 771 6 l 1090 14 l 1103 190 z "},"掘":{"ha":1389,"x_min":47,"x_max":1268,"o":"m 75 779 q 117 774 103 774 l 140 774 q 158 775 149 774 l 292 785 l 293 1013 q 271 1089 293 1056 q 267 1100 267 1096 q 283 1110 267 1110 q 329 1099 299 1110 q 369 1076 360 1088 q 378 1050 378 1065 l 376 790 l 432 794 q 474 804 460 797 q 497 811 488 811 q 522 800 506 811 q 567 749 567 769 q 535 728 567 732 l 376 715 l 375 496 q 497 574 471 556 q 534 593 522 593 q 546 584 546 593 q 527 553 546 575 q 375 421 508 531 l 372 17 l 374 -32 q 348 -96 374 -76 q 303 -115 322 -115 q 253 -92 285 -115 q 188 -37 221 -69 q 132 27 154 -4 q 110 69 110 58 q 117 81 110 81 q 169 52 126 81 q 288 -8 211 24 l 289 354 q 128 257 160 257 q 97 267 117 257 q 63 292 78 278 q 47 317 47 307 q 65 331 47 328 q 116 347 83 333 q 290 444 149 361 l 292 710 l 188 701 q 138 699 160 699 q 108 707 117 699 q 69 765 81 733 q 68 774 68 768 q 75 779 68 779 m 575 1025 q 592 1038 575 1038 q 681 1004 608 1038 l 1160 1036 l 1172 1036 q 1217 1019 1199 1036 q 1236 988 1236 1003 q 1232 966 1236 974 q 1225 951 1228 958 l 1194 825 q 1233 767 1233 782 q 1189 750 1233 753 l 671 721 q 666 644 669 683 q 660 565 663 606 q 536 72 635 279 q 460 -58 494 -14 q 413 -103 425 -103 q 404 -87 404 -103 q 419 -39 404 -71 q 588 850 588 315 q 581 997 588 975 q 575 1025 575 1019 m 1139 963 l 678 932 l 674 794 l 1113 819 l 1139 963 m 1176 -60 l 1186 -4 l 790 -39 q 753 -47 768 -40 q 724 -53 738 -53 q 699 -43 711 -53 q 674 -6 674 -26 q 679 20 674 1 q 688 79 685 39 l 697 179 l 699 196 q 688 245 699 231 q 678 265 678 260 q 692 269 678 269 q 725 265 706 269 q 778 225 778 254 l 778 218 l 763 36 l 925 47 l 926 335 l 825 325 q 790 317 803 324 q 769 311 776 311 q 750 317 761 311 q 717 357 717 329 q 720 380 717 365 q 728 440 724 394 l 731 514 l 731 528 q 721 574 731 561 q 711 594 711 588 q 726 601 711 601 q 760 597 740 601 q 810 557 810 583 l 810 553 l 800 393 l 926 403 l 928 622 q 913 686 928 668 q 907 700 907 693 q 920 707 907 707 q 954 703 933 707 q 1013 664 1013 694 l 1008 408 l 1142 418 l 1142 540 q 1128 608 1142 594 q 1122 620 1122 614 q 1136 626 1122 626 q 1178 619 1150 626 q 1213 602 1206 611 q 1219 576 1219 593 l 1213 315 q 1193 289 1211 289 q 1151 306 1172 289 q 1131 336 1131 324 l 1132 344 l 1135 354 l 1008 342 l 1003 53 l 1188 64 l 1189 182 q 1171 258 1189 238 q 1167 267 1167 263 q 1178 275 1167 275 q 1210 271 1189 275 q 1268 222 1268 260 l 1261 -87 q 1240 -114 1261 -114 q 1214 -104 1231 -114 q 1176 -60 1176 -82 z "},"接":{"ha":1389,"x_min":43,"x_max":1336,"o":"m 372 481 q 514 558 506 556 q 504 588 504 581 q 511 594 504 594 q 583 588 560 588 l 597 588 l 921 604 q 973 725 957 674 q 989 790 989 776 l 985 821 q 999 835 985 835 q 1042 822 1014 835 q 1089 776 1089 800 q 1053 706 1089 767 q 990 607 1017 644 l 1175 617 q 1220 624 1203 618 q 1247 629 1238 629 q 1272 617 1257 629 q 1311 563 1311 585 q 1276 547 1311 550 l 856 526 q 906 481 906 501 q 900 463 906 474 l 857 376 l 1203 392 q 1251 399 1235 394 q 1282 404 1268 404 q 1308 390 1296 404 q 1328 362 1321 376 q 1336 344 1336 347 q 1303 326 1336 329 l 1092 317 q 974 103 1044 189 q 1149 19 1064 64 q 1242 -32 1235 -25 q 1249 -46 1249 -39 q 1246 -69 1249 -53 q 1211 -114 1238 -114 q 1109 -58 1201 -114 q 919 47 1017 -3 q 542 -114 792 -71 q 474 -122 493 -122 q 454 -110 454 -122 q 497 -82 454 -94 q 842 83 729 -14 q 689 142 774 118 q 663 190 663 147 q 669 214 663 206 q 728 300 703 250 l 565 293 l 540 293 q 504 301 528 293 q 461 354 481 308 q 458 367 458 363 q 465 371 458 371 q 485 367 471 371 q 531 364 499 364 l 551 364 l 765 374 q 814 511 814 471 l 814 525 l 604 514 l 585 514 q 538 526 551 514 l 526 538 q 372 410 515 515 l 369 25 l 372 -26 q 351 -84 372 -60 q 299 -108 329 -108 q 183 -33 268 -108 q 103 68 103 42 q 115 78 103 78 q 166 53 126 78 q 285 -4 206 29 l 286 350 q 125 265 158 265 q 108 268 117 265 q 58 308 74 286 l 43 332 q 58 342 43 340 q 106 354 74 343 q 288 436 139 365 l 289 700 l 200 693 q 150 690 172 690 q 119 700 128 690 q 82 757 94 724 q 81 766 81 760 q 88 772 81 772 q 125 767 110 767 l 151 767 q 172 768 161 767 l 289 776 l 290 1003 q 267 1079 290 1044 q 263 1090 263 1086 q 279 1100 263 1100 q 326 1089 296 1100 q 366 1067 357 1078 q 375 1040 375 1056 l 374 782 l 424 785 q 463 794 443 786 q 490 803 482 803 q 515 792 497 803 q 547 767 532 782 q 561 740 561 751 q 528 719 561 722 l 374 707 l 372 481 m 831 1094 q 929 1050 929 1094 l 928 914 l 1093 924 q 1137 931 1121 926 q 1164 936 1153 936 q 1192 925 1175 936 q 1235 878 1235 897 q 1194 858 1235 861 l 671 826 q 650 825 660 825 l 633 825 q 596 835 608 825 q 576 858 594 838 q 557 891 557 878 q 564 904 557 904 l 568 904 q 585 900 571 904 q 624 896 599 896 l 844 908 l 840 1018 q 824 1065 838 1049 q 811 1088 811 1081 q 831 1094 811 1094 m 805 741 q 815 726 805 741 q 839 685 825 711 q 853 649 853 660 q 831 622 853 638 q 797 607 810 607 q 779 615 785 607 q 756 666 774 622 q 717 742 739 710 q 694 787 694 775 q 714 807 694 799 q 742 815 733 815 q 767 793 750 815 q 805 741 785 771 m 750 197 q 896 138 808 176 q 994 313 958 211 l 818 304 q 750 197 781 236 z "},"提":{"ha":1389,"x_min":42,"x_max":1361,"o":"m 289 367 q 133 269 149 269 q 71 295 100 269 q 42 331 42 321 q 58 342 42 340 q 290 454 99 347 l 292 706 l 192 697 q 142 694 164 694 q 111 703 119 694 q 74 761 86 728 q 72 770 72 764 q 79 776 72 776 q 117 771 101 771 l 143 771 q 164 772 153 771 l 292 781 l 293 1003 q 269 1079 293 1044 q 265 1093 265 1086 q 275 1100 265 1100 q 308 1094 285 1100 q 374 1040 374 1081 l 372 786 l 419 789 q 458 799 439 790 q 485 807 478 807 q 510 797 493 807 q 542 771 528 786 q 557 744 557 756 q 524 724 557 726 l 372 711 l 371 503 q 476 582 415 532 q 507 597 496 597 q 518 586 518 597 q 371 428 518 553 l 368 25 l 371 -26 q 347 -86 371 -64 q 303 -108 324 -108 q 184 -28 261 -108 q 107 81 107 51 q 116 88 107 88 q 172 56 125 88 q 288 0 219 25 l 289 367 m 1107 732 q 1135 682 1135 694 q 1125 667 1135 669 q 1101 664 1115 665 l 728 640 l 729 631 l 729 626 q 707 601 729 601 q 669 614 693 601 q 644 657 644 626 l 644 664 q 646 683 646 672 l 646 722 l 629 938 q 615 1005 628 975 q 601 1040 601 1035 q 622 1050 601 1050 q 706 1024 643 1050 l 1078 1050 l 1088 1050 q 1127 1033 1107 1050 q 1147 1003 1147 1015 q 1143 986 1147 992 q 1138 975 1139 981 l 1107 732 m 1054 974 l 704 950 l 711 868 l 1046 889 l 1054 974 m 1039 819 l 715 800 l 722 711 l 1029 729 l 1039 819 m 624 464 l 589 463 l 582 463 q 556 469 565 463 q 519 517 526 497 l 514 538 q 522 546 514 546 q 547 541 531 546 q 588 536 563 536 l 597 536 l 1169 568 q 1222 575 1210 571 q 1241 579 1233 579 q 1265 569 1249 579 q 1294 545 1281 560 q 1307 519 1307 531 q 1271 499 1307 501 l 926 481 l 924 328 l 1074 333 q 1126 340 1114 336 q 1146 344 1138 344 q 1169 333 1154 344 q 1213 283 1213 307 q 1174 263 1213 265 l 924 253 l 921 89 q 1332 -15 1108 19 q 1361 -31 1361 -19 q 1351 -50 1361 -33 q 1299 -100 1324 -100 q 1175 -72 1275 -100 q 640 138 851 14 q 549 4 597 61 q 462 -84 500 -53 q 411 -115 424 -115 q 399 -107 399 -115 q 435 -51 399 -93 q 513 60 472 -8 q 594 222 554 129 q 635 365 635 315 l 635 375 l 632 392 l 632 397 q 644 413 632 413 q 678 400 657 413 q 735 349 735 369 q 676 203 735 319 q 842 119 764 156 l 844 476 l 624 464 z "},"摇":{"ha":1389,"x_min":43,"x_max":1340,"o":"m 588 278 l 557 276 q 513 287 535 276 q 476 350 490 297 q 474 359 474 356 q 482 363 474 363 l 488 363 q 560 354 524 354 l 575 354 l 835 365 l 835 532 l 689 524 q 586 419 625 450 q 538 389 547 389 q 529 398 529 389 q 570 463 529 407 q 653 604 611 519 q 663 651 663 626 q 674 676 663 676 q 697 667 678 676 q 753 617 753 642 q 746 601 753 615 l 1075 619 q 1138 627 1114 621 q 1170 633 1161 633 q 1194 624 1179 633 q 1233 578 1233 600 q 1203 553 1233 556 l 921 538 l 921 369 l 1181 381 q 1242 389 1219 382 q 1271 396 1265 396 q 1293 388 1276 396 q 1340 338 1340 367 q 1308 313 1340 315 l 921 294 l 919 36 l 1117 47 l 1117 147 q 1099 226 1117 200 q 1094 238 1094 233 q 1106 247 1094 247 q 1140 242 1118 247 q 1200 188 1200 226 l 1194 -101 q 1171 -133 1194 -133 q 1130 -115 1154 -133 q 1106 -79 1106 -97 l 1114 -25 l 685 -56 q 645 -62 660 -57 q 621 -68 631 -68 q 592 -56 611 -68 q 574 -26 574 -44 q 575 -17 574 -22 q 581 3 576 -12 q 585 33 585 19 q 588 68 586 47 l 592 133 l 592 144 q 580 196 592 175 q 568 223 568 217 q 581 229 568 229 q 615 225 593 229 q 678 175 678 211 l 678 172 l 665 22 l 833 32 l 835 290 l 588 278 m 665 803 q 671 794 665 803 q 695 761 678 786 q 713 724 713 736 q 694 697 713 711 q 664 682 676 682 q 634 710 651 682 q 604 757 617 738 q 574 794 592 776 q 556 822 556 813 q 568 847 556 832 q 594 863 581 863 q 629 841 607 863 q 665 803 651 819 m 810 879 q 838 889 825 889 q 901 809 860 889 q 942 713 942 729 q 915 679 942 696 q 889 671 899 671 q 860 703 869 671 q 815 811 839 774 q 790 860 790 849 q 810 879 790 871 m 1114 936 q 1125 954 1114 954 q 1154 944 1132 954 q 1215 883 1215 915 q 1213 874 1215 879 q 1115 744 1165 797 q 1028 663 1065 690 q 982 636 990 636 q 974 647 974 636 q 993 682 974 657 q 1101 871 1069 782 q 1114 931 1114 896 l 1114 936 m 75 774 q 117 768 103 768 l 140 768 q 158 769 149 768 l 292 779 l 293 1017 q 271 1093 293 1060 q 267 1104 267 1100 q 283 1114 267 1114 q 329 1103 299 1114 q 369 1081 360 1092 q 378 1054 378 1069 l 376 785 l 403 786 q 444 796 431 789 q 467 803 458 803 q 493 790 476 803 q 538 740 538 761 q 506 719 538 724 l 376 710 l 375 482 q 481 544 442 521 q 533 568 521 568 q 544 560 544 568 q 527 532 544 551 q 375 411 510 513 l 372 24 l 374 -25 q 348 -89 374 -69 q 303 -108 322 -108 q 253 -85 285 -108 q 188 -30 221 -62 q 132 34 154 3 q 110 76 110 65 q 118 88 110 88 q 170 58 126 88 q 288 -1 214 29 l 289 353 q 232 317 265 338 q 124 263 150 263 q 92 274 111 263 q 58 301 72 286 q 43 326 43 317 q 57 338 43 336 q 97 348 71 340 q 290 438 122 356 l 292 704 l 188 696 q 138 693 160 693 q 108 701 117 693 q 69 760 81 728 q 68 768 68 763 q 75 774 68 774 m 557 881 q 511 893 511 881 q 567 918 511 910 q 1068 1072 804 957 q 1102 1100 1090 1083 q 1126 1117 1114 1117 q 1152 1097 1138 1117 q 1177 1053 1167 1076 q 1188 1021 1188 1031 q 1175 1006 1188 1011 q 572 881 840 900 l 557 881 z "},"文":{"ha":1389,"x_min":76,"x_max":1329,"o":"m 135 822 q 207 815 169 815 l 225 815 l 643 840 l 642 1014 q 631 1062 642 1046 q 619 1088 619 1078 q 645 1097 619 1097 q 703 1086 671 1097 q 736 1057 736 1075 l 735 846 l 1131 869 q 1191 878 1176 874 q 1218 882 1206 882 q 1249 869 1231 882 q 1281 840 1268 856 q 1294 817 1294 825 q 1268 794 1294 797 l 1014 779 q 901 540 969 661 q 758 325 832 418 q 1310 -36 1013 83 q 1329 -51 1329 -43 q 1315 -76 1329 -58 q 1246 -122 1278 -122 q 1233 -119 1239 -122 q 700 258 943 18 q 326 -19 539 90 q 175 -88 238 -65 q 94 -111 113 -111 q 76 -101 76 -111 q 103 -75 76 -89 q 492 181 319 42 q 639 321 578 251 q 376 743 507 474 l 257 736 q 210 733 232 733 q 171 740 188 733 q 131 792 149 751 q 126 803 128 799 q 124 813 124 807 q 135 822 124 822 m 469 749 q 696 389 578 524 q 901 774 829 563 l 469 749 z "},"方":{"ha":1389,"x_min":90,"x_max":1314,"o":"m 110 792 q 182 785 144 785 l 200 785 l 644 811 l 643 1003 q 632 1051 643 1035 q 621 1074 621 1067 q 635 1085 621 1085 q 672 1082 650 1085 q 735 1050 735 1074 l 733 817 l 1150 842 q 1211 850 1197 846 q 1233 854 1225 854 q 1261 844 1242 854 q 1314 789 1314 815 q 1288 768 1314 771 l 682 733 q 639 553 669 660 l 982 572 l 992 572 q 1044 557 1022 572 q 1067 526 1067 542 q 1062 499 1067 510 q 1056 482 1057 489 q 947 -33 1025 174 q 905 -94 933 -68 q 855 -121 876 -121 q 778 -94 833 -121 q 634 3 724 -67 q 544 96 544 74 q 558 103 544 103 q 648 65 572 103 q 826 -4 724 28 q 836 -6 829 -6 q 844 0 843 -6 q 922 239 897 111 q 957 489 946 367 l 611 471 q 386 97 535 256 q 161 -83 268 -29 q 105 -104 119 -104 q 90 -94 90 -104 q 117 -61 90 -79 q 365 191 247 35 q 533 519 483 347 q 581 728 563 622 l 232 707 q 185 704 207 704 q 141 715 163 704 q 100 774 119 725 q 99 782 99 776 q 110 792 99 792 z "},"无":{"ha":1389,"x_min":36,"x_max":1293,"o":"m 392 922 l 350 921 l 336 921 q 285 951 303 925 q 267 990 267 976 q 276 1004 267 1004 q 295 1000 281 1004 q 346 996 310 996 l 364 996 l 963 1031 q 1014 1040 1000 1033 q 1038 1046 1028 1046 q 1067 1032 1049 1046 q 1100 1001 1086 1018 q 1114 975 1114 983 q 1078 960 1114 963 l 706 939 q 683 654 703 775 l 1097 675 q 1153 684 1140 679 q 1176 689 1167 689 q 1204 675 1185 689 q 1253 619 1253 640 q 1218 600 1253 603 l 668 572 q 504 194 618 336 q 222 -32 390 53 q 108 -82 154 -67 q 54 -97 61 -97 q 36 -85 36 -97 q 71 -51 36 -69 q 456 275 332 81 q 574 568 538 403 l 254 551 q 231 550 242 550 l 213 550 q 169 559 194 550 q 126 617 144 568 q 124 628 124 625 q 135 638 124 638 q 153 634 140 638 q 200 631 167 631 l 221 631 l 590 649 q 613 935 610 767 l 392 922 m 796 85 q 840 21 796 33 q 985 8 883 8 q 1121 15 1086 8 q 1172 33 1156 22 q 1202 80 1188 44 q 1244 292 1217 115 q 1268 351 1253 351 q 1293 175 1293 351 q 1283 41 1293 92 q 1240 -36 1272 -10 q 1147 -72 1208 -62 q 1006 -82 1085 -82 q 879 -79 928 -82 q 792 -64 831 -76 q 707 65 707 -35 l 707 72 l 718 464 q 707 517 718 503 q 696 538 696 531 q 713 549 696 549 q 761 540 731 549 q 799 524 792 532 q 807 497 807 515 l 796 89 l 796 85 z "},"昆":{"ha":1389,"x_min":154,"x_max":1314,"o":"m 1036 657 q 1074 602 1074 617 q 1062 585 1074 588 q 1035 582 1050 583 l 436 551 l 438 531 l 438 525 q 418 499 438 499 q 365 519 388 499 q 343 551 343 539 l 343 557 q 346 592 346 579 l 346 613 q 344 628 346 619 l 322 932 q 306 992 319 968 q 292 1022 292 1015 q 314 1035 292 1035 q 406 1007 336 1035 l 1003 1038 l 1011 1038 q 1054 1023 1033 1038 q 1075 997 1075 1008 q 1072 978 1075 985 q 1067 964 1068 971 l 1036 657 m 979 964 l 407 932 l 415 817 l 971 846 l 979 964 m 965 776 l 421 747 l 431 625 l 956 653 l 965 776 m 860 7 q 959 0 874 0 q 1179 14 1044 0 q 1212 24 1199 17 q 1239 73 1225 32 q 1265 188 1253 114 q 1296 263 1278 263 q 1314 182 1314 263 q 1310 44 1314 101 q 1285 -39 1306 -12 q 1211 -71 1264 -65 q 1017 -82 1103 -82 q 844 -76 931 -82 q 768 -40 793 -74 q 743 43 743 -6 l 747 472 q 738 519 747 504 q 728 539 728 533 q 739 544 728 544 l 753 542 q 813 524 792 538 q 833 497 833 511 l 829 283 q 1101 415 1057 353 q 1122 432 1113 432 q 1147 401 1132 432 q 1163 348 1163 371 q 1144 317 1163 325 q 828 211 996 251 l 825 68 l 825 63 q 860 7 825 13 m 185 -7 l 214 -7 q 322 14 239 -7 l 319 417 q 307 473 319 456 q 294 498 294 490 q 306 506 294 506 q 340 501 318 506 q 404 457 404 489 l 404 321 l 556 328 q 601 336 585 329 q 625 343 617 343 q 647 332 633 343 q 685 278 685 304 q 653 253 685 256 l 404 240 l 404 32 q 595 85 535 65 q 676 106 656 106 q 697 94 697 106 q 597 26 697 72 q 376 -60 496 -19 q 231 -100 256 -100 q 190 -81 207 -100 q 163 -40 172 -61 q 154 -15 154 -19 q 169 -6 154 -6 l 174 -6 q 185 -7 179 -7 z "},"未":{"ha":1389,"x_min":53,"x_max":1354,"o":"m 299 863 q 353 857 321 857 l 632 871 l 632 1068 q 619 1121 632 1103 q 607 1147 607 1139 q 624 1154 607 1154 q 675 1144 642 1154 q 722 1103 722 1133 l 722 875 l 950 889 q 985 897 968 890 q 1011 903 1001 903 q 1039 891 1021 903 q 1071 863 1057 879 q 1085 836 1085 847 q 1054 815 1085 818 l 722 794 l 722 599 l 1090 615 q 1136 624 1119 618 q 1162 631 1153 631 q 1189 617 1171 631 q 1238 563 1238 583 q 1200 542 1238 544 l 767 522 q 1107 221 928 333 q 1332 96 1204 160 q 1354 72 1354 86 q 1303 25 1354 54 q 1277 15 1283 15 q 1265 18 1271 15 q 881 292 1019 161 q 721 467 797 368 l 721 -103 q 694 -140 721 -140 q 633 -111 667 -140 q 621 -83 621 -100 q 632 13 632 -6 l 632 446 q 206 64 458 197 q 109 18 146 32 q 68 4 72 4 q 53 15 53 4 q 81 47 53 29 q 342 246 217 136 q 583 514 468 356 l 261 499 l 219 497 q 178 508 190 497 q 135 572 135 547 q 144 581 135 581 q 213 574 172 574 l 231 574 l 632 593 l 632 790 l 408 778 l 369 776 q 331 786 351 776 q 292 846 310 796 q 290 856 290 849 q 299 863 290 863 z "},"本":{"ha":1389,"x_min":42,"x_max":1376,"o":"m 433 224 l 457 225 l 644 232 l 644 656 q 455 387 553 497 q 271 208 357 276 q 126 108 185 139 q 54 76 67 76 q 42 87 42 76 q 64 115 42 97 q 428 478 254 256 q 599 735 519 594 l 301 718 q 278 717 289 717 l 260 717 q 218 725 244 717 q 174 781 192 733 q 171 792 171 789 q 182 801 171 801 q 200 798 188 801 q 247 794 213 794 l 268 794 l 644 815 l 644 1058 q 632 1111 644 1093 q 619 1135 619 1129 q 636 1144 619 1144 l 650 1142 q 713 1124 693 1138 q 732 1093 732 1110 l 732 821 l 1075 840 q 1132 849 1119 844 q 1153 854 1144 854 q 1182 840 1163 854 q 1216 810 1201 826 q 1231 786 1231 794 q 1196 768 1231 771 l 768 744 q 1040 428 897 574 q 1357 192 1182 282 q 1376 175 1376 181 q 1349 147 1376 169 q 1306 124 1322 124 q 1271 135 1289 124 q 974 374 1106 243 q 732 678 843 504 l 732 236 l 882 242 q 935 251 917 244 q 965 257 953 257 q 994 245 976 257 q 1022 218 1011 233 q 1032 194 1032 203 q 996 169 1032 172 l 732 158 l 732 -101 q 704 -139 732 -139 q 644 -110 676 -139 q 633 -87 633 -99 q 639 -51 633 -76 q 644 14 644 -26 l 644 154 l 476 147 l 451 147 q 401 160 414 147 q 369 218 378 183 q 368 226 368 221 q 373 232 368 232 q 393 228 378 232 q 433 224 408 224 z "},"杆":{"ha":1389,"x_min":53,"x_max":1367,"o":"m 106 767 q 164 760 140 760 l 181 760 l 346 772 l 349 1026 q 336 1074 349 1054 q 324 1099 324 1094 q 341 1111 324 1111 q 388 1100 358 1111 q 425 1080 418 1089 q 432 1056 432 1071 l 429 779 l 529 788 q 571 794 558 790 q 592 799 583 799 q 618 788 601 799 q 647 763 635 778 q 660 739 660 749 q 628 717 660 719 l 428 701 l 426 606 q 450 614 439 614 q 475 601 461 614 q 567 506 528 551 q 633 417 633 433 q 622 389 633 400 q 579 365 596 365 q 550 383 563 365 q 426 543 486 481 l 418 -97 q 393 -132 418 -132 q 375 -127 392 -132 q 342 -110 358 -122 q 325 -81 325 -97 q 331 -38 325 -64 q 338 28 338 -12 l 338 58 q 344 528 338 382 l 347 556 q 297 444 332 504 q 210 308 261 385 q 64 140 97 140 q 53 156 53 140 q 69 197 53 172 q 324 693 214 414 l 208 683 q 167 681 186 681 q 136 689 149 681 q 103 735 110 713 q 96 760 96 758 q 106 767 96 767 m 929 508 l 721 499 l 694 499 q 632 511 644 499 q 597 582 597 546 q 601 590 597 590 q 617 584 604 590 q 660 578 629 578 l 682 578 l 929 589 l 929 915 l 782 907 q 767 906 775 906 l 753 906 q 693 919 707 906 q 658 981 664 949 l 658 986 q 663 994 658 994 q 682 989 668 994 q 729 983 696 983 l 743 983 l 1131 1007 q 1188 1016 1175 1011 q 1208 1021 1201 1021 q 1232 1008 1214 1021 q 1265 979 1250 996 q 1279 952 1279 963 q 1269 939 1279 942 q 1247 935 1260 936 l 1018 921 l 1019 593 l 1219 603 q 1272 610 1253 604 q 1297 617 1290 617 q 1319 604 1303 617 q 1367 546 1367 569 q 1336 528 1367 531 l 1019 513 l 1021 -99 q 1001 -137 1021 -137 q 975 -131 996 -137 q 917 -76 917 -108 q 924 -36 917 -68 q 931 46 931 -4 l 929 508 z "},"来":{"ha":1389,"x_min":47,"x_max":1346,"o":"m 214 921 q 267 914 256 914 l 638 938 l 638 1064 q 628 1114 638 1096 q 618 1139 618 1132 q 631 1150 618 1150 q 682 1139 660 1150 q 717 1121 708 1129 q 725 1096 725 1113 l 724 943 l 1022 961 q 1074 969 1064 965 q 1095 972 1085 972 q 1122 962 1106 972 q 1152 937 1139 951 q 1165 911 1165 922 q 1132 892 1165 894 l 724 867 l 722 522 l 1118 542 q 1170 549 1160 546 q 1190 553 1181 553 q 1217 542 1199 553 q 1261 490 1261 515 q 1228 471 1261 474 l 747 447 q 1100 161 914 275 q 1324 38 1201 99 q 1346 17 1346 28 q 1319 -17 1346 6 q 1281 -39 1292 -39 q 1201 -3 1269 -39 q 1003 128 1132 32 q 721 371 839 244 l 718 -117 q 694 -151 718 -151 q 650 -136 676 -151 q 624 -94 624 -121 q 632 0 632 -36 l 633 358 q 258 22 461 139 q 125 -45 178 -25 q 60 -65 72 -65 q 47 -57 47 -65 q 89 -15 47 -40 q 350 176 218 63 q 594 439 482 290 l 250 422 l 208 421 q 176 428 182 421 q 140 497 140 469 q 147 503 140 503 q 200 496 189 496 l 635 518 l 636 861 l 317 842 q 293 840 306 840 l 269 840 q 231 860 249 840 q 206 915 206 890 q 214 921 206 921 m 1031 744 q 894 617 983 688 q 775 547 806 547 q 765 557 765 547 q 786 588 765 567 q 965 844 946 753 q 983 864 969 864 q 1009 851 992 864 q 1040 819 1026 838 q 1054 785 1054 800 q 1031 744 1054 771 m 483 575 q 326 742 408 671 q 314 767 314 754 q 331 795 314 781 q 358 810 349 810 q 390 792 367 810 q 443 747 414 774 q 499 690 472 719 q 544 638 526 661 q 563 605 563 614 q 544 576 563 596 q 513 556 526 556 q 483 575 499 556 z "},"标":{"ha":1389,"x_min":53,"x_max":1335,"o":"m 389 -99 q 363 -132 389 -132 q 344 -128 361 -132 q 299 -76 299 -112 q 305 -44 299 -69 q 311 25 311 -19 l 313 64 q 313 164 313 103 q 315 291 314 225 q 317 415 315 357 q 319 501 319 472 l 321 521 q 150 217 281 381 q 61 131 82 131 q 53 145 53 131 q 68 181 53 160 q 299 660 199 365 l 196 651 q 156 649 174 649 q 126 656 138 649 q 86 711 99 679 q 85 719 85 714 q 96 729 85 729 l 103 729 q 150 725 128 725 l 167 725 l 319 736 l 322 1015 q 310 1058 322 1040 q 299 1083 299 1076 q 315 1094 299 1094 q 360 1084 331 1094 q 396 1065 389 1074 q 403 1040 403 1056 l 399 743 l 457 747 q 501 755 492 751 q 519 758 510 758 q 556 739 528 758 q 583 701 583 719 q 554 681 583 683 l 399 668 l 397 547 q 420 557 408 557 q 458 531 432 557 q 561 404 522 465 q 572 376 572 392 q 550 349 572 361 q 515 336 528 336 q 488 360 503 336 q 396 489 443 436 l 389 -99 m 678 442 q 725 464 676 488 q 765 431 743 453 q 774 383 786 410 q 640 165 706 246 q 531 47 575 83 q 474 7 486 10 q 463 17 463 4 q 500 85 461 32 q 609 256 539 139 q 678 433 679 372 l 678 442 m 1293 64 q 1256 56 1274 50 q 1232 86 1239 63 q 1039 411 1151 246 q 1060 461 1019 436 q 1083 465 1072 469 q 1153 382 1094 461 q 1306 135 1213 303 q 1293 64 1331 88 m 721 893 l 692 893 q 629 942 651 893 q 618 969 618 961 q 625 976 618 976 q 646 971 632 976 q 694 965 660 965 l 706 965 l 1065 990 q 1124 1001 1113 996 q 1144 1006 1136 1006 q 1169 994 1153 1006 q 1217 939 1217 960 q 1188 924 1217 928 q 721 893 729 893 m 964 -22 l 965 -64 q 951 -110 965 -86 q 914 -133 936 -133 q 849 -109 892 -133 q 751 -38 806 -85 q 697 25 697 8 q 714 33 697 33 q 782 9 731 33 q 878 -28 833 -15 l 875 406 l 874 482 l 874 572 l 647 560 q 629 558 638 558 l 613 558 q 565 569 579 558 q 528 633 528 610 q 534 642 528 642 q 556 637 540 642 q 603 632 572 632 l 614 632 l 1185 664 q 1239 672 1225 665 q 1263 679 1253 679 q 1292 667 1274 679 q 1322 639 1310 654 q 1335 615 1335 624 q 1307 596 1335 599 l 960 576 l 960 410 l 964 -22 z "},"格":{"ha":1389,"x_min":53,"x_max":1364,"o":"m 1096 332 l 1110 333 q 1153 317 1129 333 q 1176 286 1176 300 q 1172 265 1176 272 q 1165 253 1167 258 l 1136 11 q 1172 -47 1172 -35 q 1160 -61 1172 -60 q 1128 -64 1147 -62 l 776 -75 l 778 -100 l 778 -106 q 754 -135 778 -135 q 712 -121 738 -135 q 686 -81 686 -107 l 686 -71 q 688 -47 688 -58 l 688 -8 q 686 11 688 1 l 668 243 q 664 274 667 265 q 646 313 661 282 q 503 228 553 250 q 440 207 453 207 q 426 214 426 207 q 464 254 426 229 q 857 588 697 415 q 721 753 761 694 q 601 633 653 672 q 538 593 550 593 q 526 605 526 593 q 564 659 526 617 q 651 775 601 701 q 804 1060 758 929 q 810 1098 810 1074 q 824 1122 810 1122 q 858 1114 839 1122 q 913 1068 913 1092 q 844 932 913 1042 l 1085 953 q 1097 954 1092 954 l 1106 954 q 1145 938 1121 954 q 1169 906 1169 922 q 1160 881 1169 889 q 1149 867 1151 874 q 967 589 1097 746 q 1340 350 1140 431 q 1364 329 1364 340 q 1351 308 1364 322 q 1294 271 1319 271 q 1251 290 1289 271 q 1158 343 1214 308 q 913 532 1019 431 q 675 332 796 415 q 750 311 689 331 l 1096 332 m 139 774 l 307 785 l 310 1025 q 299 1075 310 1057 q 288 1099 288 1093 q 304 1110 288 1110 q 350 1099 321 1110 q 385 1079 379 1088 q 392 1056 392 1071 l 389 792 l 456 796 q 499 803 490 800 q 517 807 508 807 q 541 797 525 807 q 569 774 557 788 q 582 749 582 760 q 553 729 582 732 l 388 717 l 386 621 q 406 626 396 626 q 492 544 426 626 q 557 449 557 467 q 544 422 557 432 q 517 407 531 413 q 501 401 503 401 q 472 429 488 401 q 386 556 439 489 l 378 -97 q 353 -131 378 -131 q 335 -126 351 -131 q 303 -108 319 -121 q 288 -78 288 -94 q 293 -41 288 -61 q 299 21 299 -21 l 300 61 l 303 435 q 307 528 303 469 l 308 549 q 153 236 268 403 q 61 142 86 142 q 53 153 53 142 q 65 186 53 164 q 294 710 197 399 l 192 701 q 144 699 167 699 q 107 717 122 699 q 86 753 92 735 l 79 771 q 89 779 79 779 l 139 774 m 794 853 l 768 815 q 910 644 835 722 q 1053 874 1008 768 l 794 853 m 1075 256 l 753 238 l 771 1 l 1056 13 l 1075 256 z "},"泉":{"ha":1389,"x_min":67,"x_max":1343,"o":"m 1008 981 l 1024 982 q 1065 965 1044 982 q 1086 938 1086 949 q 1083 920 1086 926 q 1078 907 1079 914 l 1040 631 q 1074 576 1074 589 q 1063 563 1074 564 q 1036 560 1053 561 l 438 532 l 439 511 l 439 507 q 415 476 439 476 q 394 483 411 476 q 363 501 378 489 q 347 531 347 514 l 347 538 l 349 563 q 346 597 349 578 l 321 858 q 304 922 317 900 q 292 953 292 943 q 311 963 292 963 q 400 939 331 963 l 522 947 q 656 1121 656 1075 q 672 1146 658 1146 q 697 1139 678 1146 q 756 1093 756 1117 q 629 954 756 1069 l 1008 981 m 986 907 l 404 869 l 414 772 l 975 803 l 986 907 m 968 736 l 421 706 l 431 600 l 957 625 l 968 736 m 746 -19 l 747 -58 q 725 -114 747 -96 q 685 -132 703 -132 q 623 -108 667 -132 q 511 -29 579 -85 q 443 42 443 26 q 456 51 443 51 q 523 27 469 51 q 658 -24 576 3 l 657 426 q 644 481 657 458 q 631 510 631 503 q 649 521 631 521 q 699 509 667 521 q 738 489 731 497 q 744 464 744 481 l 744 388 q 792 336 768 361 l 839 290 q 1029 428 951 356 q 1056 479 1049 444 q 1071 501 1063 501 q 1096 488 1079 501 q 1142 424 1142 450 q 926 257 1142 389 q 899 240 901 242 q 1087 126 988 171 q 1314 40 1186 81 q 1343 21 1343 32 q 1333 1 1343 18 q 1281 -44 1304 -44 q 1244 -33 1279 -44 q 1025 64 1143 -1 q 744 283 864 151 l 746 -19 m 506 394 l 524 396 q 588 361 568 396 q 594 341 594 350 q 585 323 594 332 q 571 307 575 314 q 318 43 469 142 q 117 -56 206 -31 q 82 -64 83 -64 q 67 -54 67 -64 q 100 -22 67 -39 q 317 126 219 39 q 474 314 414 214 l 299 300 q 278 299 288 299 l 258 299 q 224 306 232 299 q 176 381 176 344 q 185 388 176 388 q 209 383 193 388 q 254 379 225 379 l 506 394 z "},"法":{"ha":1389,"x_min":81,"x_max":1339,"o":"m 599 806 l 822 818 l 822 1014 q 806 1063 822 1044 q 790 1091 790 1082 q 812 1100 790 1100 q 865 1089 833 1100 q 905 1069 897 1078 q 913 1042 913 1060 l 913 824 l 1068 833 q 1122 843 1110 838 q 1140 849 1133 849 q 1164 836 1146 849 q 1215 779 1215 803 q 1182 761 1215 764 l 911 744 l 911 525 l 1192 540 q 1246 549 1235 544 q 1263 554 1257 554 q 1286 543 1268 554 q 1339 485 1339 513 q 1306 465 1339 468 l 894 443 q 669 43 783 228 q 1090 118 868 69 q 956 282 1025 203 q 944 304 944 296 q 961 331 944 313 q 992 349 978 349 q 1049 305 1006 349 q 1183 148 1093 261 q 1295 2 1272 35 q 1318 -44 1318 -31 q 1299 -76 1318 -57 q 1260 -94 1281 -94 q 1222 -67 1240 -94 q 1138 56 1176 6 q 723 -34 881 -7 q 531 -61 565 -61 q 480 -42 497 -61 q 455 -1 463 -22 q 447 22 447 19 q 458 31 447 31 l 465 31 q 507 26 490 26 l 531 26 q 547 28 539 26 l 564 29 q 782 438 674 206 l 565 426 q 542 425 551 425 l 524 425 q 489 433 500 425 q 443 503 443 472 q 453 510 443 510 l 511 503 l 822 519 l 822 739 l 654 729 q 631 728 640 728 l 613 728 q 535 792 560 728 q 531 806 531 800 q 540 813 531 813 l 599 806 m 446 874 q 463 842 463 860 q 440 807 463 824 q 410 790 418 790 q 375 819 401 790 q 217 969 300 903 q 200 996 200 985 q 213 1023 200 1007 q 239 1039 226 1039 q 446 874 271 1039 m 100 672 q 81 696 81 683 q 92 727 81 708 q 115 746 104 746 q 155 728 126 746 q 219 684 183 710 q 286 634 254 658 q 338 594 318 610 q 357 569 357 579 q 349 546 357 560 q 331 521 342 532 q 311 510 321 510 q 242 563 301 510 q 100 672 183 615 m 168 -40 q 111 -17 135 -36 q 88 7 88 1 q 108 26 88 13 q 151 68 129 39 q 385 413 307 276 q 424 453 408 453 q 433 433 433 453 q 374 273 433 394 q 264 71 314 151 q 203 -25 214 -10 q 172 -40 192 -40 l 168 -40 z "},"深":{"ha":1389,"x_min":72,"x_max":1353,"o":"m 1119 599 q 901 810 1046 692 q 882 839 881 826 q 903 866 883 851 q 941 877 924 881 q 1082 763 958 874 q 1203 626 1206 651 q 1194 608 1203 622 q 1172 581 1186 593 q 1150 572 1158 569 q 1119 599 1142 574 m 776 821 q 772 807 775 811 q 488 557 661 653 q 456 540 457 540 q 431 547 435 535 q 451 576 428 558 q 661 807 592 699 q 672 861 675 826 q 719 869 669 888 q 776 821 768 851 m 163 -46 q 104 -24 128 -42 q 81 0 81 -7 q 103 22 81 7 q 143 63 126 36 q 368 425 271 244 q 407 465 390 465 q 418 444 418 465 q 360 290 418 424 q 254 71 301 156 q 196 -30 207 -14 q 167 -46 185 -46 l 163 -46 m 778 681 q 864 636 864 681 l 864 483 l 1083 494 q 1136 503 1119 497 q 1164 508 1153 508 q 1191 496 1175 508 q 1219 468 1207 483 q 1231 444 1231 453 q 1208 425 1231 428 l 917 411 q 1331 94 1119 208 q 1353 74 1353 82 q 1342 50 1353 65 q 1285 13 1310 13 q 1238 37 1276 13 q 1139 108 1199 61 q 864 371 988 228 l 865 -97 q 839 -135 865 -135 q 799 -123 825 -135 q 774 -86 774 -111 l 774 -79 q 778 -58 774 -75 q 782 49 782 -40 l 783 365 q 613 151 715 246 q 406 1 511 57 q 374 -10 388 -10 q 361 -1 361 -10 q 390 36 361 13 q 722 401 588 194 l 583 394 q 535 392 556 392 q 498 408 515 392 q 472 444 481 425 q 464 471 464 464 q 472 478 464 478 q 493 473 479 478 q 536 468 507 468 l 553 468 l 783 479 l 783 588 q 772 647 783 629 q 761 673 761 665 q 778 681 761 681 m 272 529 q 92 669 194 603 q 72 694 72 682 q 85 724 72 707 q 111 742 97 742 q 205 687 125 742 q 316 608 285 632 q 347 573 347 583 q 340 549 347 563 q 322 524 332 535 q 301 513 311 513 q 272 529 292 513 m 333 843 q 197 978 256 928 q 181 1006 181 994 q 193 1033 181 1017 q 217 1049 206 1049 q 268 1020 228 1049 q 365 937 308 992 q 421 867 421 882 q 414 849 421 863 q 396 825 407 836 q 373 814 385 814 q 333 843 361 814 m 556 1096 q 617 1064 617 1096 q 615 1050 617 1056 l 607 1013 l 1204 1050 q 1213 1051 1208 1051 l 1219 1051 q 1265 1032 1247 1051 q 1282 999 1282 1013 q 1274 979 1282 986 q 1250 951 1265 972 q 1182 869 1235 931 q 1101 807 1129 807 q 1090 821 1090 807 q 1113 869 1090 835 q 1165 968 1135 904 l 585 933 q 500 738 532 738 q 481 742 496 738 q 439 778 439 754 q 453 816 439 790 q 494 915 467 842 q 531 1035 522 989 q 544 1089 539 1082 q 556 1096 549 1096 z "},"源":{"ha":1389,"x_min":64,"x_max":1321,"o":"m 344 833 q 206 972 281 910 q 186 1000 186 989 q 200 1028 186 1011 q 227 1044 214 1044 q 264 1028 240 1044 q 317 988 288 1013 q 375 935 347 963 q 421 887 403 908 q 439 853 439 865 q 419 819 439 840 q 388 797 399 797 q 344 833 376 797 m 611 922 q 590 516 611 658 q 533 266 569 374 q 455 79 497 158 q 376 -44 413 0 q 321 -87 340 -87 q 313 -75 313 -87 q 329 -36 313 -62 q 519 644 494 239 q 525 840 525 751 l 525 897 q 506 1011 521 976 q 504 1021 504 1017 q 519 1031 504 1031 q 611 997 535 1031 l 1121 1032 q 1166 1038 1149 1033 q 1195 1043 1183 1043 q 1224 1031 1207 1043 q 1253 1003 1242 1018 q 1265 982 1265 989 q 1225 961 1265 964 l 611 922 m 713 342 q 717 386 717 379 l 717 400 q 715 411 717 406 l 694 656 q 679 727 692 703 q 667 758 667 751 q 683 765 667 765 q 769 742 699 765 l 829 746 q 878 853 865 807 q 892 908 892 899 l 892 917 q 903 933 892 933 q 936 924 915 933 q 986 878 986 899 q 917 751 986 858 l 1126 765 l 1142 767 q 1176 753 1156 767 q 1197 725 1197 739 q 1193 704 1197 711 q 1188 690 1189 697 l 1154 426 q 1189 374 1189 386 q 1178 360 1189 363 q 1147 357 1167 358 l 982 349 l 986 -14 l 989 -64 q 967 -110 989 -96 q 928 -124 946 -124 q 857 -90 910 -124 q 767 -19 804 -57 q 729 28 729 18 q 740 38 729 38 q 797 14 751 38 q 903 -24 843 -10 l 900 343 l 796 338 l 797 324 l 797 317 q 778 290 797 290 q 738 304 763 290 q 713 342 713 318 m 168 731 q 333 613 310 639 q 357 575 357 588 q 343 540 357 563 q 315 517 329 517 q 249 565 300 517 q 154 643 199 613 q 102 679 110 674 q 94 694 94 685 q 108 723 94 704 q 135 742 121 742 q 168 731 150 742 m 1101 692 l 771 671 l 778 579 l 1092 597 l 1101 692 m 1086 531 l 783 514 l 790 407 l 1075 424 l 1086 531 m 151 -26 q 126 -19 149 -25 q 64 21 64 -1 q 90 45 64 26 q 139 97 117 64 q 336 431 219 213 q 374 469 357 469 q 385 453 385 469 q 354 346 385 438 q 204 19 324 254 q 184 -15 194 -3 q 158 -26 174 -26 l 151 -26 m 1267 -3 q 1238 24 1256 -3 q 1085 232 1168 136 q 1069 263 1069 250 q 1088 288 1069 275 q 1116 301 1107 301 q 1149 278 1125 301 q 1201 220 1172 256 q 1258 149 1231 185 q 1303 85 1285 113 q 1321 47 1321 58 q 1309 24 1321 36 q 1284 4 1297 11 q 1267 -3 1271 -3 m 701 275 q 711 289 701 289 q 742 278 721 289 q 800 224 800 250 q 797 214 800 219 q 583 -33 679 32 q 559 -43 568 -43 q 550 -31 550 -43 q 582 25 550 -19 q 699 229 668 142 q 701 256 701 240 l 701 275 z "},"滴":{"ha":1389,"x_min":92,"x_max":1310,"o":"m 556 847 q 536 846 544 846 l 519 846 q 450 894 472 846 q 440 918 440 913 q 451 928 440 928 q 477 924 461 928 q 524 919 493 919 l 538 919 l 815 936 l 813 1035 q 801 1084 813 1063 q 789 1110 789 1106 q 808 1121 789 1121 l 822 1119 q 883 1105 863 1119 q 903 1072 903 1090 l 901 940 l 1174 957 q 1215 965 1200 960 q 1244 969 1231 969 q 1274 956 1258 969 q 1300 929 1290 943 q 1310 910 1310 915 q 1276 889 1310 892 l 556 847 m 392 800 q 361 818 379 800 q 207 969 285 903 q 189 994 189 986 q 200 1022 189 1003 q 224 1040 211 1040 q 275 1014 238 1040 q 375 928 313 988 q 438 856 438 868 q 431 838 438 851 q 392 800 410 800 m 503 -58 q 511 36 511 0 l 510 576 q 500 652 510 629 q 490 682 490 675 q 501 689 490 689 q 585 658 511 689 l 875 674 q 896 697 879 679 q 981 842 981 793 l 981 853 q 992 867 981 867 q 1022 858 1003 867 q 1074 815 1074 839 q 953 678 1074 792 l 1172 690 l 1193 692 q 1231 676 1213 692 q 1249 646 1249 660 l 1240 613 l 1239 -12 l 1239 -44 q 1219 -103 1239 -82 q 1183 -124 1200 -124 q 1140 -111 1167 -124 q 1078 -80 1113 -99 q 1010 -40 1043 -61 q 956 1 978 -18 q 935 29 935 19 q 949 39 935 39 q 1020 17 964 39 q 1151 -22 1076 -6 l 1156 615 l 592 586 l 597 -69 q 571 -114 597 -114 q 522 -96 540 -114 q 503 -58 503 -78 m 660 792 q 651 809 651 800 q 667 835 651 818 q 694 851 682 851 q 726 834 706 851 q 767 793 746 817 q 804 748 789 769 q 819 715 819 726 q 802 688 819 703 q 773 674 785 674 q 734 712 761 674 q 660 792 707 750 m 278 536 q 115 663 210 596 q 97 688 97 675 q 107 718 97 700 q 128 736 117 736 q 192 703 139 736 q 336 596 244 671 q 358 566 358 579 q 343 533 358 553 q 317 513 328 513 q 278 536 307 513 m 719 86 q 721 103 721 93 l 721 125 q 719 140 721 132 l 710 254 q 697 310 706 293 q 688 335 688 326 q 707 343 688 343 q 786 322 726 343 l 832 325 l 831 418 l 732 413 l 697 411 q 660 421 669 411 q 625 469 625 456 q 633 483 625 483 q 652 481 636 483 q 700 478 668 478 l 722 478 l 831 483 l 831 503 q 822 561 831 546 q 813 583 813 576 q 822 590 813 590 q 851 586 831 590 q 913 542 913 574 l 911 489 l 972 492 q 1037 500 1021 494 q 1068 506 1053 506 q 1105 485 1083 506 q 1126 449 1126 464 q 1101 432 1126 435 l 908 422 l 906 331 l 992 336 l 1003 336 q 1034 324 1013 336 q 1056 293 1056 313 q 1053 283 1056 288 q 1049 272 1050 278 l 1029 149 q 1056 106 1056 118 q 1046 94 1056 94 q 1019 92 1036 93 l 800 83 l 801 63 l 801 57 q 782 31 801 31 q 744 43 769 31 q 719 81 719 56 l 719 86 m 174 -43 q 117 -22 143 -40 q 92 6 92 -3 q 113 24 92 14 q 156 67 133 35 q 383 431 292 254 q 422 471 406 471 q 432 453 432 471 q 414 388 432 436 q 317 176 396 339 q 207 -31 239 13 q 179 -43 197 -43 l 174 -43 m 967 268 l 788 258 l 796 147 l 956 154 l 967 268 z "},"点":{"ha":1389,"x_min":92,"x_max":1319,"o":"m 354 260 q 360 315 360 299 q 357 350 360 331 l 331 556 q 316 619 328 596 q 304 651 304 643 q 324 660 304 660 q 418 632 344 660 l 625 643 l 626 1024 q 616 1070 626 1051 q 606 1097 606 1089 q 621 1104 606 1104 q 658 1100 636 1104 q 718 1056 718 1089 l 714 885 l 985 900 q 1026 908 1011 901 q 1053 915 1042 915 q 1081 904 1065 915 q 1119 850 1119 878 q 1083 828 1119 831 l 713 808 l 710 649 l 976 663 l 993 663 q 1040 647 1021 663 q 1058 618 1058 631 q 1054 599 1058 606 q 1049 588 1050 593 l 1011 365 q 1042 307 1042 322 q 1030 290 1042 292 q 1000 288 1018 289 l 447 268 l 450 239 l 450 232 q 424 204 450 204 q 374 222 394 204 q 354 260 354 240 m 958 586 l 418 558 l 439 344 l 926 364 l 958 586 m 1308 -100 q 1232 -110 1260 -153 q 1025 124 1136 21 q 1008 150 1008 140 q 1024 178 1008 160 q 1049 196 1039 196 q 1090 172 1060 196 q 1158 110 1119 147 q 1234 33 1197 72 q 1295 -35 1271 -6 q 1319 -76 1319 -65 q 1308 -100 1319 -86 m 878 -76 q 726 125 808 38 q 711 151 711 143 q 728 179 711 165 q 756 193 746 193 q 790 170 765 193 q 844 113 814 147 q 902 42 874 78 q 949 -19 931 7 q 968 -53 968 -46 q 947 -81 968 -61 q 909 -101 925 -101 q 878 -76 893 -101 m 106 -50 q 263 164 211 56 q 289 186 272 186 q 324 176 306 186 q 342 151 342 165 q 325 106 342 138 q 283 33 308 74 q 231 -45 258 -7 q 182 -108 204 -83 q 149 -133 160 -133 q 115 -115 138 -133 q 92 -81 92 -97 q 106 -50 92 -64 m 567 -71 q 463 117 517 44 q 449 144 449 135 q 465 167 449 154 q 493 181 482 181 q 524 159 504 181 q 566 106 543 138 q 610 40 589 74 q 645 -20 632 6 q 658 -54 658 -46 q 638 -80 658 -62 q 598 -97 617 -97 q 567 -71 579 -97 z "},"球":{"ha":1389,"x_min":42,"x_max":1368,"o":"m 947 1 l 951 -58 q 930 -112 951 -90 q 890 -133 908 -133 q 728 -36 850 -133 q 663 35 663 21 q 676 44 663 44 q 719 31 690 44 q 787 1 749 18 q 861 -31 825 -17 l 865 743 l 653 728 q 600 725 622 725 l 588 725 q 571 731 575 728 q 533 792 544 756 q 532 800 532 794 q 540 806 532 806 l 544 806 q 583 803 567 803 l 608 803 q 631 804 618 803 l 865 819 l 867 1038 q 842 1111 867 1076 q 838 1122 838 1118 q 856 1133 838 1133 q 907 1122 874 1133 q 947 1100 940 1111 q 954 1074 954 1089 l 953 824 l 1147 836 q 1188 846 1168 838 q 1219 854 1207 854 q 1250 841 1232 854 q 1281 812 1268 828 q 1293 788 1293 796 q 1257 769 1293 772 l 951 749 l 951 594 q 988 529 969 560 q 1024 471 1007 499 q 1138 613 1082 528 q 1154 658 1149 628 q 1170 689 1160 689 q 1196 674 1181 689 q 1223 641 1211 660 q 1235 608 1235 622 q 1165 518 1235 594 q 1060 413 1094 442 q 1194 246 1126 314 q 1353 110 1263 178 q 1368 91 1368 99 q 1358 69 1368 83 q 1306 35 1329 35 q 1163 163 1282 35 q 950 468 1043 290 l 947 1 m 1133 893 q 1007 1007 1075 956 q 996 1024 996 1015 q 1009 1049 996 1033 q 1034 1065 1022 1065 q 1073 1047 1046 1065 q 1132 1003 1100 1029 q 1187 955 1164 978 q 1210 920 1210 932 q 1194 889 1210 908 q 1167 869 1179 869 q 1133 893 1156 869 m 139 899 l 438 917 q 485 926 472 921 q 506 931 499 931 q 531 919 514 931 q 572 869 572 893 q 540 849 572 851 l 372 838 l 371 590 l 406 593 q 450 601 432 594 q 474 608 468 608 q 497 597 481 608 q 543 546 543 571 q 510 525 543 528 l 369 515 l 368 263 q 501 325 447 299 q 568 351 554 351 q 582 337 582 351 q 549 301 582 322 q 253 124 368 182 q 119 65 139 65 q 78 83 99 65 q 52 113 58 101 q 44 127 46 124 q 42 133 42 131 q 58 145 42 143 q 94 153 75 147 q 154 175 113 158 q 281 225 196 192 l 283 510 l 211 504 q 192 503 201 503 l 176 503 q 111 544 132 503 q 100 574 100 564 q 111 583 100 583 q 128 581 117 583 q 167 578 140 578 l 185 578 l 283 585 l 286 832 l 192 825 q 151 822 169 822 q 122 829 133 822 q 85 872 93 853 q 78 894 78 892 q 89 904 78 904 l 139 899 m 749 442 q 606 593 703 503 q 596 609 596 603 q 610 635 596 615 q 636 654 625 654 q 667 639 647 654 q 713 600 688 624 q 763 551 739 576 q 802 505 786 525 q 818 472 818 485 q 798 444 818 460 q 769 428 778 428 q 749 442 760 428 m 544 161 q 782 381 651 239 q 820 407 808 407 q 832 394 832 407 q 817 359 832 381 q 776 303 803 338 q 717 225 750 268 q 650 143 683 182 q 589 78 617 104 q 550 53 561 53 q 528 58 539 53 q 492 83 517 64 q 467 113 467 103 q 486 128 467 122 q 544 161 506 133 z "},"用":{"ha":1389,"x_min":82,"x_max":1168,"o":"m 1165 -24 l 1167 -64 q 1119 -133 1167 -117 l 1103 -137 q 1019 -97 1075 -137 q 863 53 863 17 q 876 63 863 63 q 947 31 889 63 q 1076 -24 1006 -1 l 1076 353 l 742 339 l 742 -31 q 719 -67 742 -67 q 696 -60 714 -67 q 662 -37 678 -53 q 646 1 646 -22 l 646 8 q 651 36 646 13 q 657 99 657 60 l 657 336 l 336 322 q 204 -10 299 136 q 134 -101 165 -69 q 90 -133 103 -133 q 82 -120 82 -133 q 96 -83 82 -107 q 253 328 218 124 q 275 747 275 467 q 275 825 275 786 q 274 911 275 864 q 262 983 274 958 q 250 1015 250 1008 q 267 1021 250 1021 q 360 988 285 1021 l 1101 1033 l 1113 1033 q 1150 1020 1132 1033 q 1168 985 1168 1007 l 1164 953 l 1165 -24 m 1075 951 l 740 931 l 740 719 l 1075 736 l 1075 951 m 657 926 l 361 908 q 363 804 363 857 l 363 700 l 657 715 l 657 926 m 1075 658 l 740 642 l 742 417 l 1076 431 l 1075 658 m 657 638 l 363 622 q 350 401 360 463 l 657 414 l 657 638 z "},"盒":{"ha":1389,"x_min":56,"x_max":1343,"o":"m 732 1032 q 1106 779 924 875 q 1318 679 1203 728 q 1343 660 1343 669 q 1332 642 1343 656 q 1276 603 1301 603 q 1225 624 1274 603 q 1094 689 1176 644 q 689 978 893 799 q 501 794 607 881 q 546 790 525 790 l 560 790 l 757 804 q 813 815 794 807 q 844 822 832 822 q 872 811 856 822 q 915 764 915 783 q 893 742 915 744 l 890 742 l 597 722 q 549 719 569 719 q 513 729 529 719 q 476 774 496 739 q 154 579 311 643 q 81 556 96 556 q 67 563 67 556 q 100 596 67 576 q 490 890 319 725 q 660 1126 660 1054 l 660 1131 q 675 1150 660 1150 q 708 1140 686 1150 q 747 1114 729 1129 q 764 1085 764 1099 q 732 1032 764 1071 m 489 638 l 924 663 q 976 644 960 663 q 992 615 992 625 q 987 599 992 606 q 979 585 982 592 l 954 478 q 982 428 982 442 q 949 413 982 415 l 511 393 l 514 369 l 514 365 q 487 339 514 339 q 440 356 460 339 q 419 392 419 374 l 419 397 q 422 428 422 417 q 419 458 422 439 l 407 574 q 392 624 406 601 q 378 655 378 647 q 399 663 378 663 q 489 638 419 663 m 886 589 l 493 569 l 504 461 l 871 476 l 886 589 m 1039 314 l 1056 315 q 1094 303 1071 315 q 1118 267 1118 290 q 1115 252 1118 258 q 1110 239 1111 246 l 1079 17 l 1185 19 q 1240 24 1224 19 q 1267 29 1256 29 q 1295 17 1278 29 q 1325 -10 1313 6 q 1338 -36 1338 -26 q 1306 -57 1338 -54 l 182 -86 l 153 -86 q 67 -35 90 -86 q 56 -7 56 -11 q 65 3 56 3 q 87 -3 69 3 q 142 -10 104 -10 l 153 -10 l 314 -6 l 292 204 q 260 292 288 243 q 257 301 257 297 q 277 310 257 310 q 367 285 297 310 l 1039 314 m 1024 240 l 851 233 l 843 10 l 997 14 l 1024 240 m 769 229 l 611 222 l 622 4 l 761 7 l 769 229 m 529 219 l 376 213 l 396 -3 l 542 1 l 529 219 z "},"目":{"ha":1389,"x_min":279,"x_max":1115,"o":"m 324 -56 q 331 26 331 -7 l 331 46 l 307 890 q 291 972 303 949 q 279 1004 279 994 q 299 1014 279 1014 q 394 982 318 1014 l 1039 1014 l 1049 1014 q 1092 997 1069 1014 q 1114 968 1114 981 q 1111 949 1114 956 q 1107 935 1108 942 l 1082 96 q 1115 40 1115 58 q 1099 19 1115 21 q 1063 15 1082 17 l 424 -8 l 426 -76 l 426 -83 q 406 -118 426 -118 q 340 -89 375 -118 q 324 -56 324 -75 m 1014 932 l 396 901 l 403 683 l 1010 715 l 1014 932 m 1007 632 l 406 604 l 411 396 l 1003 426 l 1007 632 m 1001 343 l 414 315 l 422 72 l 996 92 l 1001 343 z "},"看":{"ha":1389,"x_min":64,"x_max":1319,"o":"m 1058 503 l 1050 481 l 1028 35 q 1060 -19 1060 -7 q 1049 -35 1060 -32 q 1024 -39 1039 -37 l 514 -54 l 517 -111 l 517 -114 q 493 -140 517 -140 q 450 -126 475 -140 q 425 -85 425 -111 q 431 -25 431 -40 l 414 390 q 135 206 282 268 q 76 185 83 185 q 64 194 64 185 q 90 226 64 208 q 316 397 211 304 q 500 614 421 489 l 188 599 l 168 599 q 115 612 131 599 q 86 668 100 625 q 85 676 85 671 q 90 682 85 682 q 108 678 94 682 q 153 674 122 674 l 178 674 l 543 693 q 586 788 568 738 l 365 775 l 338 774 q 299 783 321 774 q 263 843 276 793 q 261 851 261 846 q 267 856 261 856 q 291 851 274 856 q 338 846 308 846 l 350 846 l 610 863 q 632 950 624 903 q 351 919 507 929 l 340 919 q 296 935 296 919 q 344 960 296 951 q 678 1027 532 988 q 877 1087 824 1067 q 949 1122 931 1107 q 978 1136 967 1136 q 1013 1106 989 1136 q 1036 1056 1036 1075 q 1024 1032 1036 1036 q 726 965 860 989 q 701 868 715 915 l 982 885 q 1026 892 1015 888 q 1047 897 1038 897 q 1072 886 1057 897 q 1115 836 1115 857 q 1076 817 1115 819 l 679 793 q 639 697 656 735 l 1167 725 q 1221 732 1203 728 q 1243 736 1239 736 l 1250 736 q 1308 700 1278 736 q 1319 675 1319 685 q 1292 654 1319 658 l 597 619 q 569 573 583 597 q 540 529 556 549 l 986 551 l 997 551 q 1053 518 1039 551 q 1058 503 1058 507 m 961 478 l 494 456 l 499 360 l 960 381 l 961 478 m 957 310 l 501 290 l 504 197 l 954 215 l 957 310 m 951 143 l 507 125 l 511 19 l 947 32 l 951 143 z "},"知":{"ha":1389,"x_min":63,"x_max":1264,"o":"m 63 497 q 74 508 63 508 q 92 503 78 508 q 138 499 106 499 l 153 499 l 399 511 q 414 769 414 625 l 301 763 q 272 703 296 751 q 203 586 249 656 q 129 507 154 507 q 118 522 118 507 q 144 586 118 536 q 249 858 201 694 q 296 1042 296 1021 l 296 1072 q 293 1089 296 1081 l 293 1097 q 304 1106 293 1106 q 342 1092 315 1106 q 397 1042 397 1065 q 372 947 397 1026 q 333 839 347 868 l 582 856 q 621 861 613 858 q 642 864 629 864 q 670 851 656 864 q 694 824 685 839 q 704 803 704 810 q 671 785 704 788 l 507 775 q 489 515 504 628 l 622 522 q 669 531 650 525 q 699 536 688 536 q 726 524 711 536 q 761 474 761 496 q 725 453 761 456 l 478 440 q 470 403 474 422 q 461 367 467 385 q 740 58 631 210 q 749 34 749 49 q 735 6 749 19 q 708 -14 722 -7 q 692 -21 694 -21 q 665 -1 678 -21 q 435 283 563 153 q 233 -12 365 106 q 135 -85 178 -61 q 78 -108 93 -108 q 63 -97 63 -108 q 94 -56 63 -81 q 256 117 175 7 q 388 436 360 263 l 163 425 l 138 425 q 110 427 119 425 q 88 447 101 429 q 63 497 74 464 m 1207 176 q 1242 122 1242 136 q 1232 106 1242 108 q 1207 101 1222 103 l 908 92 l 910 47 l 910 42 q 889 11 910 11 q 840 32 863 11 q 818 69 818 53 l 818 76 q 822 133 822 106 l 822 151 l 790 760 q 776 827 788 803 q 765 861 765 851 q 785 871 765 871 q 867 846 804 871 l 1188 864 l 1201 865 q 1244 847 1224 865 q 1264 817 1264 829 q 1260 799 1264 806 q 1256 786 1257 793 l 1207 176 m 1164 783 l 876 767 l 904 169 l 1124 178 l 1164 783 z "},"移":{"ha":1389,"x_min":44,"x_max":1283,"o":"m 938 976 l 1140 994 l 1144 994 q 1200 971 1178 994 q 1222 934 1222 947 q 1212 910 1222 921 q 1196 892 1201 900 q 946 631 1088 732 q 610 465 804 529 q 582 460 594 460 q 569 467 569 460 q 599 494 569 478 q 863 657 753 576 q 771 754 813 722 q 760 768 760 763 q 764 783 760 774 q 798 813 776 813 q 886 742 819 813 q 921 703 910 717 q 1104 914 1028 793 l 869 897 q 653 742 757 785 q 606 725 614 725 q 597 731 597 725 q 617 756 597 740 q 690 817 636 771 q 817 949 743 864 q 890 1089 890 1035 l 890 1096 q 907 1117 890 1117 q 956 1090 928 1117 q 985 1052 985 1063 q 938 976 985 1042 m 399 -93 q 378 -129 399 -129 q 347 -121 367 -129 q 306 -74 306 -103 q 315 49 315 4 l 317 86 l 317 179 l 318 415 q 321 472 318 442 l 324 503 q 292 421 307 449 q 90 129 165 197 q 53 104 63 104 q 44 117 44 104 q 85 192 44 131 q 184 374 126 253 q 293 632 242 494 l 188 622 q 158 619 171 621 q 128 618 146 618 q 89 636 111 618 q 60 689 67 654 q 71 699 60 699 q 135 692 113 692 l 147 692 l 319 708 l 321 889 q 180 849 239 861 q 106 836 121 836 q 92 847 92 836 q 118 871 92 861 q 199 906 131 876 q 353 983 268 935 q 488 1088 468 1046 q 503 1101 494 1101 q 528 1085 511 1101 q 572 1010 572 1040 q 565 997 572 1001 q 399 919 481 953 l 399 717 l 456 721 q 506 730 488 724 q 534 736 525 736 q 561 726 543 736 q 606 676 606 701 q 581 660 606 663 l 399 643 l 399 564 q 430 578 417 578 q 461 556 443 578 q 528 465 479 533 q 576 378 576 397 q 557 345 576 360 q 521 331 538 331 q 489 363 504 331 q 399 511 454 433 l 399 -93 m 990 483 l 1201 497 l 1206 497 q 1261 474 1239 497 q 1283 437 1283 450 q 1273 413 1283 424 q 1257 394 1263 403 q 850 -3 1075 129 q 581 -124 732 -74 q 554 -128 567 -128 q 542 -119 542 -128 q 569 -94 542 -108 q 925 143 788 22 q 821 253 881 200 q 810 271 810 261 q 824 297 810 281 q 853 314 839 314 q 924 258 868 314 q 982 194 975 204 q 1165 417 1063 271 l 919 406 q 656 217 782 278 q 595 193 607 193 q 583 200 583 193 q 604 225 583 210 q 738 335 665 269 q 853 444 811 401 q 944 600 944 544 l 944 610 q 961 629 944 629 q 994 617 974 629 q 1029 588 1014 604 q 1044 563 1044 572 q 990 483 1044 553 z "},"稀":{"ha":1389,"x_min":44,"x_max":1343,"o":"m 940 856 q 746 749 829 783 q 643 715 663 715 q 624 722 624 715 q 667 760 624 733 q 869 890 782 829 q 683 972 764 942 q 665 992 665 981 q 676 1024 665 1003 q 703 1044 688 1044 q 939 943 718 1044 q 1068 1071 1044 1026 q 1081 1106 1078 1089 q 1101 1122 1085 1122 q 1145 1091 1117 1122 q 1174 1051 1174 1060 q 1164 1032 1174 1042 q 1014 907 1093 965 q 1203 806 1193 821 q 1208 790 1208 799 q 1197 760 1208 782 q 1170 733 1181 733 q 1126 753 1160 733 q 940 856 1054 799 m 322 894 q 128 853 189 853 q 110 864 110 853 q 164 896 110 875 q 475 1078 431 1000 q 489 1092 482 1092 q 511 1078 496 1092 q 557 1004 557 1036 q 396 921 557 981 l 396 718 l 485 726 q 523 735 510 729 q 543 740 536 740 q 565 731 550 740 q 606 683 606 706 q 578 665 606 669 l 396 649 l 396 578 q 417 589 407 589 q 469 549 428 589 q 569 431 510 510 q 576 409 576 419 q 559 383 576 399 q 528 367 542 367 q 503 383 514 367 q 396 519 461 454 l 397 -90 q 376 -124 397 -124 q 350 -116 367 -124 q 321 -94 333 -108 q 308 -69 308 -81 q 312 -37 308 -57 q 315 28 315 -18 l 315 64 l 318 399 q 320 447 318 421 q 324 492 322 474 l 325 511 q 174 232 278 369 q 97 142 131 175 q 54 110 64 110 q 44 121 44 110 q 63 158 44 132 q 304 639 204 360 l 169 626 q 150 625 160 625 l 135 625 q 69 669 92 625 q 61 696 61 689 q 67 703 61 703 q 85 699 74 703 q 118 694 97 694 l 321 711 l 322 894 m 1236 154 l 1238 107 q 1217 54 1238 71 q 1183 38 1197 38 q 1078 97 1157 38 q 999 183 999 156 q 1009 190 999 190 q 1053 173 1019 190 q 1158 135 1086 156 l 1164 385 l 992 376 l 993 -107 q 972 -142 993 -142 q 953 -136 971 -142 q 903 -86 903 -117 q 908 -52 903 -76 q 913 13 913 -28 l 911 372 l 763 364 l 761 57 q 738 21 761 21 q 697 37 715 21 q 678 69 678 53 l 678 75 q 681 97 678 79 q 685 135 685 114 q 686 217 685 157 q 688 361 688 276 q 517 217 600 271 q 469 194 482 194 q 457 201 457 194 q 485 239 457 213 q 769 581 658 396 l 643 574 q 628 572 635 572 l 615 572 q 572 584 585 572 q 551 616 560 596 q 543 644 543 636 q 550 651 543 651 q 570 647 557 651 q 617 643 583 643 l 632 643 l 810 654 q 857 789 854 736 q 869 804 857 804 q 900 792 882 804 q 946 744 946 763 q 939 726 946 739 l 925 696 q 904 660 915 678 l 1217 678 q 1260 686 1246 681 q 1281 692 1274 692 q 1304 681 1289 692 q 1343 631 1343 653 q 1315 613 1343 615 l 863 586 q 756 436 807 500 l 764 433 l 911 442 l 911 493 q 901 538 911 518 q 890 565 890 557 q 904 574 890 574 q 947 564 918 574 q 983 546 975 554 q 992 519 992 538 l 992 446 l 1179 456 q 1197 457 1183 457 q 1228 444 1211 457 q 1244 413 1244 431 l 1240 389 l 1236 154 z "},"端":{"ha":1389,"x_min":44,"x_max":1290,"o":"m 621 714 l 631 788 l 633 892 q 626 946 633 931 q 618 968 618 961 q 639 975 618 975 q 694 958 660 975 q 715 926 715 947 l 715 924 l 707 757 l 864 771 l 867 1021 q 844 1085 867 1057 q 839 1098 839 1092 q 865 1104 839 1104 q 920 1092 890 1104 q 950 1056 950 1079 l 946 778 l 1129 793 l 1132 921 q 1123 977 1132 960 q 1114 1001 1114 994 q 1123 1008 1114 1008 q 1154 1004 1132 1008 q 1215 954 1215 993 l 1215 950 l 1204 681 q 1181 643 1201 643 q 1136 660 1154 643 q 1118 690 1118 678 q 1119 707 1118 701 l 1124 728 l 721 688 q 688 681 700 686 q 665 676 676 676 q 637 690 653 676 q 621 714 621 704 m 258 997 q 358 951 358 997 l 356 757 l 413 761 q 466 770 446 764 q 499 776 486 776 q 526 765 511 776 q 551 739 542 753 q 560 718 560 725 q 529 699 560 703 l 174 674 q 156 672 164 672 l 142 672 q 93 688 111 672 q 68 722 75 704 q 61 743 61 740 q 72 751 61 751 q 78 751 75 751 q 94 748 81 751 q 138 744 108 744 l 156 744 l 275 753 l 272 928 q 260 967 272 953 q 247 990 247 982 q 258 997 247 997 m 374 254 q 553 310 533 310 q 572 303 572 310 q 364 183 572 276 q 117 89 156 89 q 72 120 100 89 q 44 168 44 151 q 61 179 44 179 q 296 231 125 179 q 392 618 392 519 l 388 650 l 388 654 q 396 667 388 667 q 425 658 404 667 q 482 597 482 638 q 374 254 482 557 m 150 599 q 199 628 150 628 q 229 596 218 628 q 278 433 254 525 q 301 319 301 340 q 281 289 301 297 q 247 281 260 281 q 230 288 235 281 q 211 376 225 296 q 156 578 197 457 q 152 590 154 585 q 150 599 150 594 m 581 -69 q 589 24 589 6 l 588 296 q 578 371 588 350 q 569 394 569 392 q 588 404 569 404 q 669 369 606 404 l 794 375 q 847 508 847 457 l 847 518 l 664 508 l 644 508 q 595 521 608 508 q 570 551 582 533 q 558 581 558 569 q 569 592 558 592 q 590 586 572 592 q 636 581 608 581 l 649 581 l 1157 610 q 1199 616 1182 611 q 1224 621 1217 621 q 1246 611 1231 621 q 1286 560 1286 586 q 1251 540 1286 543 l 913 522 q 938 492 938 508 q 875 379 938 476 l 1217 396 l 1235 397 q 1272 383 1253 397 q 1290 350 1290 369 l 1283 318 l 1275 -18 l 1275 -57 q 1254 -111 1275 -92 q 1216 -131 1233 -131 q 1174 -112 1199 -131 q 1123 -67 1149 -93 q 1079 -18 1097 -42 q 1061 15 1061 6 q 1072 25 1061 25 q 1117 5 1082 25 q 1190 -29 1151 -15 l 1199 325 l 1057 318 l 1054 -46 q 1032 -81 1054 -81 q 988 -65 1007 -81 q 968 -38 968 -49 q 972 -6 968 -28 q 976 74 976 17 l 979 315 l 864 310 l 869 -50 q 846 -85 869 -85 q 806 -69 831 -85 q 781 -35 781 -53 l 781 -26 q 786 71 786 8 l 783 307 l 668 301 l 672 -90 q 650 -121 672 -121 l 633 -117 q 581 -69 581 -100 z "},"箱":{"ha":1389,"x_min":67,"x_max":1293,"o":"m 994 921 q 1103 832 1065 871 q 1142 783 1142 793 q 1127 753 1142 774 q 1099 732 1113 732 q 1067 753 1086 732 q 950 863 1015 810 q 936 884 936 874 q 958 918 936 894 l 861 911 q 692 725 775 792 q 647 700 658 700 q 636 711 636 700 q 653 743 636 722 q 842 1051 771 890 q 854 1104 854 1072 l 854 1115 q 868 1132 854 1132 q 897 1122 876 1132 q 953 1068 953 1096 q 945 1047 953 1061 q 928 1017 938 1033 q 908 983 919 1000 l 1164 1004 q 1210 1011 1200 1007 q 1228 1015 1221 1015 q 1251 1007 1236 1015 q 1293 960 1293 985 q 1265 939 1293 942 l 994 921 m 408 963 l 615 978 q 660 986 642 981 q 686 992 679 992 q 708 981 693 992 q 750 933 750 953 q 719 914 750 917 l 476 897 q 576 819 546 850 q 606 776 606 789 q 588 747 606 764 q 560 731 571 731 q 516 767 549 731 q 452 828 483 804 q 421 863 421 851 q 443 896 421 874 l 356 889 q 150 692 253 758 q 99 665 110 665 q 89 676 89 665 q 121 719 89 686 q 278 916 199 799 q 358 1079 358 1033 l 358 1093 q 371 1113 358 1113 q 399 1103 378 1113 q 438 1078 419 1093 q 457 1047 457 1064 q 408 963 457 1031 m 531 557 q 575 564 546 558 l 604 569 q 667 531 640 569 q 678 508 678 517 q 658 490 678 493 l 475 479 l 475 394 q 501 411 488 411 q 596 347 515 411 q 676 265 676 283 q 659 229 676 246 q 631 213 642 213 q 576 256 619 213 q 475 344 532 300 l 474 -86 q 453 -125 474 -125 q 435 -120 451 -125 q 403 -103 418 -115 q 388 -81 388 -92 l 388 -64 q 392 -35 388 -60 q 396 60 396 -11 l 396 318 q 400 364 396 339 l 404 388 q 192 117 356 267 q 76 35 101 35 q 67 47 67 35 q 108 100 67 58 q 374 474 254 249 l 265 467 q 210 464 232 464 q 171 482 188 464 q 146 519 154 500 q 138 539 138 538 q 147 547 138 547 l 208 539 l 396 550 l 396 660 q 387 710 396 694 q 378 735 378 726 q 391 744 378 744 q 424 739 404 744 q 475 706 475 726 l 475 554 l 531 557 m 808 653 l 1153 674 q 1190 656 1172 674 q 1208 624 1208 639 q 1205 601 1208 610 q 1200 585 1201 593 l 1181 51 q 1217 1 1217 15 q 1206 -19 1217 -14 q 1181 -25 1196 -24 l 814 -35 l 815 -85 q 789 -111 815 -111 q 758 -103 776 -111 q 725 -58 725 -86 l 732 -1 q 733 49 733 22 l 724 569 q 708 650 724 619 q 704 669 704 661 q 723 683 704 683 q 808 653 742 683 m 1118 601 l 803 583 l 806 458 l 1115 474 l 1118 601 m 1113 404 l 807 390 l 808 258 l 1110 271 l 1113 404 m 1108 201 l 810 190 l 813 38 l 1104 46 l 1108 201 z "},"红":{"ha":1389,"x_min":115,"x_max":1356,"o":"m 425 397 q 535 415 499 408 q 592 419 572 421 q 611 407 613 418 q 514 352 610 388 q 324 293 418 317 q 215 271 231 269 q 190 281 200 272 q 157 335 164 313 q 150 361 150 358 q 165 372 151 374 l 186 371 q 244 369 217 368 q 358 549 307 460 q 146 669 251 624 q 119 692 122 681 q 126 724 117 703 q 149 749 136 746 q 189 742 163 751 q 199 738 194 739 q 342 972 317 908 q 367 1067 367 1036 l 367 1081 q 378 1096 367 1096 q 404 1085 385 1096 q 457 1024 457 1053 q 403 908 449 989 q 268 700 361 833 l 301 682 q 403 621 364 647 l 408 629 q 521 842 511 799 q 525 875 524 854 q 534 896 526 896 q 560 885 542 896 q 613 824 611 854 q 608 804 613 814 q 344 383 481 581 q 425 397 382 390 m 357 122 q 551 201 479 169 q 636 233 624 232 q 650 231 649 235 q 441 82 653 200 q 192 -39 229 -36 q 163 -24 182 -40 q 131 14 144 -7 q 115 46 117 35 q 129 53 115 51 l 144 54 q 208 68 167 56 l 357 122 m 572 103 q 636 94 606 94 l 647 94 l 896 106 l 900 764 l 779 757 q 758 756 768 756 l 740 756 q 708 761 714 756 q 664 831 678 789 q 675 838 664 838 l 679 838 l 738 832 l 750 832 l 1110 853 q 1157 863 1138 854 q 1188 872 1176 872 q 1217 859 1199 872 q 1251 829 1236 846 q 1265 803 1265 813 q 1231 782 1265 785 l 988 768 l 985 108 l 1200 115 q 1265 124 1254 119 q 1287 128 1276 128 q 1314 114 1297 128 q 1343 82 1331 100 q 1356 53 1356 64 q 1347 40 1356 43 q 1325 36 1338 38 l 635 13 q 607 17 611 13 q 561 94 575 51 q 572 103 561 103 z "},"级":{"ha":1389,"x_min":103,"x_max":1378,"o":"m 558 942 l 557 949 q 568 958 557 958 q 590 954 575 958 q 632 950 606 950 l 644 950 l 1081 989 l 1088 989 q 1136 976 1115 989 q 1157 949 1157 963 q 1150 925 1157 935 q 1139 904 1143 915 l 1040 660 l 1167 667 l 1182 667 q 1230 649 1213 667 q 1247 621 1247 632 q 1239 601 1247 610 q 1228 585 1231 593 q 1036 229 1149 376 q 1350 -15 1158 94 q 1378 -40 1378 -31 q 1364 -64 1378 -49 q 1308 -101 1331 -101 q 1247 -68 1299 -101 q 985 165 1113 22 q 619 -90 818 -21 q 581 -103 583 -103 q 567 -94 567 -103 q 597 -62 567 -81 q 932 228 797 61 q 760 489 850 326 q 736 390 760 468 q 538 -1 660 138 q 509 -22 521 -22 q 497 -10 497 -22 q 507 17 497 1 q 729 878 688 344 l 683 874 q 640 871 661 871 q 597 882 618 871 q 558 942 575 893 m 411 397 q 522 415 485 408 q 578 419 558 421 q 597 407 599 418 q 500 352 596 388 q 310 293 404 317 q 201 271 217 269 q 176 281 186 272 q 143 335 150 313 q 136 361 136 358 q 151 372 138 374 l 172 371 q 246 371 211 367 q 324 496 281 424 l 353 543 q 132 669 242 622 q 106 692 108 681 q 113 724 103 703 q 135 749 122 746 q 175 742 149 751 q 185 738 181 739 q 328 972 303 908 q 353 1067 353 1036 l 353 1081 q 364 1096 353 1096 q 390 1085 371 1096 q 443 1024 443 1053 q 389 908 435 989 q 254 700 347 833 l 288 682 q 397 615 356 643 q 482 782 474 744 q 486 815 485 794 q 495 836 488 836 q 521 825 503 836 q 574 764 572 794 q 569 744 574 754 q 347 388 449 533 q 411 397 378 392 m 340 124 q 493 193 461 176 q 538 212 525 210 q 551 210 551 214 q 389 69 556 179 q 185 -47 222 -42 q 156 -33 175 -49 q 121 3 136 -17 q 104 33 106 22 q 117 42 103 39 l 132 43 q 196 61 154 46 l 340 124 m 1028 581 q 1005 576 1015 579 q 983 574 994 574 q 953 588 971 574 q 936 617 936 601 q 942 644 936 632 l 1044 907 l 815 886 q 783 604 804 731 q 981 293 879 421 q 1131 586 1071 424 l 1028 581 z "},"维":{"ha":1389,"x_min":101,"x_max":1351,"o":"m 400 397 q 506 415 471 408 q 561 419 542 421 q 581 407 581 418 q 485 352 578 388 q 303 293 393 317 q 198 271 213 269 q 175 281 183 272 q 143 335 150 313 q 136 361 136 358 q 150 372 138 374 l 171 371 q 242 371 207 367 q 343 544 296 458 l 346 549 q 132 669 238 624 q 106 692 108 681 q 113 724 103 703 q 135 749 122 746 q 175 742 149 751 q 185 738 181 739 q 328 972 303 908 q 353 1067 353 1036 l 353 1081 q 364 1096 353 1096 q 390 1085 371 1096 q 443 1024 443 1053 q 389 908 435 989 q 254 700 347 833 l 288 682 q 386 622 347 649 q 489 838 482 793 q 492 871 492 850 q 501 892 493 892 q 526 882 508 892 q 582 822 579 853 q 578 803 582 813 q 340 388 464 582 q 400 397 368 392 m 325 122 q 503 201 438 169 q 582 233 569 232 q 594 231 594 235 q 402 82 597 200 q 172 -39 207 -36 q 146 -24 164 -40 q 115 14 128 -7 q 101 46 103 35 q 114 53 101 51 l 128 54 q 188 68 149 56 l 325 122 m 1022 1044 q 1035 1058 1022 1058 q 1069 1047 1049 1058 q 1124 996 1124 1018 q 1103 942 1124 992 q 1024 813 1082 893 l 1150 821 q 1196 828 1179 822 q 1222 833 1213 833 q 1247 822 1232 833 q 1288 774 1288 794 q 1254 753 1288 756 l 1026 738 l 1025 576 l 1106 582 q 1156 590 1142 585 q 1183 594 1171 594 q 1220 574 1194 594 q 1246 538 1246 553 q 1236 519 1246 524 q 1213 514 1226 515 l 1024 503 l 1024 350 l 1115 356 q 1163 365 1150 358 q 1185 371 1176 371 q 1211 360 1194 371 q 1256 306 1256 328 q 1224 286 1256 289 l 1022 275 l 1021 85 l 1197 92 q 1253 101 1238 94 q 1282 107 1269 107 q 1311 93 1294 107 q 1351 40 1351 64 q 1318 19 1351 24 l 756 -1 l 756 -106 q 732 -139 756 -139 q 677 -121 697 -139 q 657 -90 657 -103 q 663 -47 657 -76 q 669 22 669 -17 l 674 664 q 603 581 635 613 q 563 550 571 550 q 554 562 554 550 q 567 596 554 574 q 772 1008 725 847 q 789 1076 789 1068 l 789 1089 l 786 1111 q 802 1126 786 1126 q 846 1113 818 1126 q 892 1069 892 1090 q 847 956 892 1057 q 765 794 803 856 l 949 807 q 1010 936 992 885 q 1028 1001 1028 988 q 1022 1044 1028 1014 m 944 733 l 751 721 l 753 560 l 942 572 l 944 733 m 942 499 l 753 488 l 754 336 l 939 346 l 942 499 m 939 271 l 754 261 l 754 75 l 936 82 l 939 271 z "},"网":{"ha":1389,"x_min":181,"x_max":1197,"o":"m 1181 -6 l 1185 -57 q 1165 -105 1185 -83 q 1124 -126 1146 -126 q 1073 -110 1103 -126 q 1010 -70 1043 -94 q 947 -20 976 -46 q 899 27 918 6 q 881 58 881 49 q 893 68 881 68 q 970 37 906 68 q 1093 -8 1035 6 l 1101 942 l 290 892 l 290 -83 q 263 -121 290 -121 q 243 -116 261 -121 q 208 -96 225 -111 q 192 -62 192 -81 q 197 -19 192 -43 q 201 44 201 4 l 203 888 q 192 959 203 940 q 181 990 181 978 q 201 1001 181 1001 q 294 969 221 1001 l 1117 1022 l 1135 1022 q 1181 1006 1164 1022 q 1197 971 1197 990 l 1190 944 l 1181 -6 m 854 590 q 892 815 883 713 l 892 826 q 888 855 892 844 q 885 872 885 865 q 892 879 885 879 q 919 874 900 879 q 979 829 979 857 q 958 688 979 786 q 911 514 938 590 l 932 486 q 1060 289 1060 315 q 1042 258 1060 275 q 1008 242 1024 242 q 978 268 993 242 q 879 425 957 310 q 771 206 829 299 q 665 64 713 114 q 604 14 618 14 q 590 25 590 14 q 610 65 590 40 q 828 497 747 238 q 712 649 749 607 q 675 699 675 690 q 692 725 675 708 q 715 738 707 738 q 744 720 724 738 q 854 590 765 703 m 397 719 q 522 568 419 719 q 571 799 557 683 l 571 804 q 567 835 571 822 q 563 851 563 849 q 576 861 563 861 q 607 856 589 861 q 654 810 654 842 l 654 804 q 574 492 631 647 q 696 294 696 313 q 677 259 696 275 q 644 243 658 243 q 615 272 631 243 q 539 407 585 331 q 378 142 467 240 q 328 100 340 100 q 317 113 317 100 q 331 147 317 125 q 494 481 422 282 q 367 658 429 583 q 359 671 363 665 q 356 685 356 676 q 372 707 356 694 q 397 719 389 719 z "},"至":{"ha":1389,"x_min":82,"x_max":1308,"o":"m 253 618 q 333 611 294 611 l 372 614 q 568 913 497 785 l 272 894 l 260 894 q 214 911 225 894 q 189 961 189 947 q 196 975 189 975 q 213 972 203 975 q 242 968 222 968 l 1063 1019 q 1098 1026 1081 1021 q 1126 1031 1115 1031 q 1151 1017 1138 1031 q 1172 988 1164 1003 q 1181 968 1181 972 q 1149 949 1181 951 l 676 919 q 476 619 608 803 q 910 665 700 638 q 775 807 872 711 q 768 819 768 814 q 783 844 768 825 q 814 864 797 864 q 844 850 831 864 q 1104 578 999 701 q 1119 547 1119 560 q 1101 515 1119 535 q 1067 494 1083 494 q 1031 515 1050 494 q 960 600 1013 536 q 333 528 786 569 l 311 526 q 266 547 282 526 q 244 586 250 567 l 238 607 q 253 618 238 618 m 92 13 q 174 7 131 7 l 635 21 l 636 243 l 375 231 l 360 231 q 317 242 333 231 q 292 276 303 253 q 281 303 281 300 q 294 311 281 311 l 301 311 q 340 308 324 308 l 367 310 l 636 318 l 636 447 q 628 495 636 483 q 619 510 619 507 q 648 521 619 521 q 704 510 676 521 q 732 485 732 500 l 731 322 l 949 335 q 988 342 971 336 q 1008 347 1004 347 l 1025 347 q 1050 334 1036 347 q 1072 306 1064 321 q 1081 285 1081 290 q 1046 263 1081 265 l 731 247 l 729 24 l 1181 36 q 1227 41 1211 36 q 1251 46 1243 46 q 1272 36 1260 46 q 1308 -16 1308 7 q 1279 -42 1308 -39 l 186 -75 l 167 -75 q 114 -62 128 -75 q 91 -24 100 -50 q 82 7 82 1 q 92 13 82 13 z "},"虚":{"ha":1389,"x_min":56,"x_max":1364,"o":"m 269 764 q 259 853 265 836 q 253 877 253 869 q 268 885 253 885 q 369 844 283 885 l 650 857 l 650 1071 q 629 1132 650 1103 q 625 1142 625 1139 q 637 1150 625 1150 q 672 1144 649 1150 q 740 1099 740 1131 l 739 1019 l 997 1036 q 1041 1043 1029 1039 q 1059 1047 1053 1047 q 1081 1038 1065 1047 q 1125 992 1125 1011 q 1090 972 1125 975 l 738 950 l 736 861 l 1201 882 l 1217 882 q 1266 860 1244 882 q 1288 828 1288 839 q 1269 797 1288 817 q 1169 701 1235 756 q 1086 647 1104 647 q 1068 658 1068 647 q 1092 700 1068 674 q 1174 810 1144 754 l 363 775 q 333 369 363 513 q 253 115 304 226 q 111 -96 201 3 q 104 -104 106 -101 q 67 -128 79 -128 q 56 -113 56 -128 q 76 -68 56 -99 q 271 703 271 228 l 269 764 m 401 642 l 431 636 q 453 635 442 635 l 463 635 l 626 649 l 626 692 q 608 747 626 719 q 604 763 604 756 q 615 769 604 769 q 647 767 626 769 q 708 719 708 756 l 708 656 l 918 674 q 959 682 944 675 q 981 689 974 689 q 1003 679 988 689 q 1044 632 1044 653 q 1017 613 1044 617 l 708 586 l 708 538 q 731 505 708 511 q 834 499 753 499 q 967 506 915 499 q 1038 519 1018 513 q 1071 525 1058 525 q 1104 505 1083 525 q 1125 468 1125 485 q 1086 442 1125 446 q 792 424 932 424 l 732 425 q 625 524 625 428 l 625 579 l 486 568 q 475 567 481 567 l 456 567 q 400 617 418 567 q 394 635 394 629 q 401 642 394 642 m 633 368 q 726 326 726 368 l 731 -6 l 832 -3 l 844 296 l 844 308 q 837 358 844 340 q 829 381 829 376 q 843 392 829 392 q 878 385 857 392 q 933 339 933 367 l 933 336 l 913 0 l 1211 10 q 1268 19 1249 13 q 1294 25 1288 25 q 1318 14 1301 25 q 1364 -36 1364 -14 q 1335 -61 1364 -58 l 346 -93 l 321 -93 q 270 -80 289 -93 q 240 -24 251 -67 q 239 -16 239 -21 q 244 -11 239 -11 q 311 -19 286 -19 l 338 -18 l 647 -8 l 644 268 q 622 340 644 311 q 617 354 617 347 q 633 368 617 368 m 1108 335 q 1169 292 1131 335 q 1183 264 1183 275 q 1155 214 1183 253 q 1058 117 1126 175 q 963 51 988 51 q 953 62 953 51 q 965 88 953 72 q 997 128 978 104 q 1038 186 1017 153 q 1094 318 1088 263 q 1108 335 1097 335 m 514 69 q 410 238 472 156 q 403 260 403 249 q 420 286 403 272 q 449 300 438 300 q 477 281 460 300 q 515 233 494 261 q 555 174 536 204 q 585 122 574 144 q 597 92 597 100 q 576 66 597 83 q 540 49 556 49 q 514 69 525 49 z "},"行":{"ha":1389,"x_min":39,"x_max":1349,"o":"m 410 1074 l 408 1082 q 425 1101 408 1101 q 458 1090 436 1101 q 497 1063 479 1079 q 514 1037 514 1047 q 508 1018 514 1026 q 147 643 357 776 q 115 629 124 629 q 106 638 106 629 q 129 671 106 647 q 218 769 153 694 q 347 938 283 844 q 410 1069 410 1031 l 410 1074 m 689 963 l 1064 986 q 1111 993 1094 988 q 1138 999 1128 999 q 1164 989 1147 999 q 1207 936 1207 961 q 1176 915 1207 918 l 740 886 q 719 885 729 885 l 700 885 q 665 893 686 885 q 629 944 644 901 q 626 957 626 953 q 639 967 626 967 l 646 967 q 689 963 667 963 m 513 704 q 374 496 513 676 l 381 -94 q 353 -131 381 -131 q 303 -114 325 -131 q 281 -83 281 -97 q 287 -42 281 -68 q 293 33 293 -17 l 296 404 q 81 213 189 288 q 50 197 61 197 q 39 204 39 197 q 60 239 39 217 q 392 685 257 444 q 407 739 407 713 l 407 750 q 422 774 407 774 q 458 760 438 774 q 496 731 479 747 q 513 704 513 714 m 1024 -36 l 1026 -76 q 1005 -122 1026 -99 q 962 -144 983 -144 q 906 -128 940 -144 q 832 -88 872 -112 q 754 -37 792 -64 q 692 10 717 -11 q 668 40 668 32 q 684 49 668 49 q 775 19 700 49 q 931 -37 850 -11 l 935 586 l 618 568 q 597 567 607 567 l 578 567 q 537 579 550 567 q 514 613 524 592 q 504 640 504 633 q 515 651 504 651 q 534 649 521 651 q 575 646 547 646 l 590 646 l 1206 679 q 1256 687 1242 682 q 1279 692 1269 692 q 1306 681 1289 692 q 1349 629 1349 654 q 1318 607 1349 610 l 1026 590 l 1024 -36 z "},"败":{"ha":1389,"x_min":106,"x_max":1361,"o":"m 144 -76 q 119 -83 132 -83 q 106 -69 106 -83 q 122 -42 106 -56 q 292 175 242 54 q 332 337 319 244 q 344 746 344 429 q 336 778 344 764 q 328 797 328 792 q 348 811 328 811 q 391 801 368 811 q 422 785 414 792 q 429 764 429 778 q 416 353 426 451 q 376 178 406 256 q 144 -76 318 19 m 547 22 q 440 169 501 101 q 425 199 425 185 q 444 225 425 213 q 472 238 463 238 q 501 219 482 238 q 544 174 521 201 q 589 117 568 146 q 624 65 610 88 q 638 35 638 43 q 619 8 638 28 q 583 -12 600 -12 q 547 22 565 -12 m 610 961 l 603 929 l 589 439 l 586 364 l 585 274 q 561 247 585 246 q 514 266 533 247 q 494 294 494 285 q 499 325 494 304 q 504 386 503 346 l 506 442 l 513 928 l 253 913 l 258 417 l 260 342 l 261 251 q 237 224 261 224 q 191 242 213 224 q 169 269 169 260 q 173 300 169 279 q 176 361 176 321 l 175 417 l 168 904 q 153 981 168 954 q 147 994 150 988 q 144 1006 144 1000 q 165 1017 144 1017 q 250 986 185 1017 l 526 1004 l 544 1004 q 598 986 586 1004 q 610 961 610 968 m 772 590 q 621 389 654 389 q 613 403 613 389 q 642 469 613 417 q 781 797 711 596 q 850 1060 850 999 q 850 1074 850 1067 q 849 1086 850 1081 l 849 1090 q 861 1104 849 1104 q 892 1092 868 1104 q 954 1026 954 1060 q 919 917 954 1007 q 861 774 885 828 l 1147 796 q 1195 805 1174 797 q 1226 813 1217 813 q 1253 801 1235 813 q 1301 747 1301 771 q 1269 731 1301 733 l 1158 724 q 1101 492 1135 599 q 1011 288 1068 386 q 1347 -40 1140 106 q 1361 -59 1361 -51 q 1347 -81 1361 -67 q 1285 -112 1310 -112 q 1151 -3 1261 -112 q 965 218 1042 107 q 718 -26 867 81 q 615 -92 658 -69 q 560 -114 572 -114 q 547 -106 547 -114 q 574 -69 547 -87 q 918 288 789 90 q 772 590 835 421 m 828 700 q 824 689 826 694 q 818 676 821 683 q 961 363 879 494 q 1071 717 1033 510 l 828 700 z "},"资":{"ha":1389,"x_min":135,"x_max":1286,"o":"m 750 986 l 1119 1011 l 1135 1011 q 1181 992 1163 1011 q 1200 961 1200 972 q 1193 945 1200 950 q 1182 933 1186 940 l 1164 911 q 1044 790 1067 790 q 1036 803 1036 790 q 1060 861 1036 815 q 1099 949 1083 907 l 715 924 q 618 797 660 836 q 564 758 576 758 q 554 771 554 758 q 580 822 554 783 q 636 925 606 861 q 703 1118 703 1063 q 701 1133 703 1128 l 701 1136 q 711 1146 701 1146 q 737 1138 717 1146 q 776 1117 757 1131 q 794 1086 794 1103 q 750 986 794 1069 m 222 565 q 138 625 182 565 q 135 637 135 631 q 143 643 135 643 q 379 739 224 654 q 478 794 444 774 q 523 815 513 815 q 533 804 533 815 q 518 778 533 793 q 465 732 503 764 q 335 633 426 700 q 222 565 244 565 m 228 947 q 204 972 204 956 q 217 1008 204 989 q 240 1026 229 1026 q 307 1005 251 1026 q 460 932 363 983 q 485 901 485 919 q 468 863 485 883 q 441 842 451 842 q 382 874 431 842 q 228 947 333 906 m 379 135 q 385 196 385 174 l 367 447 q 356 507 365 488 q 347 532 347 526 q 367 543 347 543 q 453 519 386 543 l 967 547 l 982 547 q 1031 532 1014 547 q 1047 506 1047 517 q 1044 490 1047 496 q 1039 478 1040 483 l 1008 153 l 1008 133 l 1007 129 q 982 106 1004 103 q 958 112 975 106 q 928 131 942 118 q 917 155 915 144 q 919 168 918 165 q 923 185 919 171 q 947 481 926 200 l 453 456 l 468 200 l 471 133 l 472 114 l 472 110 q 449 83 472 83 q 399 100 419 83 q 379 135 379 117 m 756 93 l 756 94 q 767 127 756 108 q 788 146 779 146 q 909 95 797 146 q 1131 -31 1021 44 q 1158 -61 1158 -49 q 1153 -89 1158 -74 q 1111 -131 1136 -131 q 1051 -91 1100 -131 q 781 63 1003 -51 q 756 93 756 75 m 664 339 q 653 378 664 367 q 643 400 643 390 q 672 417 643 417 q 733 403 700 417 q 754 368 754 394 q 749 269 753 293 q 738 206 746 246 q 698 109 731 167 q 612 10 665 51 q 498 -58 558 -31 q 382 -103 438 -86 q 262 -131 326 -119 q 193 -142 197 -142 q 175 -120 175 -142 q 206 -89 175 -99 q 491 17 393 -42 q 626 149 589 76 q 662 243 660 218 q 664 289 664 268 l 664 339 m 864 788 q 1113 633 1017 667 q 1222 600 1175 611 q 1278 585 1269 589 q 1286 574 1286 582 q 1267 540 1286 565 q 1235 514 1249 514 q 829 729 1042 546 q 633 586 761 639 q 461 540 521 540 q 442 553 442 540 q 468 576 442 565 q 623 646 558 613 q 725 722 688 679 q 788 808 763 764 q 813 879 813 851 l 808 911 q 823 924 808 924 q 856 915 838 924 q 900 872 900 892 q 892 843 900 861 q 879 814 883 825 l 864 788 z "},"载":{"ha":1389,"x_min":97,"x_max":1338,"o":"m 1061 853 q 942 969 1008 922 q 918 1002 918 989 q 938 1028 918 1015 q 964 1042 957 1042 q 1011 1013 971 1042 q 1150 874 1126 931 q 1132 839 1150 860 q 1101 818 1114 818 q 1061 853 1088 818 m 307 933 l 440 943 l 440 1015 q 438 1048 440 1031 q 421 1081 436 1065 q 414 1097 414 1090 q 427 1103 414 1103 q 463 1100 440 1103 q 524 1054 524 1090 l 522 949 l 610 954 q 651 961 636 956 q 675 967 667 967 q 699 956 683 967 q 738 908 738 931 q 707 890 738 893 l 522 878 l 521 764 l 796 779 q 782 891 789 826 q 769 1005 775 956 q 757 1071 764 1054 q 738 1099 750 1088 q 726 1115 726 1110 q 743 1121 726 1121 q 846 1085 842 1121 q 878 783 861 908 l 1153 799 q 1189 806 1176 801 q 1216 810 1201 810 q 1245 797 1231 810 q 1268 769 1260 783 q 1276 751 1276 754 q 1238 732 1276 735 l 892 713 q 936 508 917 582 q 1000 319 956 435 q 1101 503 1058 404 q 1110 547 1111 521 q 1120 574 1110 574 q 1149 561 1131 574 q 1184 531 1168 549 q 1200 504 1200 513 q 1147 392 1201 481 q 1040 239 1092 304 q 1215 6 1118 93 q 1225 1 1222 1 q 1246 35 1233 1 q 1299 221 1258 68 q 1324 263 1310 263 q 1338 224 1338 263 l 1338 215 q 1320 17 1335 101 q 1292 -88 1306 -68 q 1250 -108 1278 -108 q 1174 -72 1222 -108 q 982 171 1075 4 l 979 168 q 801 3 910 83 q 668 -76 692 -76 q 656 -66 657 -76 q 672 -42 656 -56 q 943 236 828 92 l 944 238 q 863 464 889 374 q 810 704 836 554 l 808 704 q 808 707 808 706 l 190 672 l 172 672 q 133 678 140 672 q 112 705 126 685 q 97 737 97 725 q 103 749 97 749 l 110 749 l 160 743 l 175 743 l 439 758 l 439 872 l 324 865 q 308 864 315 864 l 294 864 q 247 879 264 864 q 222 911 229 894 q 215 931 215 928 q 228 935 215 935 l 236 935 q 275 932 256 932 l 307 933 m 458 556 l 639 565 q 683 573 667 567 q 711 579 700 579 q 740 568 722 579 q 783 522 783 543 q 751 506 783 511 l 429 488 q 385 406 421 472 l 339 322 q 368 325 343 324 l 478 336 l 478 365 q 465 410 478 393 q 453 432 453 426 q 465 442 453 442 q 500 436 478 442 q 560 390 560 424 l 558 344 l 651 354 l 697 365 q 738 347 718 368 q 758 313 757 325 q 750 297 760 301 q 731 292 740 293 l 557 272 l 556 161 q 717 203 650 183 q 785 206 785 224 q 646 132 782 186 q 556 97 601 113 l 553 -100 q 535 -132 553 -132 l 533 -132 q 514 -126 526 -129 q 483 -111 501 -124 q 465 -83 465 -99 q 472 -35 465 -67 q 478 29 478 -3 l 478 69 l 460 63 q 365 31 417 49 q 253 2 313 14 q 183 -9 194 -10 q 159 6 171 -8 q 139 38 147 19 q 122 71 131 56 q 121 82 121 79 q 131 89 121 89 q 406 128 206 85 l 467 140 l 478 143 l 478 263 l 375 251 l 368 251 l 315 246 l 278 239 q 245 248 263 239 q 233 281 228 257 q 239 293 239 286 q 346 482 324 436 l 250 478 q 210 486 218 478 q 181 521 189 501 q 174 547 174 540 q 178 553 174 553 q 196 549 183 553 q 239 546 208 546 l 258 546 l 372 551 q 392 608 388 593 q 392 639 396 624 q 403 675 381 675 q 457 658 424 678 q 483 617 492 642 l 458 556 z "},"邮":{"ha":1389,"x_min":101,"x_max":1289,"o":"m 860 913 q 849 978 860 956 q 839 1012 839 1001 q 855 1022 839 1022 q 942 988 871 1022 l 1206 1008 l 1224 1008 q 1275 975 1261 1008 q 1281 958 1281 963 q 1274 947 1281 953 q 1264 932 1267 940 q 1117 681 1201 804 q 1111 665 1111 671 q 1126 642 1111 658 q 1289 322 1289 486 q 1271 206 1289 251 q 1217 160 1253 160 q 1040 257 1164 160 q 968 335 968 313 q 981 343 968 343 q 1043 320 994 343 q 1139 283 1092 297 q 1192 268 1186 268 q 1202 286 1197 268 q 1207 333 1207 304 q 1185 426 1207 361 q 1128 533 1164 490 q 1046 618 1092 576 q 1028 657 1028 636 q 1054 719 1028 678 q 1175 935 1119 817 l 942 918 l 946 -117 q 919 -147 946 -147 q 874 -131 897 -147 q 851 -87 851 -114 q 857 -51 851 -79 q 863 28 863 -24 l 860 913 m 381 422 l 224 417 l 235 179 l 381 181 l 381 422 m 636 435 l 463 426 l 463 183 l 624 188 l 636 435 m 378 710 l 208 701 l 219 492 l 381 499 l 378 710 m 653 724 l 465 715 l 463 503 l 639 510 l 653 724 m 703 192 q 738 134 738 150 q 727 117 738 118 q 699 114 717 115 l 238 103 l 239 72 l 239 68 q 216 35 239 35 q 172 53 193 35 q 150 89 150 71 l 151 106 l 151 176 l 125 697 q 104 781 124 744 q 101 790 101 785 q 118 803 101 803 q 204 778 135 803 l 378 786 l 378 1053 q 366 1099 378 1082 q 354 1124 354 1117 q 369 1138 354 1138 q 414 1129 385 1138 q 465 1083 465 1115 l 465 792 l 675 803 l 690 804 q 746 771 724 804 q 753 750 753 758 q 749 735 753 742 q 743 719 744 728 l 703 192 z "},"金":{"ha":1389,"x_min":38,"x_max":1361,"o":"m 681 1146 q 756 1100 710 1146 q 772 1071 772 1083 q 725 997 772 1058 q 1340 569 1013 738 q 1361 549 1361 560 q 1337 511 1361 538 q 1296 485 1313 485 q 1272 490 1279 485 q 678 932 967 669 q 267 554 496 704 q 117 467 176 494 q 48 439 58 439 q 38 447 38 439 q 71 488 38 467 q 651 1068 453 753 q 667 1119 667 1093 q 681 1146 667 1146 m 528 579 l 499 578 q 464 586 485 578 q 426 638 443 594 q 424 652 424 646 q 431 658 424 658 q 449 655 438 658 q 486 651 461 651 l 503 651 l 819 672 q 862 679 847 674 q 885 685 876 685 q 910 675 893 685 q 956 622 956 646 q 922 603 956 606 l 732 592 l 731 436 l 1003 449 q 1047 456 1032 450 q 1067 461 1061 461 q 1091 451 1074 461 q 1124 425 1108 440 q 1139 399 1139 410 q 1107 376 1139 379 l 731 358 l 728 14 l 1153 25 q 1196 31 1181 25 q 1219 38 1211 38 q 1244 25 1226 38 q 1293 -31 1293 -8 q 1257 -51 1293 -49 l 208 -79 l 178 -81 q 139 -69 150 -81 q 104 -1 104 -35 q 110 7 104 7 q 131 3 117 7 q 182 -1 144 -1 l 644 11 l 643 354 l 324 339 q 288 348 306 339 q 251 404 269 357 q 249 419 249 413 q 256 425 249 425 q 274 422 263 425 q 311 418 286 418 l 328 418 l 643 432 l 642 586 l 528 579 m 815 49 q 855 113 815 63 q 928 226 894 164 q 963 322 963 288 q 978 347 965 347 q 1004 336 985 347 q 1057 279 1057 303 q 1009 200 1057 256 q 928 113 961 144 q 869 60 896 81 q 828 39 842 39 q 815 49 815 39 m 475 58 q 340 244 419 157 q 331 269 331 257 q 350 294 331 281 q 376 307 369 307 q 403 287 382 307 q 451 236 425 267 q 503 174 478 206 q 544 116 528 142 q 560 81 560 90 q 539 54 560 72 q 503 36 518 36 q 475 58 488 36 z "},"链":{"ha":1389,"x_min":60,"x_max":1354,"o":"m 247 38 l 250 311 l 176 307 l 143 306 q 106 322 124 306 q 82 357 88 339 q 76 378 76 375 q 89 388 76 388 l 132 381 l 150 382 l 250 386 l 251 572 l 236 571 q 219 570 226 569 q 197 571 213 571 q 166 585 181 571 q 144 617 151 599 q 138 644 138 636 q 147 651 138 651 q 167 648 157 651 q 199 644 178 644 l 213 644 l 271 646 l 343 651 l 364 651 q 406 664 383 653 q 424 665 414 665 q 458 642 433 665 q 483 607 483 619 q 451 583 483 583 l 332 575 l 331 389 l 400 393 q 435 399 421 393 q 456 405 450 406 q 478 393 463 404 q 517 342 517 365 q 488 324 517 326 l 329 314 l 328 78 l 364 99 q 408 128 386 114 q 449 156 431 143 q 479 167 467 168 q 492 154 492 167 q 468 115 493 142 q 331 -12 399 44 q 239 -65 263 -68 q 206 -30 222 -61 q 188 10 189 1 q 200 19 188 18 q 238 32 213 21 l 247 38 m 493 629 l 533 624 q 586 626 564 624 l 715 638 l 724 638 q 765 622 751 638 q 779 595 779 606 q 772 578 779 585 q 750 551 764 571 q 658 403 658 414 q 673 380 658 392 q 711 346 688 368 q 771 260 771 283 q 738 191 771 238 q 643 90 704 144 l 678 83 q 1332 -8 1042 0 q 1354 -19 1354 -10 q 1347 -46 1354 -29 q 1293 -92 1325 -92 l 1282 -92 q 1200 -83 1278 -92 q 960 -47 1122 -75 q 710 3 799 -19 q 589 25 621 25 q 526 15 557 25 q 481 6 494 6 q 459 22 468 6 q 450 57 450 38 q 488 86 450 81 q 549 94 517 94 q 679 254 679 217 q 628 318 679 274 q 604 336 610 333 q 574 384 574 357 q 595 443 574 411 q 671 565 617 475 l 585 556 l 554 553 q 515 572 535 553 q 488 613 494 590 l 488 618 q 493 629 488 629 m 651 771 q 531 925 597 861 q 514 951 514 942 q 529 974 514 961 q 554 986 544 986 q 585 969 564 986 q 633 926 607 951 q 683 872 658 900 q 723 819 707 843 q 739 783 739 796 q 721 753 739 771 q 688 736 703 736 q 651 771 672 736 m 265 885 l 363 892 q 404 902 379 893 q 439 911 429 911 q 483 885 464 911 q 503 843 503 860 q 485 824 503 826 l 229 810 q 209 777 221 797 q 188 742 197 757 l 171 715 q 71 599 96 596 q 60 611 60 599 q 83 665 60 624 q 186 884 142 764 q 231 1056 231 1004 l 231 1071 q 247 1088 231 1088 q 275 1075 258 1088 q 318 1019 318 1047 q 301 969 318 1011 q 276 910 285 928 q 265 885 268 893 m 858 499 q 813 540 813 499 q 817 554 817 549 q 917 807 881 682 l 826 800 q 794 808 807 800 q 758 864 758 838 q 769 871 758 871 q 814 868 796 868 l 933 875 q 968 1064 968 1036 q 989 1092 968 1092 q 1018 1082 1000 1092 q 1054 1042 1054 1065 q 1047 1013 1054 1033 q 1028 938 1040 993 q 1013 882 1021 906 q 1221 902 1203 896 q 1251 908 1239 908 q 1285 889 1264 908 q 1307 854 1307 869 q 1278 833 1307 836 l 1000 813 q 943 656 974 722 l 911 583 l 933 583 q 1022 588 983 586 l 1024 640 q 1006 717 1024 688 q 1003 725 1003 722 q 1031 736 1003 736 q 1078 724 1056 736 q 1101 690 1101 713 l 1101 593 q 1193 601 1185 599 q 1211 606 1201 606 q 1251 574 1229 606 q 1260 546 1260 560 q 1250 531 1260 535 q 1101 518 1242 528 l 1101 375 q 1253 388 1242 382 q 1278 393 1265 393 q 1306 379 1290 393 q 1340 329 1340 351 q 1308 311 1340 314 l 1101 301 l 1101 92 q 1078 61 1101 61 q 1041 76 1068 61 q 1014 114 1014 90 q 1022 299 1022 179 q 849 293 874 293 q 779 360 797 293 q 778 368 778 363 q 789 375 778 375 q 811 370 796 375 q 849 365 826 365 l 1022 372 l 1022 513 q 982 510 1003 511 q 858 499 921 508 z "},"键":{"ha":1389,"x_min":60,"x_max":1347,"o":"m 275 1089 q 318 1038 318 1061 q 278 928 318 1014 l 335 931 q 376 941 351 932 q 411 950 401 950 q 456 924 436 950 q 475 882 475 899 q 457 863 475 865 l 242 851 l 229 824 q 209 791 221 811 q 188 756 197 771 l 171 729 q 71 613 96 610 q 60 625 60 613 q 83 679 60 638 q 186 898 142 778 q 231 1069 231 1018 l 231 1085 q 247 1101 231 1101 q 275 1089 258 1101 m 749 797 q 796 792 776 792 l 956 801 l 956 892 l 899 886 q 889 885 893 885 l 878 885 q 790 947 811 885 q 797 951 790 951 l 804 951 q 853 947 838 947 l 860 947 l 957 956 l 957 1031 q 939 1100 957 1078 q 933 1113 933 1108 q 955 1122 933 1122 q 1002 1108 976 1122 q 1028 1072 1028 1093 l 1028 960 l 1140 968 l 1153 969 q 1190 951 1175 969 q 1206 923 1206 932 q 1201 906 1206 914 q 1196 889 1197 899 l 1189 818 l 1236 831 q 1280 810 1258 831 q 1301 777 1301 790 q 1275 761 1301 764 l 1183 756 l 1175 658 q 1206 611 1206 622 q 1195 597 1206 600 q 1169 593 1185 594 l 1026 583 l 1026 496 l 1096 500 q 1140 510 1122 503 q 1169 517 1158 517 q 1197 506 1181 517 q 1223 481 1213 494 q 1233 458 1233 467 q 1206 440 1233 443 l 1026 431 l 1026 343 l 1154 349 q 1185 356 1169 350 q 1214 365 1201 361 q 1234 369 1226 369 q 1258 358 1242 369 q 1304 308 1304 331 q 1278 290 1304 293 l 1026 278 l 1026 115 q 1008 83 1026 83 q 964 98 985 83 q 943 128 943 113 q 948 165 943 143 q 953 239 953 186 l 953 275 l 842 269 l 817 268 q 786 275 796 268 q 744 319 754 293 q 742 329 742 328 q 749 338 742 338 q 767 335 757 338 q 807 332 778 332 l 953 339 l 954 426 l 900 422 q 882 421 890 421 l 867 421 q 824 429 833 421 q 790 483 790 458 q 796 493 790 493 q 812 490 801 493 q 847 486 822 486 l 882 488 l 954 492 l 954 579 l 918 576 q 881 574 899 574 q 842 585 864 574 q 811 626 821 597 q 810 633 810 629 q 818 642 810 642 q 860 638 835 638 l 892 639 l 956 643 l 956 743 l 840 736 l 808 735 q 749 776 769 735 l 742 790 q 749 797 742 797 m 1128 904 l 1028 896 l 1028 807 l 1121 813 l 1128 904 m 474 190 l 472 200 q 490 226 472 219 q 548 232 508 232 q 614 228 588 232 q 669 481 653 339 l 599 471 q 576 465 585 469 q 561 461 568 461 q 535 476 554 461 q 517 506 517 492 q 550 579 517 519 q 649 815 583 639 l 578 804 q 542 801 558 801 q 511 815 526 801 q 488 845 496 828 q 479 871 479 863 q 488 879 479 879 q 493 879 490 879 l 539 874 l 553 874 q 567 875 558 874 l 682 890 q 690 892 686 892 l 697 892 q 729 879 710 892 q 749 853 749 867 q 740 829 749 839 q 697 732 732 819 q 611 542 663 644 l 697 554 q 710 556 701 556 q 752 537 742 556 q 763 512 763 518 q 758 498 763 506 q 744 444 753 490 q 682 207 725 325 q 797 149 711 197 q 1018 51 883 100 q 1322 -8 1153 3 q 1347 -22 1347 -10 q 1317 -82 1347 -46 q 1288 -97 1303 -97 l 1244 -90 q 724 106 1006 -51 q 656 143 683 131 q 522 -72 592 8 q 479 -106 493 -106 q 471 -93 471 -106 q 488 -51 471 -81 q 590 163 549 49 l 568 164 l 511 158 l 503 158 q 476 178 482 158 q 474 190 474 183 m 1115 751 l 1028 747 l 1028 647 l 1107 653 l 1115 751 m 132 394 l 150 396 l 250 400 l 251 586 l 236 585 q 219 584 226 583 q 197 585 213 585 q 166 599 181 585 q 144 631 151 613 q 138 658 138 650 q 147 665 138 665 q 167 662 157 665 q 199 658 178 658 l 213 658 l 271 660 l 343 665 l 364 665 q 406 678 383 667 q 424 679 414 679 q 458 656 433 679 q 483 621 483 633 q 451 597 483 597 l 332 589 l 331 403 l 400 407 q 435 413 421 407 q 456 419 450 419 q 478 407 463 418 q 517 356 517 379 q 488 338 517 340 l 329 328 l 328 57 l 376 82 q 422 110 399 96 q 463 135 444 124 q 493 146 481 147 q 506 132 506 144 q 481 94 507 119 q 338 -27 408 26 q 244 -78 268 -81 q 213 -40 228 -72 q 197 0 197 -8 q 210 9 197 8 q 247 19 222 10 l 250 325 l 176 321 l 143 319 q 106 336 124 319 q 82 371 88 353 q 76 392 76 389 q 89 401 76 401 l 132 394 z "},"项":{"ha":1389,"x_min":54,"x_max":1317,"o":"m 557 -131 q 539 -136 544 -136 q 533 -119 533 -136 q 558 -89 533 -103 q 808 136 736 13 q 868 300 850 206 q 886 593 886 394 q 874 623 886 608 q 861 646 861 638 q 879 661 861 661 q 926 653 897 661 q 965 638 956 644 q 975 613 975 631 q 956 314 971 417 q 896 129 940 211 q 557 -131 810 -33 m 64 265 q 301 338 139 265 l 301 767 l 217 760 q 200 758 207 758 l 182 758 q 142 772 153 758 q 109 816 117 797 q 101 840 101 835 q 107 846 101 846 q 126 842 113 846 q 157 838 140 838 l 179 838 q 190 839 185 838 l 442 857 q 490 867 476 861 q 511 872 503 872 q 538 862 519 872 q 569 836 556 851 q 583 810 583 821 q 551 786 583 789 l 388 774 l 385 374 q 553 453 517 435 q 600 472 589 472 q 611 465 611 472 q 392 296 611 432 q 210 193 269 221 q 140 165 150 165 q 85 205 117 165 q 54 255 54 244 q 64 265 54 265 m 1197 208 q 1174 178 1197 178 q 1128 195 1151 178 q 1106 226 1106 213 q 1108 252 1106 239 q 1124 746 1110 265 l 735 722 l 746 189 l 746 178 q 723 147 746 147 q 677 165 700 147 q 654 195 654 182 q 657 224 654 208 q 660 278 660 240 l 658 325 l 653 707 q 640 771 653 744 q 626 806 626 797 q 645 814 626 814 q 735 793 664 814 l 788 796 l 796 808 q 839 881 808 829 q 869 958 869 932 l 667 946 q 613 943 636 943 q 573 958 589 943 q 548 992 557 972 q 539 1017 539 1013 q 547 1022 539 1022 q 568 1019 554 1022 q 613 1015 582 1015 l 629 1015 l 1149 1047 q 1205 1056 1190 1050 q 1231 1063 1219 1063 q 1260 1050 1243 1063 q 1300 1000 1300 1019 q 1276 983 1300 986 l 933 963 q 961 931 961 943 q 928 874 961 919 q 872 801 896 829 l 1143 818 q 1151 819 1147 819 l 1158 819 q 1199 803 1181 819 q 1217 771 1217 786 l 1210 742 l 1196 290 l 1197 219 l 1197 208 m 1271 -118 q 1222 -82 1258 -118 q 988 117 1129 17 q 967 142 967 131 q 984 172 967 153 q 1013 192 1001 192 q 1072 157 1025 192 q 1297 -25 1193 72 q 1317 -52 1317 -42 q 1308 -78 1317 -62 q 1271 -118 1289 -118 z "},"须":{"ha":1389,"x_min":61,"x_max":1317,"o":"m 161 656 q 129 643 138 643 q 121 652 121 643 q 144 685 121 661 q 406 1017 381 922 q 411 1056 411 1042 q 422 1071 411 1071 q 454 1056 433 1071 q 511 989 511 1013 q 508 981 511 986 q 161 656 365 774 m 728 793 l 788 797 q 847 895 825 850 q 869 958 869 940 l 667 946 q 613 943 636 943 q 573 958 589 943 q 548 992 557 972 q 539 1017 539 1013 q 547 1022 539 1022 q 568 1019 554 1022 q 613 1015 582 1015 l 629 1015 l 1149 1047 q 1205 1056 1190 1050 q 1231 1063 1219 1063 q 1260 1050 1243 1063 q 1300 1000 1300 1019 q 1276 983 1300 986 l 933 963 q 961 924 961 943 q 872 801 961 906 l 1151 818 q 1160 819 1156 819 l 1167 819 q 1201 806 1178 819 q 1225 778 1225 793 q 1222 756 1225 763 q 1218 742 1219 749 l 1196 211 l 1196 196 q 1170 171 1193 169 q 1126 191 1147 172 q 1106 223 1104 210 q 1110 248 1107 236 q 1132 746 1113 260 l 728 722 l 744 258 l 747 189 l 747 174 q 724 147 747 147 q 678 165 701 147 q 656 195 656 182 q 658 224 656 208 q 661 278 661 240 l 646 707 q 631 775 643 753 q 619 806 619 797 q 638 814 619 814 q 728 793 657 814 m 1271 -118 q 1222 -82 1258 -118 q 986 118 1129 15 q 965 143 965 132 q 983 174 965 154 q 1012 193 1000 193 q 1109 132 1024 193 q 1297 -25 1194 71 q 1317 -52 1317 -42 q 1308 -78 1317 -62 q 1271 -118 1289 -118 m 478 436 q 488 453 478 453 q 520 438 499 453 q 560 403 542 422 q 578 374 578 383 q 575 361 578 364 q 253 32 428 161 q 133 -44 181 -19 q 73 -68 85 -68 q 61 -60 61 -68 q 88 -25 61 -46 q 464 378 318 149 q 478 431 478 399 l 478 436 m 174 350 q 144 339 156 339 q 132 344 132 339 q 150 373 132 357 q 200 419 168 389 q 438 740 438 646 l 438 750 q 449 761 438 761 q 483 744 461 761 q 538 678 538 704 q 535 671 538 674 q 174 350 375 458 m 557 -131 q 539 -136 544 -136 q 533 -119 533 -136 q 558 -89 533 -103 q 808 136 736 13 q 868 300 850 206 q 886 593 886 394 q 874 623 886 608 q 861 646 861 638 q 879 661 861 661 q 926 653 897 661 q 965 638 956 644 q 975 613 975 631 q 956 314 971 417 q 896 129 940 211 q 557 -131 810 -33 z "},"鼠":{"ha":1389,"x_min":114,"x_max":1358,"o":"m 1065 675 q 1101 626 1101 642 q 1088 608 1101 611 q 1056 603 1075 604 l 388 574 l 388 569 q 365 544 388 544 q 316 562 338 544 q 294 597 294 579 l 294 610 q 299 661 299 651 l 279 882 q 263 967 274 944 q 253 998 253 989 q 268 1007 253 1007 q 342 989 283 1007 q 522 1075 454 1026 q 556 1119 551 1096 q 572 1142 560 1142 q 601 1123 585 1142 q 628 1082 617 1104 q 640 1049 640 1060 q 622 1029 640 1039 q 361 924 500 964 l 368 839 l 515 849 q 558 858 542 850 q 589 865 575 865 q 618 853 603 865 q 642 825 633 840 q 651 803 651 810 q 613 782 651 785 l 374 767 l 382 647 l 982 675 l 993 797 l 783 788 l 769 790 q 739 807 756 793 q 717 838 722 821 q 711 861 711 854 q 718 868 711 868 q 738 865 725 868 q 779 861 750 861 l 799 861 l 1000 871 l 1011 983 l 792 969 q 776 968 783 968 l 764 968 q 694 1022 715 968 q 686 1045 686 1040 q 694 1050 686 1050 q 715 1047 703 1050 q 753 1043 726 1043 l 1050 1064 q 1090 1049 1068 1064 q 1113 1022 1113 1033 q 1109 1002 1113 1010 q 1104 986 1106 994 l 1065 675 m 1358 203 q 1303 -114 1351 -89 q 1277 -119 1290 -119 q 1233 -110 1264 -119 q 1047 139 1110 -69 q 982 489 997 301 q 966 544 979 522 q 953 569 953 565 q 969 581 953 581 q 1013 572 986 581 q 1052 553 1040 564 q 1065 525 1064 543 q 1160 72 1082 213 q 1240 -14 1192 15 q 1249 -17 1246 -17 q 1261 -7 1260 -17 q 1317 210 1294 89 q 1342 257 1325 257 q 1358 211 1358 257 l 1358 203 m 643 468 q 632 525 643 508 q 621 550 621 542 q 634 558 621 558 q 678 550 647 558 q 718 532 710 542 q 726 506 726 522 l 718 32 q 869 92 814 67 q 940 118 925 118 q 954 106 954 118 q 908 58 954 94 q 747 -35 861 22 q 615 -92 633 -92 q 576 -77 597 -92 q 540 -45 556 -62 q 525 -20 525 -28 q 536 -12 525 -12 l 549 -12 q 639 7 590 -12 l 643 468 m 267 440 q 256 497 267 478 q 246 522 246 515 q 272 533 246 533 q 326 519 299 533 q 353 481 353 504 l 344 25 q 483 84 435 60 q 544 108 531 108 q 558 98 558 108 q 510 50 558 88 q 347 -51 463 13 q 201 -115 231 -115 q 167 -104 192 -115 q 117 -50 142 -93 q 114 -42 114 -47 q 146 -32 114 -32 q 261 -4 178 -32 l 267 440 m 964 363 q 935 335 950 335 q 918 342 925 335 q 764 443 839 404 q 744 463 744 454 q 756 491 744 471 q 778 511 768 511 q 876 467 800 511 q 962 412 951 422 q 972 392 972 401 q 964 363 972 382 m 572 328 q 557 335 567 328 q 410 431 503 385 q 390 450 390 440 q 401 478 390 460 q 421 497 411 497 q 483 474 431 497 q 593 408 535 451 q 610 386 610 399 q 599 351 610 374 q 572 328 588 328 m 992 206 q 980 162 992 181 q 957 143 968 143 q 898 183 946 143 q 781 257 850 224 q 763 276 763 267 q 773 306 763 286 q 798 325 783 325 q 875 288 813 325 q 978 224 938 251 q 992 206 992 214 m 400 247 q 381 270 381 258 q 392 298 381 282 q 410 314 403 314 q 448 301 418 314 q 515 269 478 289 q 578 230 551 250 q 606 194 606 210 q 593 159 606 179 q 569 139 581 139 q 540 156 558 139 q 479 201 521 172 q 400 247 438 229 z "},"！":{"ha":1389,"x_min":240,"x_max":386,"o":"m 308 140 q 324 140 308 140 q 363 112 340 140 q 386 53 386 83 q 369 6 386 24 q 318 -12 351 -12 q 263 14 285 -12 q 240 70 240 40 q 258 120 240 100 q 308 140 276 140 m 260 965 q 290 989 260 989 q 349 976 321 989 q 378 946 378 964 l 378 944 q 374 899 376 922 q 369 846 371 876 l 353 310 l 353 240 q 333 229 353 229 q 292 238 313 229 q 272 260 272 246 l 272 261 q 275 315 275 283 l 267 853 q 260 963 267 921 l 260 965 z "},"（":{"ha":1389,"x_min":985,"x_max":1294,"o":"m 1294 -90 q 1268 -112 1294 -112 q 1223 -81 1256 -112 q 1150 6 1190 -50 q 1072 140 1110 63 q 1010 312 1035 218 q 985 510 985 406 q 1010 708 985 614 q 1072 879 1035 801 q 1150 1013 1110 957 q 1223 1101 1190 1069 q 1268 1132 1256 1132 q 1294 1110 1294 1132 q 1288 1093 1294 1103 q 1108 711 1156 938 q 1088 510 1088 608 q 1108 308 1088 411 q 1288 -74 1156 86 q 1294 -90 1294 -83 z "},"）":{"ha":1389,"x_min":94,"x_max":404,"o":"m 121 -112 q 94 -90 94 -112 q 101 -74 94 -83 q 281 308 233 86 q 301 510 301 411 q 281 711 301 608 q 101 1093 233 938 q 94 1110 94 1103 q 121 1132 94 1132 q 166 1101 133 1132 q 239 1013 199 1069 q 317 879 279 957 q 379 708 354 801 q 404 510 404 614 q 379 312 404 406 q 317 140 354 218 q 239 6 279 63 q 166 -81 199 -50 q 121 -112 133 -112 z "},"，":{"ha":1389,"x_min":140,"x_max":321,"o":"m 158 -144 q 140 -125 140 -144 q 156 -101 140 -111 q 196 -62 172 -90 q 228 -11 219 -33 q 199 1 207 -3 q 163 69 163 33 q 187 123 163 104 q 242 142 211 142 q 295 115 274 142 q 321 53 317 89 l 321 42 q 260 -82 321 -19 q 158 -144 200 -144 z "},"：":{"ha":1389,"x_min":271,"x_max":417,"o":"m 342 140 q 356 140 342 140 q 394 112 371 140 q 417 55 417 83 q 399 8 417 26 q 349 -10 382 -10 q 293 19 315 -10 q 271 77 271 47 q 292 124 271 107 q 342 140 313 140 m 342 656 q 356 656 342 656 q 394 627 371 656 q 417 570 417 599 q 399 524 417 542 q 349 506 382 506 q 293 534 315 506 q 271 592 271 563 q 292 639 271 622 q 342 656 313 656 z "},"；":{"ha":1389,"x_min":244,"x_max":417,"o":"m 264 -139 q 244 -119 244 -139 q 253 -103 244 -108 q 303 -57 279 -85 q 332 -4 326 -29 q 317 0 329 -3 q 297 8 304 3 q 267 69 267 36 q 289 118 267 101 q 340 135 311 135 q 388 110 368 135 q 413 39 407 85 q 372 -60 413 -8 q 275 -136 332 -111 q 264 -139 269 -139 m 342 656 q 356 656 342 656 q 394 627 371 656 q 417 570 417 599 q 399 524 417 542 q 349 506 382 506 q 293 534 315 506 q 271 592 271 563 q 292 639 271 622 q 342 656 313 656 z "},"？":{"ha":1389,"x_min":97,"x_max":697,"o":"m 371 140 q 387 140 371 140 q 426 112 403 140 q 449 53 449 83 q 431 6 449 24 q 381 -12 414 -12 q 325 14 347 -12 q 303 70 303 40 q 321 120 303 100 q 371 140 339 140 m 417 353 l 417 328 q 431 256 417 311 q 385 233 431 233 q 332 256 340 233 q 324 311 324 279 q 331 390 324 343 q 367 476 338 436 q 434 548 396 515 q 510 614 472 581 q 596 789 596 690 q 564 874 596 839 q 463 908 532 908 q 335 882 393 908 q 241 819 276 856 q 188 721 206 782 q 162 703 182 703 q 119 722 142 703 q 97 755 97 740 q 100 774 97 769 q 255 940 165 889 q 458 990 344 990 q 635 939 572 990 q 697 806 697 888 q 671 675 697 725 q 605 588 644 625 q 524 518 565 550 q 450 447 483 486 q 417 353 417 407 z "}}}
